M48
; DRILL file {KiCad 7.0.1} date Sat Apr 13 10:55:43 2024
; FORMAT={-:-/ absolute / inch / decimal}
; #@! TF.CreationDate,2024-04-13T10:55:43+02:00
; #@! TF.GenerationSoftware,Kicad,Pcbnew,7.0.1
; #@! TF.FileFunction,Plated,1,2,PTH
FMAT,2
INCH
; #@! TA.AperFunction,Plated,PTH,ComponentDrill
T1C0.0138
; #@! TA.AperFunction,Plated,PTH,ViaDrill
T2C0.0157
; #@! TA.AperFunction,Plated,PTH,ComponentDrill
T3C0.0173
; #@! TA.AperFunction,Plated,PTH,ComponentDrill
T4C0.0197
; #@! TA.AperFunction,Plated,PTH,ComponentDrill
T5C0.0394
; #@! TA.AperFunction,Plated,PTH,ComponentDrill
T6C0.0472
; #@! TA.AperFunction,Plated,PTH,ComponentDrill
T7C0.0591
; #@! TA.AperFunction,Plated,PTH,ComponentDrill
T8C0.0610
; #@! TA.AperFunction,Plated,PTH,ComponentDrill
T9C0.1260
%
G90
G05
T2
X4.2283Y-4.8898
X4.2283Y-4.9331
X4.2507Y-5.0182
X4.2835Y-4.9252
X4.3346Y-5.0197
X4.3504Y-5.0551
X4.3701Y-5.0197
X4.5394Y-4.6772
X4.5394Y-4.7244
X4.6102Y-3.626
X4.6102Y-4.9094
X4.6142Y-4.815
X4.622Y-4.7126
X4.622Y-4.7638
X4.626Y-4.8661
X4.6535Y-3.5748
X4.6732Y-4.8543
X4.6752Y-3.189
X4.6772Y-4.9173
X4.7244Y-3.437
X4.7293Y-4.6949
X4.7756Y-3.1969
X4.7953Y-3.3031
X4.7953Y-3.3465
X4.7992Y-3.3898
X4.7992Y-3.4272
X4.8169Y-3.1969
X4.8622Y-4.2953
X4.8622Y-4.8661
X4.8661Y-4.378
X4.8661Y-4.4331
X4.8661Y-4.4921
X4.8661Y-4.5433
X4.878Y-4.9528
X4.878Y-5.0315
X4.9045Y-4.2953
X4.9094Y-4.7205
X4.9173Y-3.063
X4.9173Y-3.2087
X4.9173Y-4.3504
X4.9213Y-3.1378
X4.9281Y-4.5039
X4.9291Y-4.5433
X4.9685Y-2.9449
X4.9685Y-2.9803
X4.9685Y-3.0157
X4.9754Y-4.3504
X4.9843Y-3.685
X4.9843Y-3.7441
X4.9921Y-3.4488
X4.9961Y-3.5039
X5.0039Y-4.8701
X5.0039Y-4.9528
X5.0039Y-5.0276
X5.0197Y-3.7441
X5.0197Y-4.5709
X5.0236Y-3.3071
X5.0236Y-3.3543
X5.0236Y-3.563
X5.0276Y-3.0551
X5.0276Y-3.1378
X5.0276Y-3.189
X5.0768Y-3.248
X5.0787Y-4.5709
X5.1033Y-5.185
X5.1033Y-5.2244
X5.1299Y-3.6339
X5.1299Y-3.689
X5.1299Y-3.7441
X5.1299Y-3.7953
X5.1417Y-3.8898
X5.1417Y-3.9724
X5.1417Y-4.5669
X5.1772Y-3.6339
X5.1772Y-3.689
X5.1772Y-3.7441
X5.1772Y-3.7953
X5.185Y-4.5669
X5.1959Y-3.9429
X5.2136Y-5.0984
X5.2205Y-3.6339
X5.2205Y-3.689
X5.248Y-4.563
X5.2638Y-3.6339
X5.2638Y-3.689
X5.2638Y-5.0866
X5.2717Y-4.9606
X5.2717Y-5.0039
X5.2756Y-4.2008
X5.2795Y-4.2402
X5.2795Y-5.0433
X5.3071Y-3.6339
X5.311Y-3.689
X5.311Y-4.2008
X5.315Y-4.2402
X5.3504Y-3.6339
X5.3543Y-3.689
X5.4016Y-3.6339
X5.4016Y-3.689
X5.4882Y-3.3799
X5.5906Y-4.1634
X5.6004Y-4.252
X5.6102Y-4.2028
X5.6398Y-4.1634
X5.6496Y-4.2421
T3
X4.0699Y-5.0832
X4.0699Y-5.1344
X4.1093Y-5.0576
X4.1093Y-5.1088
X4.1093Y-5.1599
T4
X4.0394Y-3.1496
X4.067Y-3.0828
X4.067Y-3.2164
X4.1339Y-3.0551
X4.1339Y-3.2441
X4.2007Y-3.0828
X4.2007Y-3.2164
X4.2283Y-3.1496
X6.2717Y-3.1496
X6.2993Y-3.0828
X6.2993Y-3.2164
X6.3661Y-3.0551
X6.3661Y-3.2441
X6.433Y-3.0828
X6.433Y-3.2164
X6.4606Y-3.1496
T5
X4.4364Y-5.0433
X4.4364Y-5.1433
X4.5364Y-5.0433
X4.5364Y-5.1433
X5.9055Y-3.5039
X6.2008Y-3.5039
T6
X5.1874Y-3.5039
X5.2165Y-3.2677
X5.7874Y-3.5039
X6.1024Y-3.2677
T7
X5.5295Y-3.7795
X5.7441Y-3.7795
X5.9587Y-3.7795
T8
X4.6831Y-2.9724
X4.872Y-2.9724
X5.061Y-2.9724
X5.25Y-2.9724
X5.439Y-2.9724
X5.628Y-2.9724
X5.8169Y-2.9724
T9
X4.1339Y-3.1496
X6.3661Y-3.1496
T1
G00X4.1203Y-4.968
M15
G01X4.0809Y-4.968
M16
G05
G00X4.1203Y-5.2495
M15
G01X4.0809Y-5.2495
M16
G05
T0
M30
