%TF.GenerationSoftware,KiCad,Pcbnew,7.0.1*%
%TF.CreationDate,2024-04-13T10:55:35+02:00*%
%TF.ProjectId,Zuendung,5a75656e-6475-46e6-972e-6b696361645f,rev?*%
%TF.SameCoordinates,Original*%
%TF.FileFunction,Profile,NP*%
%FSLAX46Y46*%
G04 Gerber Fmt 4.6, Leading zero omitted, Abs format (unit mm)*
G04 Created by KiCad (PCBNEW 7.0.1) date 2024-04-13 10:55:35*
%MOMM*%
%LPD*%
G01*
G04 APERTURE LIST*
%TA.AperFunction,Profile*%
%ADD10C,0.100000*%
%TD*%
G04 APERTURE END LIST*
D10*
X162600000Y-101000000D02*
G75*
G03*
X161600000Y-102000000I0J-1000000D01*
G01*
X106100000Y-75000000D02*
X103600000Y-75000000D01*
X166600000Y-115000000D02*
X166600000Y-136900000D01*
X159600000Y-74000000D02*
G75*
G03*
X160600000Y-75000000I1000000J0D01*
G01*
X100100000Y-78500000D02*
X100100000Y-136900000D01*
X159600000Y-73500000D02*
X159600000Y-74000000D01*
X165600000Y-101000000D02*
G75*
G03*
X166600000Y-100000000I0J1000000D01*
G01*
X102892893Y-75292893D02*
X100392893Y-77792893D01*
X109568629Y-147031371D02*
X100568629Y-138031371D01*
X156000000Y-147500000D02*
G75*
G03*
X157131371Y-147031371I0J1600000D01*
G01*
X166131371Y-138031371D02*
G75*
G03*
X166600000Y-136900000I-1131371J1131371D01*
G01*
X106100000Y-75000000D02*
G75*
G03*
X107100000Y-74000000I0J1000000D01*
G01*
X166600000Y-115000000D02*
G75*
G03*
X165600000Y-114000000I-1000000J0D01*
G01*
X159600000Y-73500000D02*
G75*
G03*
X158600000Y-72500000I-1000000J0D01*
G01*
X109568629Y-147031371D02*
G75*
G03*
X110700000Y-147500000I1131371J1131371D01*
G01*
X160600000Y-75000000D02*
X163100000Y-75000000D01*
X100392893Y-77792893D02*
G75*
G03*
X100100000Y-78500000I707107J-707107D01*
G01*
X100100000Y-136900000D02*
G75*
G03*
X100568629Y-138031371I1600000J0D01*
G01*
X162600000Y-114000000D02*
X165600000Y-114000000D01*
X108100000Y-72500000D02*
X158600000Y-72500000D01*
X108100000Y-72500000D02*
G75*
G03*
X107100000Y-73500000I0J-1000000D01*
G01*
X163807107Y-75292893D02*
X166307107Y-77792893D01*
X161600000Y-113000000D02*
G75*
G03*
X162600000Y-114000000I1000000J0D01*
G01*
X110700000Y-147500000D02*
X156000000Y-147500000D01*
X107100000Y-73500000D02*
X107100000Y-74000000D01*
X161600000Y-102000000D02*
X161600000Y-113000000D01*
X163807107Y-75292893D02*
G75*
G03*
X163100000Y-75000000I-707107J-707107D01*
G01*
X150900000Y-115000000D02*
G75*
G03*
X150900000Y-115000000I-5000000J0D01*
G01*
X103600000Y-75000000D02*
G75*
G03*
X102892893Y-75292893I0J-1000000D01*
G01*
X166600000Y-78500000D02*
G75*
G03*
X166307107Y-77792893I-1000000J0D01*
G01*
X166600000Y-100000000D02*
X166600000Y-78500000D01*
X157131371Y-147031371D02*
X166131371Y-138031371D01*
X165600000Y-101000000D02*
X162600000Y-101000000D01*
M02*
