%TF.GenerationSoftware,KiCad,Pcbnew,7.0.1*%
%TF.CreationDate,2024-04-13T10:55:35+02:00*%
%TF.ProjectId,Zuendung,5a75656e-6475-46e6-972e-6b696361645f,rev?*%
%TF.SameCoordinates,Original*%
%TF.FileFunction,Legend,Top*%
%TF.FilePolarity,Positive*%
%FSLAX46Y46*%
G04 Gerber Fmt 4.6, Leading zero omitted, Abs format (unit mm)*
G04 Created by KiCad (PCBNEW 7.0.1) date 2024-04-13 10:55:35*
%MOMM*%
%LPD*%
G01*
G04 APERTURE LIST*
%ADD10C,0.150000*%
%ADD11C,0.120000*%
G04 APERTURE END LIST*
D10*
%TO.C,U5*%
X135962619Y-101261904D02*
X136772142Y-101261904D01*
X136772142Y-101261904D02*
X136867380Y-101214285D01*
X136867380Y-101214285D02*
X136915000Y-101166666D01*
X136915000Y-101166666D02*
X136962619Y-101071428D01*
X136962619Y-101071428D02*
X136962619Y-100880952D01*
X136962619Y-100880952D02*
X136915000Y-100785714D01*
X136915000Y-100785714D02*
X136867380Y-100738095D01*
X136867380Y-100738095D02*
X136772142Y-100690476D01*
X136772142Y-100690476D02*
X135962619Y-100690476D01*
X135962619Y-99738095D02*
X135962619Y-100214285D01*
X135962619Y-100214285D02*
X136438809Y-100261904D01*
X136438809Y-100261904D02*
X136391190Y-100214285D01*
X136391190Y-100214285D02*
X136343571Y-100119047D01*
X136343571Y-100119047D02*
X136343571Y-99880952D01*
X136343571Y-99880952D02*
X136391190Y-99785714D01*
X136391190Y-99785714D02*
X136438809Y-99738095D01*
X136438809Y-99738095D02*
X136534047Y-99690476D01*
X136534047Y-99690476D02*
X136772142Y-99690476D01*
X136772142Y-99690476D02*
X136867380Y-99738095D01*
X136867380Y-99738095D02*
X136915000Y-99785714D01*
X136915000Y-99785714D02*
X136962619Y-99880952D01*
X136962619Y-99880952D02*
X136962619Y-100119047D01*
X136962619Y-100119047D02*
X136915000Y-100214285D01*
X136915000Y-100214285D02*
X136867380Y-100261904D01*
%TO.C,C11*%
X118992380Y-123042857D02*
X119040000Y-123090476D01*
X119040000Y-123090476D02*
X119087619Y-123233333D01*
X119087619Y-123233333D02*
X119087619Y-123328571D01*
X119087619Y-123328571D02*
X119040000Y-123471428D01*
X119040000Y-123471428D02*
X118944761Y-123566666D01*
X118944761Y-123566666D02*
X118849523Y-123614285D01*
X118849523Y-123614285D02*
X118659047Y-123661904D01*
X118659047Y-123661904D02*
X118516190Y-123661904D01*
X118516190Y-123661904D02*
X118325714Y-123614285D01*
X118325714Y-123614285D02*
X118230476Y-123566666D01*
X118230476Y-123566666D02*
X118135238Y-123471428D01*
X118135238Y-123471428D02*
X118087619Y-123328571D01*
X118087619Y-123328571D02*
X118087619Y-123233333D01*
X118087619Y-123233333D02*
X118135238Y-123090476D01*
X118135238Y-123090476D02*
X118182857Y-123042857D01*
X119087619Y-122090476D02*
X119087619Y-122661904D01*
X119087619Y-122376190D02*
X118087619Y-122376190D01*
X118087619Y-122376190D02*
X118230476Y-122471428D01*
X118230476Y-122471428D02*
X118325714Y-122566666D01*
X118325714Y-122566666D02*
X118373333Y-122661904D01*
X119087619Y-121138095D02*
X119087619Y-121709523D01*
X119087619Y-121423809D02*
X118087619Y-121423809D01*
X118087619Y-121423809D02*
X118230476Y-121519047D01*
X118230476Y-121519047D02*
X118325714Y-121614285D01*
X118325714Y-121614285D02*
X118373333Y-121709523D01*
%TO.C,J2*%
X117162619Y-131033333D02*
X117876904Y-131033333D01*
X117876904Y-131033333D02*
X118019761Y-131080952D01*
X118019761Y-131080952D02*
X118115000Y-131176190D01*
X118115000Y-131176190D02*
X118162619Y-131319047D01*
X118162619Y-131319047D02*
X118162619Y-131414285D01*
X117257857Y-130604761D02*
X117210238Y-130557142D01*
X117210238Y-130557142D02*
X117162619Y-130461904D01*
X117162619Y-130461904D02*
X117162619Y-130223809D01*
X117162619Y-130223809D02*
X117210238Y-130128571D01*
X117210238Y-130128571D02*
X117257857Y-130080952D01*
X117257857Y-130080952D02*
X117353095Y-130033333D01*
X117353095Y-130033333D02*
X117448333Y-130033333D01*
X117448333Y-130033333D02*
X117591190Y-130080952D01*
X117591190Y-130080952D02*
X118162619Y-130652380D01*
X118162619Y-130652380D02*
X118162619Y-130033333D01*
%TO.C,U1*%
X127738095Y-110062619D02*
X127738095Y-110872142D01*
X127738095Y-110872142D02*
X127785714Y-110967380D01*
X127785714Y-110967380D02*
X127833333Y-111015000D01*
X127833333Y-111015000D02*
X127928571Y-111062619D01*
X127928571Y-111062619D02*
X128119047Y-111062619D01*
X128119047Y-111062619D02*
X128214285Y-111015000D01*
X128214285Y-111015000D02*
X128261904Y-110967380D01*
X128261904Y-110967380D02*
X128309523Y-110872142D01*
X128309523Y-110872142D02*
X128309523Y-110062619D01*
X129309523Y-111062619D02*
X128738095Y-111062619D01*
X129023809Y-111062619D02*
X129023809Y-110062619D01*
X129023809Y-110062619D02*
X128928571Y-110205476D01*
X128928571Y-110205476D02*
X128833333Y-110300714D01*
X128833333Y-110300714D02*
X128738095Y-110348333D01*
%TO.C,C2*%
X134567380Y-109366666D02*
X134615000Y-109414285D01*
X134615000Y-109414285D02*
X134662619Y-109557142D01*
X134662619Y-109557142D02*
X134662619Y-109652380D01*
X134662619Y-109652380D02*
X134615000Y-109795237D01*
X134615000Y-109795237D02*
X134519761Y-109890475D01*
X134519761Y-109890475D02*
X134424523Y-109938094D01*
X134424523Y-109938094D02*
X134234047Y-109985713D01*
X134234047Y-109985713D02*
X134091190Y-109985713D01*
X134091190Y-109985713D02*
X133900714Y-109938094D01*
X133900714Y-109938094D02*
X133805476Y-109890475D01*
X133805476Y-109890475D02*
X133710238Y-109795237D01*
X133710238Y-109795237D02*
X133662619Y-109652380D01*
X133662619Y-109652380D02*
X133662619Y-109557142D01*
X133662619Y-109557142D02*
X133710238Y-109414285D01*
X133710238Y-109414285D02*
X133757857Y-109366666D01*
X133757857Y-108985713D02*
X133710238Y-108938094D01*
X133710238Y-108938094D02*
X133662619Y-108842856D01*
X133662619Y-108842856D02*
X133662619Y-108604761D01*
X133662619Y-108604761D02*
X133710238Y-108509523D01*
X133710238Y-108509523D02*
X133757857Y-108461904D01*
X133757857Y-108461904D02*
X133853095Y-108414285D01*
X133853095Y-108414285D02*
X133948333Y-108414285D01*
X133948333Y-108414285D02*
X134091190Y-108461904D01*
X134091190Y-108461904D02*
X134662619Y-109033332D01*
X134662619Y-109033332D02*
X134662619Y-108414285D01*
%TO.C,R11*%
X126882142Y-134592619D02*
X126548809Y-134116428D01*
X126310714Y-134592619D02*
X126310714Y-133592619D01*
X126310714Y-133592619D02*
X126691666Y-133592619D01*
X126691666Y-133592619D02*
X126786904Y-133640238D01*
X126786904Y-133640238D02*
X126834523Y-133687857D01*
X126834523Y-133687857D02*
X126882142Y-133783095D01*
X126882142Y-133783095D02*
X126882142Y-133925952D01*
X126882142Y-133925952D02*
X126834523Y-134021190D01*
X126834523Y-134021190D02*
X126786904Y-134068809D01*
X126786904Y-134068809D02*
X126691666Y-134116428D01*
X126691666Y-134116428D02*
X126310714Y-134116428D01*
X127834523Y-134592619D02*
X127263095Y-134592619D01*
X127548809Y-134592619D02*
X127548809Y-133592619D01*
X127548809Y-133592619D02*
X127453571Y-133735476D01*
X127453571Y-133735476D02*
X127358333Y-133830714D01*
X127358333Y-133830714D02*
X127263095Y-133878333D01*
X128786904Y-134592619D02*
X128215476Y-134592619D01*
X128501190Y-134592619D02*
X128501190Y-133592619D01*
X128501190Y-133592619D02*
X128405952Y-133735476D01*
X128405952Y-133735476D02*
X128310714Y-133830714D01*
X128310714Y-133830714D02*
X128215476Y-133878333D01*
%TO.C,H4*%
X112663095Y-134562619D02*
X112663095Y-133562619D01*
X112663095Y-134038809D02*
X113234523Y-134038809D01*
X113234523Y-134562619D02*
X113234523Y-133562619D01*
X114139285Y-133895952D02*
X114139285Y-134562619D01*
X113901190Y-133515000D02*
X113663095Y-134229285D01*
X113663095Y-134229285D02*
X114282142Y-134229285D01*
%TO.C,J5*%
X150866666Y-74962619D02*
X150866666Y-75676904D01*
X150866666Y-75676904D02*
X150819047Y-75819761D01*
X150819047Y-75819761D02*
X150723809Y-75915000D01*
X150723809Y-75915000D02*
X150580952Y-75962619D01*
X150580952Y-75962619D02*
X150485714Y-75962619D01*
X151819047Y-74962619D02*
X151342857Y-74962619D01*
X151342857Y-74962619D02*
X151295238Y-75438809D01*
X151295238Y-75438809D02*
X151342857Y-75391190D01*
X151342857Y-75391190D02*
X151438095Y-75343571D01*
X151438095Y-75343571D02*
X151676190Y-75343571D01*
X151676190Y-75343571D02*
X151771428Y-75391190D01*
X151771428Y-75391190D02*
X151819047Y-75438809D01*
X151819047Y-75438809D02*
X151866666Y-75534047D01*
X151866666Y-75534047D02*
X151866666Y-75772142D01*
X151866666Y-75772142D02*
X151819047Y-75867380D01*
X151819047Y-75867380D02*
X151771428Y-75915000D01*
X151771428Y-75915000D02*
X151676190Y-75962619D01*
X151676190Y-75962619D02*
X151438095Y-75962619D01*
X151438095Y-75962619D02*
X151342857Y-75915000D01*
X151342857Y-75915000D02*
X151295238Y-75867380D01*
%TO.C,C3*%
X126292380Y-88016666D02*
X126340000Y-88064285D01*
X126340000Y-88064285D02*
X126387619Y-88207142D01*
X126387619Y-88207142D02*
X126387619Y-88302380D01*
X126387619Y-88302380D02*
X126340000Y-88445237D01*
X126340000Y-88445237D02*
X126244761Y-88540475D01*
X126244761Y-88540475D02*
X126149523Y-88588094D01*
X126149523Y-88588094D02*
X125959047Y-88635713D01*
X125959047Y-88635713D02*
X125816190Y-88635713D01*
X125816190Y-88635713D02*
X125625714Y-88588094D01*
X125625714Y-88588094D02*
X125530476Y-88540475D01*
X125530476Y-88540475D02*
X125435238Y-88445237D01*
X125435238Y-88445237D02*
X125387619Y-88302380D01*
X125387619Y-88302380D02*
X125387619Y-88207142D01*
X125387619Y-88207142D02*
X125435238Y-88064285D01*
X125435238Y-88064285D02*
X125482857Y-88016666D01*
X125387619Y-87683332D02*
X125387619Y-87064285D01*
X125387619Y-87064285D02*
X125768571Y-87397618D01*
X125768571Y-87397618D02*
X125768571Y-87254761D01*
X125768571Y-87254761D02*
X125816190Y-87159523D01*
X125816190Y-87159523D02*
X125863809Y-87111904D01*
X125863809Y-87111904D02*
X125959047Y-87064285D01*
X125959047Y-87064285D02*
X126197142Y-87064285D01*
X126197142Y-87064285D02*
X126292380Y-87111904D01*
X126292380Y-87111904D02*
X126340000Y-87159523D01*
X126340000Y-87159523D02*
X126387619Y-87254761D01*
X126387619Y-87254761D02*
X126387619Y-87540475D01*
X126387619Y-87540475D02*
X126340000Y-87635713D01*
X126340000Y-87635713D02*
X126292380Y-87683332D01*
%TO.C,D2*%
X124137619Y-88638094D02*
X123137619Y-88638094D01*
X123137619Y-88638094D02*
X123137619Y-88399999D01*
X123137619Y-88399999D02*
X123185238Y-88257142D01*
X123185238Y-88257142D02*
X123280476Y-88161904D01*
X123280476Y-88161904D02*
X123375714Y-88114285D01*
X123375714Y-88114285D02*
X123566190Y-88066666D01*
X123566190Y-88066666D02*
X123709047Y-88066666D01*
X123709047Y-88066666D02*
X123899523Y-88114285D01*
X123899523Y-88114285D02*
X123994761Y-88161904D01*
X123994761Y-88161904D02*
X124090000Y-88257142D01*
X124090000Y-88257142D02*
X124137619Y-88399999D01*
X124137619Y-88399999D02*
X124137619Y-88638094D01*
X123232857Y-87685713D02*
X123185238Y-87638094D01*
X123185238Y-87638094D02*
X123137619Y-87542856D01*
X123137619Y-87542856D02*
X123137619Y-87304761D01*
X123137619Y-87304761D02*
X123185238Y-87209523D01*
X123185238Y-87209523D02*
X123232857Y-87161904D01*
X123232857Y-87161904D02*
X123328095Y-87114285D01*
X123328095Y-87114285D02*
X123423333Y-87114285D01*
X123423333Y-87114285D02*
X123566190Y-87161904D01*
X123566190Y-87161904D02*
X124137619Y-87733332D01*
X124137619Y-87733332D02*
X124137619Y-87114285D01*
%TO.C,Q3*%
X155304761Y-96557857D02*
X155209523Y-96510238D01*
X155209523Y-96510238D02*
X155114285Y-96415000D01*
X155114285Y-96415000D02*
X154971428Y-96272142D01*
X154971428Y-96272142D02*
X154876190Y-96224523D01*
X154876190Y-96224523D02*
X154780952Y-96224523D01*
X154828571Y-96462619D02*
X154733333Y-96415000D01*
X154733333Y-96415000D02*
X154638095Y-96319761D01*
X154638095Y-96319761D02*
X154590476Y-96129285D01*
X154590476Y-96129285D02*
X154590476Y-95795952D01*
X154590476Y-95795952D02*
X154638095Y-95605476D01*
X154638095Y-95605476D02*
X154733333Y-95510238D01*
X154733333Y-95510238D02*
X154828571Y-95462619D01*
X154828571Y-95462619D02*
X155019047Y-95462619D01*
X155019047Y-95462619D02*
X155114285Y-95510238D01*
X155114285Y-95510238D02*
X155209523Y-95605476D01*
X155209523Y-95605476D02*
X155257142Y-95795952D01*
X155257142Y-95795952D02*
X155257142Y-96129285D01*
X155257142Y-96129285D02*
X155209523Y-96319761D01*
X155209523Y-96319761D02*
X155114285Y-96415000D01*
X155114285Y-96415000D02*
X155019047Y-96462619D01*
X155019047Y-96462619D02*
X154828571Y-96462619D01*
X155590476Y-95462619D02*
X156209523Y-95462619D01*
X156209523Y-95462619D02*
X155876190Y-95843571D01*
X155876190Y-95843571D02*
X156019047Y-95843571D01*
X156019047Y-95843571D02*
X156114285Y-95891190D01*
X156114285Y-95891190D02*
X156161904Y-95938809D01*
X156161904Y-95938809D02*
X156209523Y-96034047D01*
X156209523Y-96034047D02*
X156209523Y-96272142D01*
X156209523Y-96272142D02*
X156161904Y-96367380D01*
X156161904Y-96367380D02*
X156114285Y-96415000D01*
X156114285Y-96415000D02*
X156019047Y-96462619D01*
X156019047Y-96462619D02*
X155733333Y-96462619D01*
X155733333Y-96462619D02*
X155638095Y-96415000D01*
X155638095Y-96415000D02*
X155590476Y-96367380D01*
%TO.C,U2*%
X115038095Y-119862619D02*
X115038095Y-120672142D01*
X115038095Y-120672142D02*
X115085714Y-120767380D01*
X115085714Y-120767380D02*
X115133333Y-120815000D01*
X115133333Y-120815000D02*
X115228571Y-120862619D01*
X115228571Y-120862619D02*
X115419047Y-120862619D01*
X115419047Y-120862619D02*
X115514285Y-120815000D01*
X115514285Y-120815000D02*
X115561904Y-120767380D01*
X115561904Y-120767380D02*
X115609523Y-120672142D01*
X115609523Y-120672142D02*
X115609523Y-119862619D01*
X116038095Y-119957857D02*
X116085714Y-119910238D01*
X116085714Y-119910238D02*
X116180952Y-119862619D01*
X116180952Y-119862619D02*
X116419047Y-119862619D01*
X116419047Y-119862619D02*
X116514285Y-119910238D01*
X116514285Y-119910238D02*
X116561904Y-119957857D01*
X116561904Y-119957857D02*
X116609523Y-120053095D01*
X116609523Y-120053095D02*
X116609523Y-120148333D01*
X116609523Y-120148333D02*
X116561904Y-120291190D01*
X116561904Y-120291190D02*
X115990476Y-120862619D01*
X115990476Y-120862619D02*
X116609523Y-120862619D01*
%TO.C,U3*%
X109837619Y-130661904D02*
X110647142Y-130661904D01*
X110647142Y-130661904D02*
X110742380Y-130614285D01*
X110742380Y-130614285D02*
X110790000Y-130566666D01*
X110790000Y-130566666D02*
X110837619Y-130471428D01*
X110837619Y-130471428D02*
X110837619Y-130280952D01*
X110837619Y-130280952D02*
X110790000Y-130185714D01*
X110790000Y-130185714D02*
X110742380Y-130138095D01*
X110742380Y-130138095D02*
X110647142Y-130090476D01*
X110647142Y-130090476D02*
X109837619Y-130090476D01*
X109837619Y-129709523D02*
X109837619Y-129090476D01*
X109837619Y-129090476D02*
X110218571Y-129423809D01*
X110218571Y-129423809D02*
X110218571Y-129280952D01*
X110218571Y-129280952D02*
X110266190Y-129185714D01*
X110266190Y-129185714D02*
X110313809Y-129138095D01*
X110313809Y-129138095D02*
X110409047Y-129090476D01*
X110409047Y-129090476D02*
X110647142Y-129090476D01*
X110647142Y-129090476D02*
X110742380Y-129138095D01*
X110742380Y-129138095D02*
X110790000Y-129185714D01*
X110790000Y-129185714D02*
X110837619Y-129280952D01*
X110837619Y-129280952D02*
X110837619Y-129566666D01*
X110837619Y-129566666D02*
X110790000Y-129661904D01*
X110790000Y-129661904D02*
X110742380Y-129709523D01*
%TO.C,C12*%
X121782142Y-118837380D02*
X121734523Y-118885000D01*
X121734523Y-118885000D02*
X121591666Y-118932619D01*
X121591666Y-118932619D02*
X121496428Y-118932619D01*
X121496428Y-118932619D02*
X121353571Y-118885000D01*
X121353571Y-118885000D02*
X121258333Y-118789761D01*
X121258333Y-118789761D02*
X121210714Y-118694523D01*
X121210714Y-118694523D02*
X121163095Y-118504047D01*
X121163095Y-118504047D02*
X121163095Y-118361190D01*
X121163095Y-118361190D02*
X121210714Y-118170714D01*
X121210714Y-118170714D02*
X121258333Y-118075476D01*
X121258333Y-118075476D02*
X121353571Y-117980238D01*
X121353571Y-117980238D02*
X121496428Y-117932619D01*
X121496428Y-117932619D02*
X121591666Y-117932619D01*
X121591666Y-117932619D02*
X121734523Y-117980238D01*
X121734523Y-117980238D02*
X121782142Y-118027857D01*
X122734523Y-118932619D02*
X122163095Y-118932619D01*
X122448809Y-118932619D02*
X122448809Y-117932619D01*
X122448809Y-117932619D02*
X122353571Y-118075476D01*
X122353571Y-118075476D02*
X122258333Y-118170714D01*
X122258333Y-118170714D02*
X122163095Y-118218333D01*
X123115476Y-118027857D02*
X123163095Y-117980238D01*
X123163095Y-117980238D02*
X123258333Y-117932619D01*
X123258333Y-117932619D02*
X123496428Y-117932619D01*
X123496428Y-117932619D02*
X123591666Y-117980238D01*
X123591666Y-117980238D02*
X123639285Y-118027857D01*
X123639285Y-118027857D02*
X123686904Y-118123095D01*
X123686904Y-118123095D02*
X123686904Y-118218333D01*
X123686904Y-118218333D02*
X123639285Y-118361190D01*
X123639285Y-118361190D02*
X123067857Y-118932619D01*
X123067857Y-118932619D02*
X123686904Y-118932619D01*
%TO.C,C16*%
X130857142Y-78867380D02*
X130809523Y-78915000D01*
X130809523Y-78915000D02*
X130666666Y-78962619D01*
X130666666Y-78962619D02*
X130571428Y-78962619D01*
X130571428Y-78962619D02*
X130428571Y-78915000D01*
X130428571Y-78915000D02*
X130333333Y-78819761D01*
X130333333Y-78819761D02*
X130285714Y-78724523D01*
X130285714Y-78724523D02*
X130238095Y-78534047D01*
X130238095Y-78534047D02*
X130238095Y-78391190D01*
X130238095Y-78391190D02*
X130285714Y-78200714D01*
X130285714Y-78200714D02*
X130333333Y-78105476D01*
X130333333Y-78105476D02*
X130428571Y-78010238D01*
X130428571Y-78010238D02*
X130571428Y-77962619D01*
X130571428Y-77962619D02*
X130666666Y-77962619D01*
X130666666Y-77962619D02*
X130809523Y-78010238D01*
X130809523Y-78010238D02*
X130857142Y-78057857D01*
X131809523Y-78962619D02*
X131238095Y-78962619D01*
X131523809Y-78962619D02*
X131523809Y-77962619D01*
X131523809Y-77962619D02*
X131428571Y-78105476D01*
X131428571Y-78105476D02*
X131333333Y-78200714D01*
X131333333Y-78200714D02*
X131238095Y-78248333D01*
X132666666Y-77962619D02*
X132476190Y-77962619D01*
X132476190Y-77962619D02*
X132380952Y-78010238D01*
X132380952Y-78010238D02*
X132333333Y-78057857D01*
X132333333Y-78057857D02*
X132238095Y-78200714D01*
X132238095Y-78200714D02*
X132190476Y-78391190D01*
X132190476Y-78391190D02*
X132190476Y-78772142D01*
X132190476Y-78772142D02*
X132238095Y-78867380D01*
X132238095Y-78867380D02*
X132285714Y-78915000D01*
X132285714Y-78915000D02*
X132380952Y-78962619D01*
X132380952Y-78962619D02*
X132571428Y-78962619D01*
X132571428Y-78962619D02*
X132666666Y-78915000D01*
X132666666Y-78915000D02*
X132714285Y-78867380D01*
X132714285Y-78867380D02*
X132761904Y-78772142D01*
X132761904Y-78772142D02*
X132761904Y-78534047D01*
X132761904Y-78534047D02*
X132714285Y-78438809D01*
X132714285Y-78438809D02*
X132666666Y-78391190D01*
X132666666Y-78391190D02*
X132571428Y-78343571D01*
X132571428Y-78343571D02*
X132380952Y-78343571D01*
X132380952Y-78343571D02*
X132285714Y-78391190D01*
X132285714Y-78391190D02*
X132238095Y-78438809D01*
X132238095Y-78438809D02*
X132190476Y-78534047D01*
%TO.C,C19*%
X130057142Y-98767380D02*
X130009523Y-98815000D01*
X130009523Y-98815000D02*
X129866666Y-98862619D01*
X129866666Y-98862619D02*
X129771428Y-98862619D01*
X129771428Y-98862619D02*
X129628571Y-98815000D01*
X129628571Y-98815000D02*
X129533333Y-98719761D01*
X129533333Y-98719761D02*
X129485714Y-98624523D01*
X129485714Y-98624523D02*
X129438095Y-98434047D01*
X129438095Y-98434047D02*
X129438095Y-98291190D01*
X129438095Y-98291190D02*
X129485714Y-98100714D01*
X129485714Y-98100714D02*
X129533333Y-98005476D01*
X129533333Y-98005476D02*
X129628571Y-97910238D01*
X129628571Y-97910238D02*
X129771428Y-97862619D01*
X129771428Y-97862619D02*
X129866666Y-97862619D01*
X129866666Y-97862619D02*
X130009523Y-97910238D01*
X130009523Y-97910238D02*
X130057142Y-97957857D01*
X131009523Y-98862619D02*
X130438095Y-98862619D01*
X130723809Y-98862619D02*
X130723809Y-97862619D01*
X130723809Y-97862619D02*
X130628571Y-98005476D01*
X130628571Y-98005476D02*
X130533333Y-98100714D01*
X130533333Y-98100714D02*
X130438095Y-98148333D01*
X131485714Y-98862619D02*
X131676190Y-98862619D01*
X131676190Y-98862619D02*
X131771428Y-98815000D01*
X131771428Y-98815000D02*
X131819047Y-98767380D01*
X131819047Y-98767380D02*
X131914285Y-98624523D01*
X131914285Y-98624523D02*
X131961904Y-98434047D01*
X131961904Y-98434047D02*
X131961904Y-98053095D01*
X131961904Y-98053095D02*
X131914285Y-97957857D01*
X131914285Y-97957857D02*
X131866666Y-97910238D01*
X131866666Y-97910238D02*
X131771428Y-97862619D01*
X131771428Y-97862619D02*
X131580952Y-97862619D01*
X131580952Y-97862619D02*
X131485714Y-97910238D01*
X131485714Y-97910238D02*
X131438095Y-97957857D01*
X131438095Y-97957857D02*
X131390476Y-98053095D01*
X131390476Y-98053095D02*
X131390476Y-98291190D01*
X131390476Y-98291190D02*
X131438095Y-98386428D01*
X131438095Y-98386428D02*
X131485714Y-98434047D01*
X131485714Y-98434047D02*
X131580952Y-98481666D01*
X131580952Y-98481666D02*
X131771428Y-98481666D01*
X131771428Y-98481666D02*
X131866666Y-98434047D01*
X131866666Y-98434047D02*
X131914285Y-98386428D01*
X131914285Y-98386428D02*
X131961904Y-98291190D01*
%TO.C,D1*%
X125911905Y-115062619D02*
X125911905Y-114062619D01*
X125911905Y-114062619D02*
X126150000Y-114062619D01*
X126150000Y-114062619D02*
X126292857Y-114110238D01*
X126292857Y-114110238D02*
X126388095Y-114205476D01*
X126388095Y-114205476D02*
X126435714Y-114300714D01*
X126435714Y-114300714D02*
X126483333Y-114491190D01*
X126483333Y-114491190D02*
X126483333Y-114634047D01*
X126483333Y-114634047D02*
X126435714Y-114824523D01*
X126435714Y-114824523D02*
X126388095Y-114919761D01*
X126388095Y-114919761D02*
X126292857Y-115015000D01*
X126292857Y-115015000D02*
X126150000Y-115062619D01*
X126150000Y-115062619D02*
X125911905Y-115062619D01*
X127435714Y-115062619D02*
X126864286Y-115062619D01*
X127150000Y-115062619D02*
X127150000Y-114062619D01*
X127150000Y-114062619D02*
X127054762Y-114205476D01*
X127054762Y-114205476D02*
X126959524Y-114300714D01*
X126959524Y-114300714D02*
X126864286Y-114348333D01*
%TO.C,R15*%
X141257142Y-105562619D02*
X140923809Y-105086428D01*
X140685714Y-105562619D02*
X140685714Y-104562619D01*
X140685714Y-104562619D02*
X141066666Y-104562619D01*
X141066666Y-104562619D02*
X141161904Y-104610238D01*
X141161904Y-104610238D02*
X141209523Y-104657857D01*
X141209523Y-104657857D02*
X141257142Y-104753095D01*
X141257142Y-104753095D02*
X141257142Y-104895952D01*
X141257142Y-104895952D02*
X141209523Y-104991190D01*
X141209523Y-104991190D02*
X141161904Y-105038809D01*
X141161904Y-105038809D02*
X141066666Y-105086428D01*
X141066666Y-105086428D02*
X140685714Y-105086428D01*
X142209523Y-105562619D02*
X141638095Y-105562619D01*
X141923809Y-105562619D02*
X141923809Y-104562619D01*
X141923809Y-104562619D02*
X141828571Y-104705476D01*
X141828571Y-104705476D02*
X141733333Y-104800714D01*
X141733333Y-104800714D02*
X141638095Y-104848333D01*
X143114285Y-104562619D02*
X142638095Y-104562619D01*
X142638095Y-104562619D02*
X142590476Y-105038809D01*
X142590476Y-105038809D02*
X142638095Y-104991190D01*
X142638095Y-104991190D02*
X142733333Y-104943571D01*
X142733333Y-104943571D02*
X142971428Y-104943571D01*
X142971428Y-104943571D02*
X143066666Y-104991190D01*
X143066666Y-104991190D02*
X143114285Y-105038809D01*
X143114285Y-105038809D02*
X143161904Y-105134047D01*
X143161904Y-105134047D02*
X143161904Y-105372142D01*
X143161904Y-105372142D02*
X143114285Y-105467380D01*
X143114285Y-105467380D02*
X143066666Y-105515000D01*
X143066666Y-105515000D02*
X142971428Y-105562619D01*
X142971428Y-105562619D02*
X142733333Y-105562619D01*
X142733333Y-105562619D02*
X142638095Y-105515000D01*
X142638095Y-105515000D02*
X142590476Y-105467380D01*
%TO.C,C5*%
X121333333Y-93992380D02*
X121285714Y-94040000D01*
X121285714Y-94040000D02*
X121142857Y-94087619D01*
X121142857Y-94087619D02*
X121047619Y-94087619D01*
X121047619Y-94087619D02*
X120904762Y-94040000D01*
X120904762Y-94040000D02*
X120809524Y-93944761D01*
X120809524Y-93944761D02*
X120761905Y-93849523D01*
X120761905Y-93849523D02*
X120714286Y-93659047D01*
X120714286Y-93659047D02*
X120714286Y-93516190D01*
X120714286Y-93516190D02*
X120761905Y-93325714D01*
X120761905Y-93325714D02*
X120809524Y-93230476D01*
X120809524Y-93230476D02*
X120904762Y-93135238D01*
X120904762Y-93135238D02*
X121047619Y-93087619D01*
X121047619Y-93087619D02*
X121142857Y-93087619D01*
X121142857Y-93087619D02*
X121285714Y-93135238D01*
X121285714Y-93135238D02*
X121333333Y-93182857D01*
X122238095Y-93087619D02*
X121761905Y-93087619D01*
X121761905Y-93087619D02*
X121714286Y-93563809D01*
X121714286Y-93563809D02*
X121761905Y-93516190D01*
X121761905Y-93516190D02*
X121857143Y-93468571D01*
X121857143Y-93468571D02*
X122095238Y-93468571D01*
X122095238Y-93468571D02*
X122190476Y-93516190D01*
X122190476Y-93516190D02*
X122238095Y-93563809D01*
X122238095Y-93563809D02*
X122285714Y-93659047D01*
X122285714Y-93659047D02*
X122285714Y-93897142D01*
X122285714Y-93897142D02*
X122238095Y-93992380D01*
X122238095Y-93992380D02*
X122190476Y-94040000D01*
X122190476Y-94040000D02*
X122095238Y-94087619D01*
X122095238Y-94087619D02*
X121857143Y-94087619D01*
X121857143Y-94087619D02*
X121761905Y-94040000D01*
X121761905Y-94040000D02*
X121714286Y-93992380D01*
%TO.C,C8*%
X153583333Y-92117380D02*
X153535714Y-92165000D01*
X153535714Y-92165000D02*
X153392857Y-92212619D01*
X153392857Y-92212619D02*
X153297619Y-92212619D01*
X153297619Y-92212619D02*
X153154762Y-92165000D01*
X153154762Y-92165000D02*
X153059524Y-92069761D01*
X153059524Y-92069761D02*
X153011905Y-91974523D01*
X153011905Y-91974523D02*
X152964286Y-91784047D01*
X152964286Y-91784047D02*
X152964286Y-91641190D01*
X152964286Y-91641190D02*
X153011905Y-91450714D01*
X153011905Y-91450714D02*
X153059524Y-91355476D01*
X153059524Y-91355476D02*
X153154762Y-91260238D01*
X153154762Y-91260238D02*
X153297619Y-91212619D01*
X153297619Y-91212619D02*
X153392857Y-91212619D01*
X153392857Y-91212619D02*
X153535714Y-91260238D01*
X153535714Y-91260238D02*
X153583333Y-91307857D01*
X154154762Y-91641190D02*
X154059524Y-91593571D01*
X154059524Y-91593571D02*
X154011905Y-91545952D01*
X154011905Y-91545952D02*
X153964286Y-91450714D01*
X153964286Y-91450714D02*
X153964286Y-91403095D01*
X153964286Y-91403095D02*
X154011905Y-91307857D01*
X154011905Y-91307857D02*
X154059524Y-91260238D01*
X154059524Y-91260238D02*
X154154762Y-91212619D01*
X154154762Y-91212619D02*
X154345238Y-91212619D01*
X154345238Y-91212619D02*
X154440476Y-91260238D01*
X154440476Y-91260238D02*
X154488095Y-91307857D01*
X154488095Y-91307857D02*
X154535714Y-91403095D01*
X154535714Y-91403095D02*
X154535714Y-91450714D01*
X154535714Y-91450714D02*
X154488095Y-91545952D01*
X154488095Y-91545952D02*
X154440476Y-91593571D01*
X154440476Y-91593571D02*
X154345238Y-91641190D01*
X154345238Y-91641190D02*
X154154762Y-91641190D01*
X154154762Y-91641190D02*
X154059524Y-91688809D01*
X154059524Y-91688809D02*
X154011905Y-91736428D01*
X154011905Y-91736428D02*
X153964286Y-91831666D01*
X153964286Y-91831666D02*
X153964286Y-92022142D01*
X153964286Y-92022142D02*
X154011905Y-92117380D01*
X154011905Y-92117380D02*
X154059524Y-92165000D01*
X154059524Y-92165000D02*
X154154762Y-92212619D01*
X154154762Y-92212619D02*
X154345238Y-92212619D01*
X154345238Y-92212619D02*
X154440476Y-92165000D01*
X154440476Y-92165000D02*
X154488095Y-92117380D01*
X154488095Y-92117380D02*
X154535714Y-92022142D01*
X154535714Y-92022142D02*
X154535714Y-91831666D01*
X154535714Y-91831666D02*
X154488095Y-91736428D01*
X154488095Y-91736428D02*
X154440476Y-91688809D01*
X154440476Y-91688809D02*
X154345238Y-91641190D01*
%TO.C,R4*%
X118762619Y-90466666D02*
X118286428Y-90799999D01*
X118762619Y-91038094D02*
X117762619Y-91038094D01*
X117762619Y-91038094D02*
X117762619Y-90657142D01*
X117762619Y-90657142D02*
X117810238Y-90561904D01*
X117810238Y-90561904D02*
X117857857Y-90514285D01*
X117857857Y-90514285D02*
X117953095Y-90466666D01*
X117953095Y-90466666D02*
X118095952Y-90466666D01*
X118095952Y-90466666D02*
X118191190Y-90514285D01*
X118191190Y-90514285D02*
X118238809Y-90561904D01*
X118238809Y-90561904D02*
X118286428Y-90657142D01*
X118286428Y-90657142D02*
X118286428Y-91038094D01*
X118095952Y-89609523D02*
X118762619Y-89609523D01*
X117715000Y-89847618D02*
X118429285Y-90085713D01*
X118429285Y-90085713D02*
X118429285Y-89466666D01*
%TO.C,H1*%
X104238095Y-76262619D02*
X104238095Y-75262619D01*
X104238095Y-75738809D02*
X104809523Y-75738809D01*
X104809523Y-76262619D02*
X104809523Y-75262619D01*
X105809523Y-76262619D02*
X105238095Y-76262619D01*
X105523809Y-76262619D02*
X105523809Y-75262619D01*
X105523809Y-75262619D02*
X105428571Y-75405476D01*
X105428571Y-75405476D02*
X105333333Y-75500714D01*
X105333333Y-75500714D02*
X105238095Y-75548333D01*
%TO.C,R12*%
X141257142Y-102762619D02*
X140923809Y-102286428D01*
X140685714Y-102762619D02*
X140685714Y-101762619D01*
X140685714Y-101762619D02*
X141066666Y-101762619D01*
X141066666Y-101762619D02*
X141161904Y-101810238D01*
X141161904Y-101810238D02*
X141209523Y-101857857D01*
X141209523Y-101857857D02*
X141257142Y-101953095D01*
X141257142Y-101953095D02*
X141257142Y-102095952D01*
X141257142Y-102095952D02*
X141209523Y-102191190D01*
X141209523Y-102191190D02*
X141161904Y-102238809D01*
X141161904Y-102238809D02*
X141066666Y-102286428D01*
X141066666Y-102286428D02*
X140685714Y-102286428D01*
X142209523Y-102762619D02*
X141638095Y-102762619D01*
X141923809Y-102762619D02*
X141923809Y-101762619D01*
X141923809Y-101762619D02*
X141828571Y-101905476D01*
X141828571Y-101905476D02*
X141733333Y-102000714D01*
X141733333Y-102000714D02*
X141638095Y-102048333D01*
X142590476Y-101857857D02*
X142638095Y-101810238D01*
X142638095Y-101810238D02*
X142733333Y-101762619D01*
X142733333Y-101762619D02*
X142971428Y-101762619D01*
X142971428Y-101762619D02*
X143066666Y-101810238D01*
X143066666Y-101810238D02*
X143114285Y-101857857D01*
X143114285Y-101857857D02*
X143161904Y-101953095D01*
X143161904Y-101953095D02*
X143161904Y-102048333D01*
X143161904Y-102048333D02*
X143114285Y-102191190D01*
X143114285Y-102191190D02*
X142542857Y-102762619D01*
X142542857Y-102762619D02*
X143161904Y-102762619D01*
%TO.C,H3*%
X116238095Y-103262619D02*
X116238095Y-102262619D01*
X116238095Y-102738809D02*
X116809523Y-102738809D01*
X116809523Y-103262619D02*
X116809523Y-102262619D01*
X117190476Y-102262619D02*
X117809523Y-102262619D01*
X117809523Y-102262619D02*
X117476190Y-102643571D01*
X117476190Y-102643571D02*
X117619047Y-102643571D01*
X117619047Y-102643571D02*
X117714285Y-102691190D01*
X117714285Y-102691190D02*
X117761904Y-102738809D01*
X117761904Y-102738809D02*
X117809523Y-102834047D01*
X117809523Y-102834047D02*
X117809523Y-103072142D01*
X117809523Y-103072142D02*
X117761904Y-103167380D01*
X117761904Y-103167380D02*
X117714285Y-103215000D01*
X117714285Y-103215000D02*
X117619047Y-103262619D01*
X117619047Y-103262619D02*
X117333333Y-103262619D01*
X117333333Y-103262619D02*
X117238095Y-103215000D01*
X117238095Y-103215000D02*
X117190476Y-103167380D01*
%TO.C,R16*%
X125907142Y-103512619D02*
X125573809Y-103036428D01*
X125335714Y-103512619D02*
X125335714Y-102512619D01*
X125335714Y-102512619D02*
X125716666Y-102512619D01*
X125716666Y-102512619D02*
X125811904Y-102560238D01*
X125811904Y-102560238D02*
X125859523Y-102607857D01*
X125859523Y-102607857D02*
X125907142Y-102703095D01*
X125907142Y-102703095D02*
X125907142Y-102845952D01*
X125907142Y-102845952D02*
X125859523Y-102941190D01*
X125859523Y-102941190D02*
X125811904Y-102988809D01*
X125811904Y-102988809D02*
X125716666Y-103036428D01*
X125716666Y-103036428D02*
X125335714Y-103036428D01*
X126859523Y-103512619D02*
X126288095Y-103512619D01*
X126573809Y-103512619D02*
X126573809Y-102512619D01*
X126573809Y-102512619D02*
X126478571Y-102655476D01*
X126478571Y-102655476D02*
X126383333Y-102750714D01*
X126383333Y-102750714D02*
X126288095Y-102798333D01*
X127716666Y-102512619D02*
X127526190Y-102512619D01*
X127526190Y-102512619D02*
X127430952Y-102560238D01*
X127430952Y-102560238D02*
X127383333Y-102607857D01*
X127383333Y-102607857D02*
X127288095Y-102750714D01*
X127288095Y-102750714D02*
X127240476Y-102941190D01*
X127240476Y-102941190D02*
X127240476Y-103322142D01*
X127240476Y-103322142D02*
X127288095Y-103417380D01*
X127288095Y-103417380D02*
X127335714Y-103465000D01*
X127335714Y-103465000D02*
X127430952Y-103512619D01*
X127430952Y-103512619D02*
X127621428Y-103512619D01*
X127621428Y-103512619D02*
X127716666Y-103465000D01*
X127716666Y-103465000D02*
X127764285Y-103417380D01*
X127764285Y-103417380D02*
X127811904Y-103322142D01*
X127811904Y-103322142D02*
X127811904Y-103084047D01*
X127811904Y-103084047D02*
X127764285Y-102988809D01*
X127764285Y-102988809D02*
X127716666Y-102941190D01*
X127716666Y-102941190D02*
X127621428Y-102893571D01*
X127621428Y-102893571D02*
X127430952Y-102893571D01*
X127430952Y-102893571D02*
X127335714Y-102941190D01*
X127335714Y-102941190D02*
X127288095Y-102988809D01*
X127288095Y-102988809D02*
X127240476Y-103084047D01*
%TO.C,R1*%
X126883333Y-105062619D02*
X126550000Y-104586428D01*
X126311905Y-105062619D02*
X126311905Y-104062619D01*
X126311905Y-104062619D02*
X126692857Y-104062619D01*
X126692857Y-104062619D02*
X126788095Y-104110238D01*
X126788095Y-104110238D02*
X126835714Y-104157857D01*
X126835714Y-104157857D02*
X126883333Y-104253095D01*
X126883333Y-104253095D02*
X126883333Y-104395952D01*
X126883333Y-104395952D02*
X126835714Y-104491190D01*
X126835714Y-104491190D02*
X126788095Y-104538809D01*
X126788095Y-104538809D02*
X126692857Y-104586428D01*
X126692857Y-104586428D02*
X126311905Y-104586428D01*
X127835714Y-105062619D02*
X127264286Y-105062619D01*
X127550000Y-105062619D02*
X127550000Y-104062619D01*
X127550000Y-104062619D02*
X127454762Y-104205476D01*
X127454762Y-104205476D02*
X127359524Y-104300714D01*
X127359524Y-104300714D02*
X127264286Y-104348333D01*
%TO.C,C6*%
X121233333Y-95767380D02*
X121185714Y-95815000D01*
X121185714Y-95815000D02*
X121042857Y-95862619D01*
X121042857Y-95862619D02*
X120947619Y-95862619D01*
X120947619Y-95862619D02*
X120804762Y-95815000D01*
X120804762Y-95815000D02*
X120709524Y-95719761D01*
X120709524Y-95719761D02*
X120661905Y-95624523D01*
X120661905Y-95624523D02*
X120614286Y-95434047D01*
X120614286Y-95434047D02*
X120614286Y-95291190D01*
X120614286Y-95291190D02*
X120661905Y-95100714D01*
X120661905Y-95100714D02*
X120709524Y-95005476D01*
X120709524Y-95005476D02*
X120804762Y-94910238D01*
X120804762Y-94910238D02*
X120947619Y-94862619D01*
X120947619Y-94862619D02*
X121042857Y-94862619D01*
X121042857Y-94862619D02*
X121185714Y-94910238D01*
X121185714Y-94910238D02*
X121233333Y-94957857D01*
X122090476Y-94862619D02*
X121900000Y-94862619D01*
X121900000Y-94862619D02*
X121804762Y-94910238D01*
X121804762Y-94910238D02*
X121757143Y-94957857D01*
X121757143Y-94957857D02*
X121661905Y-95100714D01*
X121661905Y-95100714D02*
X121614286Y-95291190D01*
X121614286Y-95291190D02*
X121614286Y-95672142D01*
X121614286Y-95672142D02*
X121661905Y-95767380D01*
X121661905Y-95767380D02*
X121709524Y-95815000D01*
X121709524Y-95815000D02*
X121804762Y-95862619D01*
X121804762Y-95862619D02*
X121995238Y-95862619D01*
X121995238Y-95862619D02*
X122090476Y-95815000D01*
X122090476Y-95815000D02*
X122138095Y-95767380D01*
X122138095Y-95767380D02*
X122185714Y-95672142D01*
X122185714Y-95672142D02*
X122185714Y-95434047D01*
X122185714Y-95434047D02*
X122138095Y-95338809D01*
X122138095Y-95338809D02*
X122090476Y-95291190D01*
X122090476Y-95291190D02*
X121995238Y-95243571D01*
X121995238Y-95243571D02*
X121804762Y-95243571D01*
X121804762Y-95243571D02*
X121709524Y-95291190D01*
X121709524Y-95291190D02*
X121661905Y-95338809D01*
X121661905Y-95338809D02*
X121614286Y-95434047D01*
%TO.C,R13*%
X141257142Y-104162619D02*
X140923809Y-103686428D01*
X140685714Y-104162619D02*
X140685714Y-103162619D01*
X140685714Y-103162619D02*
X141066666Y-103162619D01*
X141066666Y-103162619D02*
X141161904Y-103210238D01*
X141161904Y-103210238D02*
X141209523Y-103257857D01*
X141209523Y-103257857D02*
X141257142Y-103353095D01*
X141257142Y-103353095D02*
X141257142Y-103495952D01*
X141257142Y-103495952D02*
X141209523Y-103591190D01*
X141209523Y-103591190D02*
X141161904Y-103638809D01*
X141161904Y-103638809D02*
X141066666Y-103686428D01*
X141066666Y-103686428D02*
X140685714Y-103686428D01*
X142209523Y-104162619D02*
X141638095Y-104162619D01*
X141923809Y-104162619D02*
X141923809Y-103162619D01*
X141923809Y-103162619D02*
X141828571Y-103305476D01*
X141828571Y-103305476D02*
X141733333Y-103400714D01*
X141733333Y-103400714D02*
X141638095Y-103448333D01*
X142542857Y-103162619D02*
X143161904Y-103162619D01*
X143161904Y-103162619D02*
X142828571Y-103543571D01*
X142828571Y-103543571D02*
X142971428Y-103543571D01*
X142971428Y-103543571D02*
X143066666Y-103591190D01*
X143066666Y-103591190D02*
X143114285Y-103638809D01*
X143114285Y-103638809D02*
X143161904Y-103734047D01*
X143161904Y-103734047D02*
X143161904Y-103972142D01*
X143161904Y-103972142D02*
X143114285Y-104067380D01*
X143114285Y-104067380D02*
X143066666Y-104115000D01*
X143066666Y-104115000D02*
X142971428Y-104162619D01*
X142971428Y-104162619D02*
X142685714Y-104162619D01*
X142685714Y-104162619D02*
X142590476Y-104115000D01*
X142590476Y-104115000D02*
X142542857Y-104067380D01*
%TO.C,J3*%
X103766666Y-123962619D02*
X103766666Y-124676904D01*
X103766666Y-124676904D02*
X103719047Y-124819761D01*
X103719047Y-124819761D02*
X103623809Y-124915000D01*
X103623809Y-124915000D02*
X103480952Y-124962619D01*
X103480952Y-124962619D02*
X103385714Y-124962619D01*
X104147619Y-123962619D02*
X104766666Y-123962619D01*
X104766666Y-123962619D02*
X104433333Y-124343571D01*
X104433333Y-124343571D02*
X104576190Y-124343571D01*
X104576190Y-124343571D02*
X104671428Y-124391190D01*
X104671428Y-124391190D02*
X104719047Y-124438809D01*
X104719047Y-124438809D02*
X104766666Y-124534047D01*
X104766666Y-124534047D02*
X104766666Y-124772142D01*
X104766666Y-124772142D02*
X104719047Y-124867380D01*
X104719047Y-124867380D02*
X104671428Y-124915000D01*
X104671428Y-124915000D02*
X104576190Y-124962619D01*
X104576190Y-124962619D02*
X104290476Y-124962619D01*
X104290476Y-124962619D02*
X104195238Y-124915000D01*
X104195238Y-124915000D02*
X104147619Y-124867380D01*
%TO.C,C20*%
X130532142Y-100567380D02*
X130484523Y-100615000D01*
X130484523Y-100615000D02*
X130341666Y-100662619D01*
X130341666Y-100662619D02*
X130246428Y-100662619D01*
X130246428Y-100662619D02*
X130103571Y-100615000D01*
X130103571Y-100615000D02*
X130008333Y-100519761D01*
X130008333Y-100519761D02*
X129960714Y-100424523D01*
X129960714Y-100424523D02*
X129913095Y-100234047D01*
X129913095Y-100234047D02*
X129913095Y-100091190D01*
X129913095Y-100091190D02*
X129960714Y-99900714D01*
X129960714Y-99900714D02*
X130008333Y-99805476D01*
X130008333Y-99805476D02*
X130103571Y-99710238D01*
X130103571Y-99710238D02*
X130246428Y-99662619D01*
X130246428Y-99662619D02*
X130341666Y-99662619D01*
X130341666Y-99662619D02*
X130484523Y-99710238D01*
X130484523Y-99710238D02*
X130532142Y-99757857D01*
X130913095Y-99757857D02*
X130960714Y-99710238D01*
X130960714Y-99710238D02*
X131055952Y-99662619D01*
X131055952Y-99662619D02*
X131294047Y-99662619D01*
X131294047Y-99662619D02*
X131389285Y-99710238D01*
X131389285Y-99710238D02*
X131436904Y-99757857D01*
X131436904Y-99757857D02*
X131484523Y-99853095D01*
X131484523Y-99853095D02*
X131484523Y-99948333D01*
X131484523Y-99948333D02*
X131436904Y-100091190D01*
X131436904Y-100091190D02*
X130865476Y-100662619D01*
X130865476Y-100662619D02*
X131484523Y-100662619D01*
X132103571Y-99662619D02*
X132198809Y-99662619D01*
X132198809Y-99662619D02*
X132294047Y-99710238D01*
X132294047Y-99710238D02*
X132341666Y-99757857D01*
X132341666Y-99757857D02*
X132389285Y-99853095D01*
X132389285Y-99853095D02*
X132436904Y-100043571D01*
X132436904Y-100043571D02*
X132436904Y-100281666D01*
X132436904Y-100281666D02*
X132389285Y-100472142D01*
X132389285Y-100472142D02*
X132341666Y-100567380D01*
X132341666Y-100567380D02*
X132294047Y-100615000D01*
X132294047Y-100615000D02*
X132198809Y-100662619D01*
X132198809Y-100662619D02*
X132103571Y-100662619D01*
X132103571Y-100662619D02*
X132008333Y-100615000D01*
X132008333Y-100615000D02*
X131960714Y-100567380D01*
X131960714Y-100567380D02*
X131913095Y-100472142D01*
X131913095Y-100472142D02*
X131865476Y-100281666D01*
X131865476Y-100281666D02*
X131865476Y-100043571D01*
X131865476Y-100043571D02*
X131913095Y-99853095D01*
X131913095Y-99853095D02*
X131960714Y-99757857D01*
X131960714Y-99757857D02*
X132008333Y-99710238D01*
X132008333Y-99710238D02*
X132103571Y-99662619D01*
%TO.C,R6*%
X139213333Y-92832619D02*
X138880000Y-92356428D01*
X138641905Y-92832619D02*
X138641905Y-91832619D01*
X138641905Y-91832619D02*
X139022857Y-91832619D01*
X139022857Y-91832619D02*
X139118095Y-91880238D01*
X139118095Y-91880238D02*
X139165714Y-91927857D01*
X139165714Y-91927857D02*
X139213333Y-92023095D01*
X139213333Y-92023095D02*
X139213333Y-92165952D01*
X139213333Y-92165952D02*
X139165714Y-92261190D01*
X139165714Y-92261190D02*
X139118095Y-92308809D01*
X139118095Y-92308809D02*
X139022857Y-92356428D01*
X139022857Y-92356428D02*
X138641905Y-92356428D01*
X140070476Y-91832619D02*
X139880000Y-91832619D01*
X139880000Y-91832619D02*
X139784762Y-91880238D01*
X139784762Y-91880238D02*
X139737143Y-91927857D01*
X139737143Y-91927857D02*
X139641905Y-92070714D01*
X139641905Y-92070714D02*
X139594286Y-92261190D01*
X139594286Y-92261190D02*
X139594286Y-92642142D01*
X139594286Y-92642142D02*
X139641905Y-92737380D01*
X139641905Y-92737380D02*
X139689524Y-92785000D01*
X139689524Y-92785000D02*
X139784762Y-92832619D01*
X139784762Y-92832619D02*
X139975238Y-92832619D01*
X139975238Y-92832619D02*
X140070476Y-92785000D01*
X140070476Y-92785000D02*
X140118095Y-92737380D01*
X140118095Y-92737380D02*
X140165714Y-92642142D01*
X140165714Y-92642142D02*
X140165714Y-92404047D01*
X140165714Y-92404047D02*
X140118095Y-92308809D01*
X140118095Y-92308809D02*
X140070476Y-92261190D01*
X140070476Y-92261190D02*
X139975238Y-92213571D01*
X139975238Y-92213571D02*
X139784762Y-92213571D01*
X139784762Y-92213571D02*
X139689524Y-92261190D01*
X139689524Y-92261190D02*
X139641905Y-92308809D01*
X139641905Y-92308809D02*
X139594286Y-92404047D01*
%TO.C,D3*%
X120447619Y-88728094D02*
X119447619Y-88728094D01*
X119447619Y-88728094D02*
X119447619Y-88489999D01*
X119447619Y-88489999D02*
X119495238Y-88347142D01*
X119495238Y-88347142D02*
X119590476Y-88251904D01*
X119590476Y-88251904D02*
X119685714Y-88204285D01*
X119685714Y-88204285D02*
X119876190Y-88156666D01*
X119876190Y-88156666D02*
X120019047Y-88156666D01*
X120019047Y-88156666D02*
X120209523Y-88204285D01*
X120209523Y-88204285D02*
X120304761Y-88251904D01*
X120304761Y-88251904D02*
X120400000Y-88347142D01*
X120400000Y-88347142D02*
X120447619Y-88489999D01*
X120447619Y-88489999D02*
X120447619Y-88728094D01*
X119447619Y-87823332D02*
X119447619Y-87204285D01*
X119447619Y-87204285D02*
X119828571Y-87537618D01*
X119828571Y-87537618D02*
X119828571Y-87394761D01*
X119828571Y-87394761D02*
X119876190Y-87299523D01*
X119876190Y-87299523D02*
X119923809Y-87251904D01*
X119923809Y-87251904D02*
X120019047Y-87204285D01*
X120019047Y-87204285D02*
X120257142Y-87204285D01*
X120257142Y-87204285D02*
X120352380Y-87251904D01*
X120352380Y-87251904D02*
X120400000Y-87299523D01*
X120400000Y-87299523D02*
X120447619Y-87394761D01*
X120447619Y-87394761D02*
X120447619Y-87680475D01*
X120447619Y-87680475D02*
X120400000Y-87775713D01*
X120400000Y-87775713D02*
X120352380Y-87823332D01*
%TO.C,R3*%
X120262619Y-90566666D02*
X119786428Y-90899999D01*
X120262619Y-91138094D02*
X119262619Y-91138094D01*
X119262619Y-91138094D02*
X119262619Y-90757142D01*
X119262619Y-90757142D02*
X119310238Y-90661904D01*
X119310238Y-90661904D02*
X119357857Y-90614285D01*
X119357857Y-90614285D02*
X119453095Y-90566666D01*
X119453095Y-90566666D02*
X119595952Y-90566666D01*
X119595952Y-90566666D02*
X119691190Y-90614285D01*
X119691190Y-90614285D02*
X119738809Y-90661904D01*
X119738809Y-90661904D02*
X119786428Y-90757142D01*
X119786428Y-90757142D02*
X119786428Y-91138094D01*
X119262619Y-90233332D02*
X119262619Y-89614285D01*
X119262619Y-89614285D02*
X119643571Y-89947618D01*
X119643571Y-89947618D02*
X119643571Y-89804761D01*
X119643571Y-89804761D02*
X119691190Y-89709523D01*
X119691190Y-89709523D02*
X119738809Y-89661904D01*
X119738809Y-89661904D02*
X119834047Y-89614285D01*
X119834047Y-89614285D02*
X120072142Y-89614285D01*
X120072142Y-89614285D02*
X120167380Y-89661904D01*
X120167380Y-89661904D02*
X120215000Y-89709523D01*
X120215000Y-89709523D02*
X120262619Y-89804761D01*
X120262619Y-89804761D02*
X120262619Y-90090475D01*
X120262619Y-90090475D02*
X120215000Y-90185713D01*
X120215000Y-90185713D02*
X120167380Y-90233332D01*
%TO.C,R7*%
X141233333Y-101162619D02*
X140900000Y-100686428D01*
X140661905Y-101162619D02*
X140661905Y-100162619D01*
X140661905Y-100162619D02*
X141042857Y-100162619D01*
X141042857Y-100162619D02*
X141138095Y-100210238D01*
X141138095Y-100210238D02*
X141185714Y-100257857D01*
X141185714Y-100257857D02*
X141233333Y-100353095D01*
X141233333Y-100353095D02*
X141233333Y-100495952D01*
X141233333Y-100495952D02*
X141185714Y-100591190D01*
X141185714Y-100591190D02*
X141138095Y-100638809D01*
X141138095Y-100638809D02*
X141042857Y-100686428D01*
X141042857Y-100686428D02*
X140661905Y-100686428D01*
X141566667Y-100162619D02*
X142233333Y-100162619D01*
X142233333Y-100162619D02*
X141804762Y-101162619D01*
%TO.C,J1*%
X113466666Y-74962619D02*
X113466666Y-75676904D01*
X113466666Y-75676904D02*
X113419047Y-75819761D01*
X113419047Y-75819761D02*
X113323809Y-75915000D01*
X113323809Y-75915000D02*
X113180952Y-75962619D01*
X113180952Y-75962619D02*
X113085714Y-75962619D01*
X114466666Y-75962619D02*
X113895238Y-75962619D01*
X114180952Y-75962619D02*
X114180952Y-74962619D01*
X114180952Y-74962619D02*
X114085714Y-75105476D01*
X114085714Y-75105476D02*
X113990476Y-75200714D01*
X113990476Y-75200714D02*
X113895238Y-75248333D01*
%TO.C,D4*%
X111461905Y-117562619D02*
X111461905Y-116562619D01*
X111461905Y-116562619D02*
X111700000Y-116562619D01*
X111700000Y-116562619D02*
X111842857Y-116610238D01*
X111842857Y-116610238D02*
X111938095Y-116705476D01*
X111938095Y-116705476D02*
X111985714Y-116800714D01*
X111985714Y-116800714D02*
X112033333Y-116991190D01*
X112033333Y-116991190D02*
X112033333Y-117134047D01*
X112033333Y-117134047D02*
X111985714Y-117324523D01*
X111985714Y-117324523D02*
X111938095Y-117419761D01*
X111938095Y-117419761D02*
X111842857Y-117515000D01*
X111842857Y-117515000D02*
X111700000Y-117562619D01*
X111700000Y-117562619D02*
X111461905Y-117562619D01*
X112890476Y-116895952D02*
X112890476Y-117562619D01*
X112652381Y-116515000D02*
X112414286Y-117229285D01*
X112414286Y-117229285D02*
X113033333Y-117229285D01*
%TO.C,R10*%
X131287619Y-125042857D02*
X130811428Y-125376190D01*
X131287619Y-125614285D02*
X130287619Y-125614285D01*
X130287619Y-125614285D02*
X130287619Y-125233333D01*
X130287619Y-125233333D02*
X130335238Y-125138095D01*
X130335238Y-125138095D02*
X130382857Y-125090476D01*
X130382857Y-125090476D02*
X130478095Y-125042857D01*
X130478095Y-125042857D02*
X130620952Y-125042857D01*
X130620952Y-125042857D02*
X130716190Y-125090476D01*
X130716190Y-125090476D02*
X130763809Y-125138095D01*
X130763809Y-125138095D02*
X130811428Y-125233333D01*
X130811428Y-125233333D02*
X130811428Y-125614285D01*
X131287619Y-124090476D02*
X131287619Y-124661904D01*
X131287619Y-124376190D02*
X130287619Y-124376190D01*
X130287619Y-124376190D02*
X130430476Y-124471428D01*
X130430476Y-124471428D02*
X130525714Y-124566666D01*
X130525714Y-124566666D02*
X130573333Y-124661904D01*
X130287619Y-123471428D02*
X130287619Y-123376190D01*
X130287619Y-123376190D02*
X130335238Y-123280952D01*
X130335238Y-123280952D02*
X130382857Y-123233333D01*
X130382857Y-123233333D02*
X130478095Y-123185714D01*
X130478095Y-123185714D02*
X130668571Y-123138095D01*
X130668571Y-123138095D02*
X130906666Y-123138095D01*
X130906666Y-123138095D02*
X131097142Y-123185714D01*
X131097142Y-123185714D02*
X131192380Y-123233333D01*
X131192380Y-123233333D02*
X131240000Y-123280952D01*
X131240000Y-123280952D02*
X131287619Y-123376190D01*
X131287619Y-123376190D02*
X131287619Y-123471428D01*
X131287619Y-123471428D02*
X131240000Y-123566666D01*
X131240000Y-123566666D02*
X131192380Y-123614285D01*
X131192380Y-123614285D02*
X131097142Y-123661904D01*
X131097142Y-123661904D02*
X130906666Y-123709523D01*
X130906666Y-123709523D02*
X130668571Y-123709523D01*
X130668571Y-123709523D02*
X130478095Y-123661904D01*
X130478095Y-123661904D02*
X130382857Y-123614285D01*
X130382857Y-123614285D02*
X130335238Y-123566666D01*
X130335238Y-123566666D02*
X130287619Y-123471428D01*
%TO.C,C10*%
X132082142Y-131067380D02*
X132034523Y-131115000D01*
X132034523Y-131115000D02*
X131891666Y-131162619D01*
X131891666Y-131162619D02*
X131796428Y-131162619D01*
X131796428Y-131162619D02*
X131653571Y-131115000D01*
X131653571Y-131115000D02*
X131558333Y-131019761D01*
X131558333Y-131019761D02*
X131510714Y-130924523D01*
X131510714Y-130924523D02*
X131463095Y-130734047D01*
X131463095Y-130734047D02*
X131463095Y-130591190D01*
X131463095Y-130591190D02*
X131510714Y-130400714D01*
X131510714Y-130400714D02*
X131558333Y-130305476D01*
X131558333Y-130305476D02*
X131653571Y-130210238D01*
X131653571Y-130210238D02*
X131796428Y-130162619D01*
X131796428Y-130162619D02*
X131891666Y-130162619D01*
X131891666Y-130162619D02*
X132034523Y-130210238D01*
X132034523Y-130210238D02*
X132082142Y-130257857D01*
X133034523Y-131162619D02*
X132463095Y-131162619D01*
X132748809Y-131162619D02*
X132748809Y-130162619D01*
X132748809Y-130162619D02*
X132653571Y-130305476D01*
X132653571Y-130305476D02*
X132558333Y-130400714D01*
X132558333Y-130400714D02*
X132463095Y-130448333D01*
X133653571Y-130162619D02*
X133748809Y-130162619D01*
X133748809Y-130162619D02*
X133844047Y-130210238D01*
X133844047Y-130210238D02*
X133891666Y-130257857D01*
X133891666Y-130257857D02*
X133939285Y-130353095D01*
X133939285Y-130353095D02*
X133986904Y-130543571D01*
X133986904Y-130543571D02*
X133986904Y-130781666D01*
X133986904Y-130781666D02*
X133939285Y-130972142D01*
X133939285Y-130972142D02*
X133891666Y-131067380D01*
X133891666Y-131067380D02*
X133844047Y-131115000D01*
X133844047Y-131115000D02*
X133748809Y-131162619D01*
X133748809Y-131162619D02*
X133653571Y-131162619D01*
X133653571Y-131162619D02*
X133558333Y-131115000D01*
X133558333Y-131115000D02*
X133510714Y-131067380D01*
X133510714Y-131067380D02*
X133463095Y-130972142D01*
X133463095Y-130972142D02*
X133415476Y-130781666D01*
X133415476Y-130781666D02*
X133415476Y-130543571D01*
X133415476Y-130543571D02*
X133463095Y-130353095D01*
X133463095Y-130353095D02*
X133510714Y-130257857D01*
X133510714Y-130257857D02*
X133558333Y-130210238D01*
X133558333Y-130210238D02*
X133653571Y-130162619D01*
%TO.C,U4*%
X123963095Y-131467619D02*
X123963095Y-132277142D01*
X123963095Y-132277142D02*
X124010714Y-132372380D01*
X124010714Y-132372380D02*
X124058333Y-132420000D01*
X124058333Y-132420000D02*
X124153571Y-132467619D01*
X124153571Y-132467619D02*
X124344047Y-132467619D01*
X124344047Y-132467619D02*
X124439285Y-132420000D01*
X124439285Y-132420000D02*
X124486904Y-132372380D01*
X124486904Y-132372380D02*
X124534523Y-132277142D01*
X124534523Y-132277142D02*
X124534523Y-131467619D01*
X125439285Y-131800952D02*
X125439285Y-132467619D01*
X125201190Y-131420000D02*
X124963095Y-132134285D01*
X124963095Y-132134285D02*
X125582142Y-132134285D01*
%TO.C,R9*%
X131333333Y-105712619D02*
X131000000Y-105236428D01*
X130761905Y-105712619D02*
X130761905Y-104712619D01*
X130761905Y-104712619D02*
X131142857Y-104712619D01*
X131142857Y-104712619D02*
X131238095Y-104760238D01*
X131238095Y-104760238D02*
X131285714Y-104807857D01*
X131285714Y-104807857D02*
X131333333Y-104903095D01*
X131333333Y-104903095D02*
X131333333Y-105045952D01*
X131333333Y-105045952D02*
X131285714Y-105141190D01*
X131285714Y-105141190D02*
X131238095Y-105188809D01*
X131238095Y-105188809D02*
X131142857Y-105236428D01*
X131142857Y-105236428D02*
X130761905Y-105236428D01*
X131809524Y-105712619D02*
X132000000Y-105712619D01*
X132000000Y-105712619D02*
X132095238Y-105665000D01*
X132095238Y-105665000D02*
X132142857Y-105617380D01*
X132142857Y-105617380D02*
X132238095Y-105474523D01*
X132238095Y-105474523D02*
X132285714Y-105284047D01*
X132285714Y-105284047D02*
X132285714Y-104903095D01*
X132285714Y-104903095D02*
X132238095Y-104807857D01*
X132238095Y-104807857D02*
X132190476Y-104760238D01*
X132190476Y-104760238D02*
X132095238Y-104712619D01*
X132095238Y-104712619D02*
X131904762Y-104712619D01*
X131904762Y-104712619D02*
X131809524Y-104760238D01*
X131809524Y-104760238D02*
X131761905Y-104807857D01*
X131761905Y-104807857D02*
X131714286Y-104903095D01*
X131714286Y-104903095D02*
X131714286Y-105141190D01*
X131714286Y-105141190D02*
X131761905Y-105236428D01*
X131761905Y-105236428D02*
X131809524Y-105284047D01*
X131809524Y-105284047D02*
X131904762Y-105331666D01*
X131904762Y-105331666D02*
X132095238Y-105331666D01*
X132095238Y-105331666D02*
X132190476Y-105284047D01*
X132190476Y-105284047D02*
X132238095Y-105236428D01*
X132238095Y-105236428D02*
X132285714Y-105141190D01*
%TO.C,U6*%
X126762619Y-91761904D02*
X127572142Y-91761904D01*
X127572142Y-91761904D02*
X127667380Y-91714285D01*
X127667380Y-91714285D02*
X127715000Y-91666666D01*
X127715000Y-91666666D02*
X127762619Y-91571428D01*
X127762619Y-91571428D02*
X127762619Y-91380952D01*
X127762619Y-91380952D02*
X127715000Y-91285714D01*
X127715000Y-91285714D02*
X127667380Y-91238095D01*
X127667380Y-91238095D02*
X127572142Y-91190476D01*
X127572142Y-91190476D02*
X126762619Y-91190476D01*
X126762619Y-90285714D02*
X126762619Y-90476190D01*
X126762619Y-90476190D02*
X126810238Y-90571428D01*
X126810238Y-90571428D02*
X126857857Y-90619047D01*
X126857857Y-90619047D02*
X127000714Y-90714285D01*
X127000714Y-90714285D02*
X127191190Y-90761904D01*
X127191190Y-90761904D02*
X127572142Y-90761904D01*
X127572142Y-90761904D02*
X127667380Y-90714285D01*
X127667380Y-90714285D02*
X127715000Y-90666666D01*
X127715000Y-90666666D02*
X127762619Y-90571428D01*
X127762619Y-90571428D02*
X127762619Y-90380952D01*
X127762619Y-90380952D02*
X127715000Y-90285714D01*
X127715000Y-90285714D02*
X127667380Y-90238095D01*
X127667380Y-90238095D02*
X127572142Y-90190476D01*
X127572142Y-90190476D02*
X127334047Y-90190476D01*
X127334047Y-90190476D02*
X127238809Y-90238095D01*
X127238809Y-90238095D02*
X127191190Y-90285714D01*
X127191190Y-90285714D02*
X127143571Y-90380952D01*
X127143571Y-90380952D02*
X127143571Y-90571428D01*
X127143571Y-90571428D02*
X127191190Y-90666666D01*
X127191190Y-90666666D02*
X127238809Y-90714285D01*
X127238809Y-90714285D02*
X127334047Y-90761904D01*
%TO.C,R14*%
X141157142Y-110712619D02*
X140823809Y-110236428D01*
X140585714Y-110712619D02*
X140585714Y-109712619D01*
X140585714Y-109712619D02*
X140966666Y-109712619D01*
X140966666Y-109712619D02*
X141061904Y-109760238D01*
X141061904Y-109760238D02*
X141109523Y-109807857D01*
X141109523Y-109807857D02*
X141157142Y-109903095D01*
X141157142Y-109903095D02*
X141157142Y-110045952D01*
X141157142Y-110045952D02*
X141109523Y-110141190D01*
X141109523Y-110141190D02*
X141061904Y-110188809D01*
X141061904Y-110188809D02*
X140966666Y-110236428D01*
X140966666Y-110236428D02*
X140585714Y-110236428D01*
X142109523Y-110712619D02*
X141538095Y-110712619D01*
X141823809Y-110712619D02*
X141823809Y-109712619D01*
X141823809Y-109712619D02*
X141728571Y-109855476D01*
X141728571Y-109855476D02*
X141633333Y-109950714D01*
X141633333Y-109950714D02*
X141538095Y-109998333D01*
X142966666Y-110045952D02*
X142966666Y-110712619D01*
X142728571Y-109665000D02*
X142490476Y-110379285D01*
X142490476Y-110379285D02*
X143109523Y-110379285D01*
%TO.C,C18*%
X107467380Y-123542857D02*
X107515000Y-123590476D01*
X107515000Y-123590476D02*
X107562619Y-123733333D01*
X107562619Y-123733333D02*
X107562619Y-123828571D01*
X107562619Y-123828571D02*
X107515000Y-123971428D01*
X107515000Y-123971428D02*
X107419761Y-124066666D01*
X107419761Y-124066666D02*
X107324523Y-124114285D01*
X107324523Y-124114285D02*
X107134047Y-124161904D01*
X107134047Y-124161904D02*
X106991190Y-124161904D01*
X106991190Y-124161904D02*
X106800714Y-124114285D01*
X106800714Y-124114285D02*
X106705476Y-124066666D01*
X106705476Y-124066666D02*
X106610238Y-123971428D01*
X106610238Y-123971428D02*
X106562619Y-123828571D01*
X106562619Y-123828571D02*
X106562619Y-123733333D01*
X106562619Y-123733333D02*
X106610238Y-123590476D01*
X106610238Y-123590476D02*
X106657857Y-123542857D01*
X107562619Y-122590476D02*
X107562619Y-123161904D01*
X107562619Y-122876190D02*
X106562619Y-122876190D01*
X106562619Y-122876190D02*
X106705476Y-122971428D01*
X106705476Y-122971428D02*
X106800714Y-123066666D01*
X106800714Y-123066666D02*
X106848333Y-123161904D01*
X106991190Y-122019047D02*
X106943571Y-122114285D01*
X106943571Y-122114285D02*
X106895952Y-122161904D01*
X106895952Y-122161904D02*
X106800714Y-122209523D01*
X106800714Y-122209523D02*
X106753095Y-122209523D01*
X106753095Y-122209523D02*
X106657857Y-122161904D01*
X106657857Y-122161904D02*
X106610238Y-122114285D01*
X106610238Y-122114285D02*
X106562619Y-122019047D01*
X106562619Y-122019047D02*
X106562619Y-121828571D01*
X106562619Y-121828571D02*
X106610238Y-121733333D01*
X106610238Y-121733333D02*
X106657857Y-121685714D01*
X106657857Y-121685714D02*
X106753095Y-121638095D01*
X106753095Y-121638095D02*
X106800714Y-121638095D01*
X106800714Y-121638095D02*
X106895952Y-121685714D01*
X106895952Y-121685714D02*
X106943571Y-121733333D01*
X106943571Y-121733333D02*
X106991190Y-121828571D01*
X106991190Y-121828571D02*
X106991190Y-122019047D01*
X106991190Y-122019047D02*
X107038809Y-122114285D01*
X107038809Y-122114285D02*
X107086428Y-122161904D01*
X107086428Y-122161904D02*
X107181666Y-122209523D01*
X107181666Y-122209523D02*
X107372142Y-122209523D01*
X107372142Y-122209523D02*
X107467380Y-122161904D01*
X107467380Y-122161904D02*
X107515000Y-122114285D01*
X107515000Y-122114285D02*
X107562619Y-122019047D01*
X107562619Y-122019047D02*
X107562619Y-121828571D01*
X107562619Y-121828571D02*
X107515000Y-121733333D01*
X107515000Y-121733333D02*
X107467380Y-121685714D01*
X107467380Y-121685714D02*
X107372142Y-121638095D01*
X107372142Y-121638095D02*
X107181666Y-121638095D01*
X107181666Y-121638095D02*
X107086428Y-121685714D01*
X107086428Y-121685714D02*
X107038809Y-121733333D01*
X107038809Y-121733333D02*
X106991190Y-121828571D01*
%TO.C,L1*%
X131983333Y-116162619D02*
X131507143Y-116162619D01*
X131507143Y-116162619D02*
X131507143Y-115162619D01*
X132840476Y-116162619D02*
X132269048Y-116162619D01*
X132554762Y-116162619D02*
X132554762Y-115162619D01*
X132554762Y-115162619D02*
X132459524Y-115305476D01*
X132459524Y-115305476D02*
X132364286Y-115400714D01*
X132364286Y-115400714D02*
X132269048Y-115448333D01*
%TO.C,C4*%
X122533333Y-81467380D02*
X122485714Y-81515000D01*
X122485714Y-81515000D02*
X122342857Y-81562619D01*
X122342857Y-81562619D02*
X122247619Y-81562619D01*
X122247619Y-81562619D02*
X122104762Y-81515000D01*
X122104762Y-81515000D02*
X122009524Y-81419761D01*
X122009524Y-81419761D02*
X121961905Y-81324523D01*
X121961905Y-81324523D02*
X121914286Y-81134047D01*
X121914286Y-81134047D02*
X121914286Y-80991190D01*
X121914286Y-80991190D02*
X121961905Y-80800714D01*
X121961905Y-80800714D02*
X122009524Y-80705476D01*
X122009524Y-80705476D02*
X122104762Y-80610238D01*
X122104762Y-80610238D02*
X122247619Y-80562619D01*
X122247619Y-80562619D02*
X122342857Y-80562619D01*
X122342857Y-80562619D02*
X122485714Y-80610238D01*
X122485714Y-80610238D02*
X122533333Y-80657857D01*
X123390476Y-80895952D02*
X123390476Y-81562619D01*
X123152381Y-80515000D02*
X122914286Y-81229285D01*
X122914286Y-81229285D02*
X123533333Y-81229285D01*
%TO.C,C7*%
X154808333Y-81167380D02*
X154760714Y-81215000D01*
X154760714Y-81215000D02*
X154617857Y-81262619D01*
X154617857Y-81262619D02*
X154522619Y-81262619D01*
X154522619Y-81262619D02*
X154379762Y-81215000D01*
X154379762Y-81215000D02*
X154284524Y-81119761D01*
X154284524Y-81119761D02*
X154236905Y-81024523D01*
X154236905Y-81024523D02*
X154189286Y-80834047D01*
X154189286Y-80834047D02*
X154189286Y-80691190D01*
X154189286Y-80691190D02*
X154236905Y-80500714D01*
X154236905Y-80500714D02*
X154284524Y-80405476D01*
X154284524Y-80405476D02*
X154379762Y-80310238D01*
X154379762Y-80310238D02*
X154522619Y-80262619D01*
X154522619Y-80262619D02*
X154617857Y-80262619D01*
X154617857Y-80262619D02*
X154760714Y-80310238D01*
X154760714Y-80310238D02*
X154808333Y-80357857D01*
X155141667Y-80262619D02*
X155808333Y-80262619D01*
X155808333Y-80262619D02*
X155379762Y-81262619D01*
%TO.C,C15*%
X127057142Y-83217380D02*
X127009523Y-83265000D01*
X127009523Y-83265000D02*
X126866666Y-83312619D01*
X126866666Y-83312619D02*
X126771428Y-83312619D01*
X126771428Y-83312619D02*
X126628571Y-83265000D01*
X126628571Y-83265000D02*
X126533333Y-83169761D01*
X126533333Y-83169761D02*
X126485714Y-83074523D01*
X126485714Y-83074523D02*
X126438095Y-82884047D01*
X126438095Y-82884047D02*
X126438095Y-82741190D01*
X126438095Y-82741190D02*
X126485714Y-82550714D01*
X126485714Y-82550714D02*
X126533333Y-82455476D01*
X126533333Y-82455476D02*
X126628571Y-82360238D01*
X126628571Y-82360238D02*
X126771428Y-82312619D01*
X126771428Y-82312619D02*
X126866666Y-82312619D01*
X126866666Y-82312619D02*
X127009523Y-82360238D01*
X127009523Y-82360238D02*
X127057142Y-82407857D01*
X128009523Y-83312619D02*
X127438095Y-83312619D01*
X127723809Y-83312619D02*
X127723809Y-82312619D01*
X127723809Y-82312619D02*
X127628571Y-82455476D01*
X127628571Y-82455476D02*
X127533333Y-82550714D01*
X127533333Y-82550714D02*
X127438095Y-82598333D01*
X128914285Y-82312619D02*
X128438095Y-82312619D01*
X128438095Y-82312619D02*
X128390476Y-82788809D01*
X128390476Y-82788809D02*
X128438095Y-82741190D01*
X128438095Y-82741190D02*
X128533333Y-82693571D01*
X128533333Y-82693571D02*
X128771428Y-82693571D01*
X128771428Y-82693571D02*
X128866666Y-82741190D01*
X128866666Y-82741190D02*
X128914285Y-82788809D01*
X128914285Y-82788809D02*
X128961904Y-82884047D01*
X128961904Y-82884047D02*
X128961904Y-83122142D01*
X128961904Y-83122142D02*
X128914285Y-83217380D01*
X128914285Y-83217380D02*
X128866666Y-83265000D01*
X128866666Y-83265000D02*
X128771428Y-83312619D01*
X128771428Y-83312619D02*
X128533333Y-83312619D01*
X128533333Y-83312619D02*
X128438095Y-83265000D01*
X128438095Y-83265000D02*
X128390476Y-83217380D01*
%TO.C,R18*%
X114682142Y-97192619D02*
X114348809Y-96716428D01*
X114110714Y-97192619D02*
X114110714Y-96192619D01*
X114110714Y-96192619D02*
X114491666Y-96192619D01*
X114491666Y-96192619D02*
X114586904Y-96240238D01*
X114586904Y-96240238D02*
X114634523Y-96287857D01*
X114634523Y-96287857D02*
X114682142Y-96383095D01*
X114682142Y-96383095D02*
X114682142Y-96525952D01*
X114682142Y-96525952D02*
X114634523Y-96621190D01*
X114634523Y-96621190D02*
X114586904Y-96668809D01*
X114586904Y-96668809D02*
X114491666Y-96716428D01*
X114491666Y-96716428D02*
X114110714Y-96716428D01*
X115634523Y-97192619D02*
X115063095Y-97192619D01*
X115348809Y-97192619D02*
X115348809Y-96192619D01*
X115348809Y-96192619D02*
X115253571Y-96335476D01*
X115253571Y-96335476D02*
X115158333Y-96430714D01*
X115158333Y-96430714D02*
X115063095Y-96478333D01*
X116205952Y-96621190D02*
X116110714Y-96573571D01*
X116110714Y-96573571D02*
X116063095Y-96525952D01*
X116063095Y-96525952D02*
X116015476Y-96430714D01*
X116015476Y-96430714D02*
X116015476Y-96383095D01*
X116015476Y-96383095D02*
X116063095Y-96287857D01*
X116063095Y-96287857D02*
X116110714Y-96240238D01*
X116110714Y-96240238D02*
X116205952Y-96192619D01*
X116205952Y-96192619D02*
X116396428Y-96192619D01*
X116396428Y-96192619D02*
X116491666Y-96240238D01*
X116491666Y-96240238D02*
X116539285Y-96287857D01*
X116539285Y-96287857D02*
X116586904Y-96383095D01*
X116586904Y-96383095D02*
X116586904Y-96430714D01*
X116586904Y-96430714D02*
X116539285Y-96525952D01*
X116539285Y-96525952D02*
X116491666Y-96573571D01*
X116491666Y-96573571D02*
X116396428Y-96621190D01*
X116396428Y-96621190D02*
X116205952Y-96621190D01*
X116205952Y-96621190D02*
X116110714Y-96668809D01*
X116110714Y-96668809D02*
X116063095Y-96716428D01*
X116063095Y-96716428D02*
X116015476Y-96811666D01*
X116015476Y-96811666D02*
X116015476Y-97002142D01*
X116015476Y-97002142D02*
X116063095Y-97097380D01*
X116063095Y-97097380D02*
X116110714Y-97145000D01*
X116110714Y-97145000D02*
X116205952Y-97192619D01*
X116205952Y-97192619D02*
X116396428Y-97192619D01*
X116396428Y-97192619D02*
X116491666Y-97145000D01*
X116491666Y-97145000D02*
X116539285Y-97097380D01*
X116539285Y-97097380D02*
X116586904Y-97002142D01*
X116586904Y-97002142D02*
X116586904Y-96811666D01*
X116586904Y-96811666D02*
X116539285Y-96716428D01*
X116539285Y-96716428D02*
X116491666Y-96668809D01*
X116491666Y-96668809D02*
X116396428Y-96621190D01*
%TO.C,R2*%
X116433333Y-79762619D02*
X116100000Y-79286428D01*
X115861905Y-79762619D02*
X115861905Y-78762619D01*
X115861905Y-78762619D02*
X116242857Y-78762619D01*
X116242857Y-78762619D02*
X116338095Y-78810238D01*
X116338095Y-78810238D02*
X116385714Y-78857857D01*
X116385714Y-78857857D02*
X116433333Y-78953095D01*
X116433333Y-78953095D02*
X116433333Y-79095952D01*
X116433333Y-79095952D02*
X116385714Y-79191190D01*
X116385714Y-79191190D02*
X116338095Y-79238809D01*
X116338095Y-79238809D02*
X116242857Y-79286428D01*
X116242857Y-79286428D02*
X115861905Y-79286428D01*
X116814286Y-78857857D02*
X116861905Y-78810238D01*
X116861905Y-78810238D02*
X116957143Y-78762619D01*
X116957143Y-78762619D02*
X117195238Y-78762619D01*
X117195238Y-78762619D02*
X117290476Y-78810238D01*
X117290476Y-78810238D02*
X117338095Y-78857857D01*
X117338095Y-78857857D02*
X117385714Y-78953095D01*
X117385714Y-78953095D02*
X117385714Y-79048333D01*
X117385714Y-79048333D02*
X117338095Y-79191190D01*
X117338095Y-79191190D02*
X116766667Y-79762619D01*
X116766667Y-79762619D02*
X117385714Y-79762619D01*
%TO.C,C9*%
X132792380Y-125066666D02*
X132840000Y-125114285D01*
X132840000Y-125114285D02*
X132887619Y-125257142D01*
X132887619Y-125257142D02*
X132887619Y-125352380D01*
X132887619Y-125352380D02*
X132840000Y-125495237D01*
X132840000Y-125495237D02*
X132744761Y-125590475D01*
X132744761Y-125590475D02*
X132649523Y-125638094D01*
X132649523Y-125638094D02*
X132459047Y-125685713D01*
X132459047Y-125685713D02*
X132316190Y-125685713D01*
X132316190Y-125685713D02*
X132125714Y-125638094D01*
X132125714Y-125638094D02*
X132030476Y-125590475D01*
X132030476Y-125590475D02*
X131935238Y-125495237D01*
X131935238Y-125495237D02*
X131887619Y-125352380D01*
X131887619Y-125352380D02*
X131887619Y-125257142D01*
X131887619Y-125257142D02*
X131935238Y-125114285D01*
X131935238Y-125114285D02*
X131982857Y-125066666D01*
X132887619Y-124590475D02*
X132887619Y-124399999D01*
X132887619Y-124399999D02*
X132840000Y-124304761D01*
X132840000Y-124304761D02*
X132792380Y-124257142D01*
X132792380Y-124257142D02*
X132649523Y-124161904D01*
X132649523Y-124161904D02*
X132459047Y-124114285D01*
X132459047Y-124114285D02*
X132078095Y-124114285D01*
X132078095Y-124114285D02*
X131982857Y-124161904D01*
X131982857Y-124161904D02*
X131935238Y-124209523D01*
X131935238Y-124209523D02*
X131887619Y-124304761D01*
X131887619Y-124304761D02*
X131887619Y-124495237D01*
X131887619Y-124495237D02*
X131935238Y-124590475D01*
X131935238Y-124590475D02*
X131982857Y-124638094D01*
X131982857Y-124638094D02*
X132078095Y-124685713D01*
X132078095Y-124685713D02*
X132316190Y-124685713D01*
X132316190Y-124685713D02*
X132411428Y-124638094D01*
X132411428Y-124638094D02*
X132459047Y-124590475D01*
X132459047Y-124590475D02*
X132506666Y-124495237D01*
X132506666Y-124495237D02*
X132506666Y-124304761D01*
X132506666Y-124304761D02*
X132459047Y-124209523D01*
X132459047Y-124209523D02*
X132411428Y-124161904D01*
X132411428Y-124161904D02*
X132316190Y-124114285D01*
%TO.C,H2*%
X160938095Y-76262619D02*
X160938095Y-75262619D01*
X160938095Y-75738809D02*
X161509523Y-75738809D01*
X161509523Y-76262619D02*
X161509523Y-75262619D01*
X161938095Y-75357857D02*
X161985714Y-75310238D01*
X161985714Y-75310238D02*
X162080952Y-75262619D01*
X162080952Y-75262619D02*
X162319047Y-75262619D01*
X162319047Y-75262619D02*
X162414285Y-75310238D01*
X162414285Y-75310238D02*
X162461904Y-75357857D01*
X162461904Y-75357857D02*
X162509523Y-75453095D01*
X162509523Y-75453095D02*
X162509523Y-75548333D01*
X162509523Y-75548333D02*
X162461904Y-75691190D01*
X162461904Y-75691190D02*
X161890476Y-76262619D01*
X161890476Y-76262619D02*
X162509523Y-76262619D01*
%TO.C,C17*%
X117597380Y-123542857D02*
X117645000Y-123590476D01*
X117645000Y-123590476D02*
X117692619Y-123733333D01*
X117692619Y-123733333D02*
X117692619Y-123828571D01*
X117692619Y-123828571D02*
X117645000Y-123971428D01*
X117645000Y-123971428D02*
X117549761Y-124066666D01*
X117549761Y-124066666D02*
X117454523Y-124114285D01*
X117454523Y-124114285D02*
X117264047Y-124161904D01*
X117264047Y-124161904D02*
X117121190Y-124161904D01*
X117121190Y-124161904D02*
X116930714Y-124114285D01*
X116930714Y-124114285D02*
X116835476Y-124066666D01*
X116835476Y-124066666D02*
X116740238Y-123971428D01*
X116740238Y-123971428D02*
X116692619Y-123828571D01*
X116692619Y-123828571D02*
X116692619Y-123733333D01*
X116692619Y-123733333D02*
X116740238Y-123590476D01*
X116740238Y-123590476D02*
X116787857Y-123542857D01*
X117692619Y-122590476D02*
X117692619Y-123161904D01*
X117692619Y-122876190D02*
X116692619Y-122876190D01*
X116692619Y-122876190D02*
X116835476Y-122971428D01*
X116835476Y-122971428D02*
X116930714Y-123066666D01*
X116930714Y-123066666D02*
X116978333Y-123161904D01*
X116692619Y-122257142D02*
X116692619Y-121590476D01*
X116692619Y-121590476D02*
X117692619Y-122019047D01*
%TO.C,Q2*%
X113457857Y-92532738D02*
X113410238Y-92627976D01*
X113410238Y-92627976D02*
X113315000Y-92723214D01*
X113315000Y-92723214D02*
X113172142Y-92866071D01*
X113172142Y-92866071D02*
X113124523Y-92961309D01*
X113124523Y-92961309D02*
X113124523Y-93056547D01*
X113362619Y-93008928D02*
X113315000Y-93104166D01*
X113315000Y-93104166D02*
X113219761Y-93199404D01*
X113219761Y-93199404D02*
X113029285Y-93247023D01*
X113029285Y-93247023D02*
X112695952Y-93247023D01*
X112695952Y-93247023D02*
X112505476Y-93199404D01*
X112505476Y-93199404D02*
X112410238Y-93104166D01*
X112410238Y-93104166D02*
X112362619Y-93008928D01*
X112362619Y-93008928D02*
X112362619Y-92818452D01*
X112362619Y-92818452D02*
X112410238Y-92723214D01*
X112410238Y-92723214D02*
X112505476Y-92627976D01*
X112505476Y-92627976D02*
X112695952Y-92580357D01*
X112695952Y-92580357D02*
X113029285Y-92580357D01*
X113029285Y-92580357D02*
X113219761Y-92627976D01*
X113219761Y-92627976D02*
X113315000Y-92723214D01*
X113315000Y-92723214D02*
X113362619Y-92818452D01*
X113362619Y-92818452D02*
X113362619Y-93008928D01*
X112457857Y-92199404D02*
X112410238Y-92151785D01*
X112410238Y-92151785D02*
X112362619Y-92056547D01*
X112362619Y-92056547D02*
X112362619Y-91818452D01*
X112362619Y-91818452D02*
X112410238Y-91723214D01*
X112410238Y-91723214D02*
X112457857Y-91675595D01*
X112457857Y-91675595D02*
X112553095Y-91627976D01*
X112553095Y-91627976D02*
X112648333Y-91627976D01*
X112648333Y-91627976D02*
X112791190Y-91675595D01*
X112791190Y-91675595D02*
X113362619Y-92247023D01*
X113362619Y-92247023D02*
X113362619Y-91627976D01*
%TO.C,C13*%
X136867380Y-106642857D02*
X136915000Y-106690476D01*
X136915000Y-106690476D02*
X136962619Y-106833333D01*
X136962619Y-106833333D02*
X136962619Y-106928571D01*
X136962619Y-106928571D02*
X136915000Y-107071428D01*
X136915000Y-107071428D02*
X136819761Y-107166666D01*
X136819761Y-107166666D02*
X136724523Y-107214285D01*
X136724523Y-107214285D02*
X136534047Y-107261904D01*
X136534047Y-107261904D02*
X136391190Y-107261904D01*
X136391190Y-107261904D02*
X136200714Y-107214285D01*
X136200714Y-107214285D02*
X136105476Y-107166666D01*
X136105476Y-107166666D02*
X136010238Y-107071428D01*
X136010238Y-107071428D02*
X135962619Y-106928571D01*
X135962619Y-106928571D02*
X135962619Y-106833333D01*
X135962619Y-106833333D02*
X136010238Y-106690476D01*
X136010238Y-106690476D02*
X136057857Y-106642857D01*
X136962619Y-105690476D02*
X136962619Y-106261904D01*
X136962619Y-105976190D02*
X135962619Y-105976190D01*
X135962619Y-105976190D02*
X136105476Y-106071428D01*
X136105476Y-106071428D02*
X136200714Y-106166666D01*
X136200714Y-106166666D02*
X136248333Y-106261904D01*
X135962619Y-105357142D02*
X135962619Y-104738095D01*
X135962619Y-104738095D02*
X136343571Y-105071428D01*
X136343571Y-105071428D02*
X136343571Y-104928571D01*
X136343571Y-104928571D02*
X136391190Y-104833333D01*
X136391190Y-104833333D02*
X136438809Y-104785714D01*
X136438809Y-104785714D02*
X136534047Y-104738095D01*
X136534047Y-104738095D02*
X136772142Y-104738095D01*
X136772142Y-104738095D02*
X136867380Y-104785714D01*
X136867380Y-104785714D02*
X136915000Y-104833333D01*
X136915000Y-104833333D02*
X136962619Y-104928571D01*
X136962619Y-104928571D02*
X136962619Y-105214285D01*
X136962619Y-105214285D02*
X136915000Y-105309523D01*
X136915000Y-105309523D02*
X136867380Y-105357142D01*
%TO.C,Q1*%
X142657857Y-107845238D02*
X142610238Y-107940476D01*
X142610238Y-107940476D02*
X142515000Y-108035714D01*
X142515000Y-108035714D02*
X142372142Y-108178571D01*
X142372142Y-108178571D02*
X142324523Y-108273809D01*
X142324523Y-108273809D02*
X142324523Y-108369047D01*
X142562619Y-108321428D02*
X142515000Y-108416666D01*
X142515000Y-108416666D02*
X142419761Y-108511904D01*
X142419761Y-108511904D02*
X142229285Y-108559523D01*
X142229285Y-108559523D02*
X141895952Y-108559523D01*
X141895952Y-108559523D02*
X141705476Y-108511904D01*
X141705476Y-108511904D02*
X141610238Y-108416666D01*
X141610238Y-108416666D02*
X141562619Y-108321428D01*
X141562619Y-108321428D02*
X141562619Y-108130952D01*
X141562619Y-108130952D02*
X141610238Y-108035714D01*
X141610238Y-108035714D02*
X141705476Y-107940476D01*
X141705476Y-107940476D02*
X141895952Y-107892857D01*
X141895952Y-107892857D02*
X142229285Y-107892857D01*
X142229285Y-107892857D02*
X142419761Y-107940476D01*
X142419761Y-107940476D02*
X142515000Y-108035714D01*
X142515000Y-108035714D02*
X142562619Y-108130952D01*
X142562619Y-108130952D02*
X142562619Y-108321428D01*
X142562619Y-106940476D02*
X142562619Y-107511904D01*
X142562619Y-107226190D02*
X141562619Y-107226190D01*
X141562619Y-107226190D02*
X141705476Y-107321428D01*
X141705476Y-107321428D02*
X141800714Y-107416666D01*
X141800714Y-107416666D02*
X141848333Y-107511904D01*
%TO.C,R8*%
X113942619Y-87666666D02*
X113466428Y-87999999D01*
X113942619Y-88238094D02*
X112942619Y-88238094D01*
X112942619Y-88238094D02*
X112942619Y-87857142D01*
X112942619Y-87857142D02*
X112990238Y-87761904D01*
X112990238Y-87761904D02*
X113037857Y-87714285D01*
X113037857Y-87714285D02*
X113133095Y-87666666D01*
X113133095Y-87666666D02*
X113275952Y-87666666D01*
X113275952Y-87666666D02*
X113371190Y-87714285D01*
X113371190Y-87714285D02*
X113418809Y-87761904D01*
X113418809Y-87761904D02*
X113466428Y-87857142D01*
X113466428Y-87857142D02*
X113466428Y-88238094D01*
X113371190Y-87095237D02*
X113323571Y-87190475D01*
X113323571Y-87190475D02*
X113275952Y-87238094D01*
X113275952Y-87238094D02*
X113180714Y-87285713D01*
X113180714Y-87285713D02*
X113133095Y-87285713D01*
X113133095Y-87285713D02*
X113037857Y-87238094D01*
X113037857Y-87238094D02*
X112990238Y-87190475D01*
X112990238Y-87190475D02*
X112942619Y-87095237D01*
X112942619Y-87095237D02*
X112942619Y-86904761D01*
X112942619Y-86904761D02*
X112990238Y-86809523D01*
X112990238Y-86809523D02*
X113037857Y-86761904D01*
X113037857Y-86761904D02*
X113133095Y-86714285D01*
X113133095Y-86714285D02*
X113180714Y-86714285D01*
X113180714Y-86714285D02*
X113275952Y-86761904D01*
X113275952Y-86761904D02*
X113323571Y-86809523D01*
X113323571Y-86809523D02*
X113371190Y-86904761D01*
X113371190Y-86904761D02*
X113371190Y-87095237D01*
X113371190Y-87095237D02*
X113418809Y-87190475D01*
X113418809Y-87190475D02*
X113466428Y-87238094D01*
X113466428Y-87238094D02*
X113561666Y-87285713D01*
X113561666Y-87285713D02*
X113752142Y-87285713D01*
X113752142Y-87285713D02*
X113847380Y-87238094D01*
X113847380Y-87238094D02*
X113895000Y-87190475D01*
X113895000Y-87190475D02*
X113942619Y-87095237D01*
X113942619Y-87095237D02*
X113942619Y-86904761D01*
X113942619Y-86904761D02*
X113895000Y-86809523D01*
X113895000Y-86809523D02*
X113847380Y-86761904D01*
X113847380Y-86761904D02*
X113752142Y-86714285D01*
X113752142Y-86714285D02*
X113561666Y-86714285D01*
X113561666Y-86714285D02*
X113466428Y-86761904D01*
X113466428Y-86761904D02*
X113418809Y-86809523D01*
X113418809Y-86809523D02*
X113371190Y-86904761D01*
%TO.C,C1*%
X125017380Y-108266666D02*
X125065000Y-108314285D01*
X125065000Y-108314285D02*
X125112619Y-108457142D01*
X125112619Y-108457142D02*
X125112619Y-108552380D01*
X125112619Y-108552380D02*
X125065000Y-108695237D01*
X125065000Y-108695237D02*
X124969761Y-108790475D01*
X124969761Y-108790475D02*
X124874523Y-108838094D01*
X124874523Y-108838094D02*
X124684047Y-108885713D01*
X124684047Y-108885713D02*
X124541190Y-108885713D01*
X124541190Y-108885713D02*
X124350714Y-108838094D01*
X124350714Y-108838094D02*
X124255476Y-108790475D01*
X124255476Y-108790475D02*
X124160238Y-108695237D01*
X124160238Y-108695237D02*
X124112619Y-108552380D01*
X124112619Y-108552380D02*
X124112619Y-108457142D01*
X124112619Y-108457142D02*
X124160238Y-108314285D01*
X124160238Y-108314285D02*
X124207857Y-108266666D01*
X125112619Y-107314285D02*
X125112619Y-107885713D01*
X125112619Y-107599999D02*
X124112619Y-107599999D01*
X124112619Y-107599999D02*
X124255476Y-107695237D01*
X124255476Y-107695237D02*
X124350714Y-107790475D01*
X124350714Y-107790475D02*
X124398333Y-107885713D01*
%TO.C,R5*%
X135633333Y-94262619D02*
X135300000Y-93786428D01*
X135061905Y-94262619D02*
X135061905Y-93262619D01*
X135061905Y-93262619D02*
X135442857Y-93262619D01*
X135442857Y-93262619D02*
X135538095Y-93310238D01*
X135538095Y-93310238D02*
X135585714Y-93357857D01*
X135585714Y-93357857D02*
X135633333Y-93453095D01*
X135633333Y-93453095D02*
X135633333Y-93595952D01*
X135633333Y-93595952D02*
X135585714Y-93691190D01*
X135585714Y-93691190D02*
X135538095Y-93738809D01*
X135538095Y-93738809D02*
X135442857Y-93786428D01*
X135442857Y-93786428D02*
X135061905Y-93786428D01*
X136538095Y-93262619D02*
X136061905Y-93262619D01*
X136061905Y-93262619D02*
X136014286Y-93738809D01*
X136014286Y-93738809D02*
X136061905Y-93691190D01*
X136061905Y-93691190D02*
X136157143Y-93643571D01*
X136157143Y-93643571D02*
X136395238Y-93643571D01*
X136395238Y-93643571D02*
X136490476Y-93691190D01*
X136490476Y-93691190D02*
X136538095Y-93738809D01*
X136538095Y-93738809D02*
X136585714Y-93834047D01*
X136585714Y-93834047D02*
X136585714Y-94072142D01*
X136585714Y-94072142D02*
X136538095Y-94167380D01*
X136538095Y-94167380D02*
X136490476Y-94215000D01*
X136490476Y-94215000D02*
X136395238Y-94262619D01*
X136395238Y-94262619D02*
X136157143Y-94262619D01*
X136157143Y-94262619D02*
X136061905Y-94215000D01*
X136061905Y-94215000D02*
X136014286Y-94167380D01*
D11*
%TO.C,U5*%
X133637500Y-101190000D02*
X131837500Y-101190000D01*
X133637500Y-101190000D02*
X134437500Y-101190000D01*
X133637500Y-104310000D02*
X132837500Y-104310000D01*
X133637500Y-104310000D02*
X134437500Y-104310000D01*
%TO.C,C11*%
X120635000Y-121059420D02*
X120635000Y-121340580D01*
X119615000Y-121059420D02*
X119615000Y-121340580D01*
%TO.C,J2*%
X111355000Y-131970000D02*
X111355000Y-130640000D01*
X112685000Y-131970000D02*
X111355000Y-131970000D01*
X113955000Y-131970000D02*
X116555000Y-131970000D01*
X113955000Y-131970000D02*
X113955000Y-129370000D01*
X116555000Y-131970000D02*
X116555000Y-126770000D01*
X111355000Y-129370000D02*
X111355000Y-126770000D01*
X113955000Y-129370000D02*
X111355000Y-129370000D01*
X111355000Y-126770000D02*
X116555000Y-126770000D01*
%TO.C,U1*%
X129650000Y-109660000D02*
X131450000Y-109660000D01*
X129650000Y-109660000D02*
X128850000Y-109660000D01*
X129650000Y-106540000D02*
X130450000Y-106540000D01*
X129650000Y-106540000D02*
X128850000Y-106540000D01*
%TO.C,C2*%
X132140000Y-108240580D02*
X132140000Y-107959420D01*
X133160000Y-108240580D02*
X133160000Y-107959420D01*
%TO.C,R11*%
X127762258Y-133222500D02*
X127287742Y-133222500D01*
X127762258Y-132177500D02*
X127287742Y-132177500D01*
%TO.C,C3*%
X126635000Y-84888748D02*
X126635000Y-85411252D01*
X125165000Y-84888748D02*
X125165000Y-85411252D01*
%TO.C,D2*%
X124675000Y-82140000D02*
X122675000Y-82140000D01*
X124675000Y-82140000D02*
X124675000Y-86150000D01*
X122675000Y-82140000D02*
X122675000Y-86150000D01*
%TO.C,Q3*%
X153970000Y-98451000D02*
X153970000Y-93180000D01*
X153970000Y-98451000D02*
X137830000Y-98451000D01*
X153970000Y-93180000D02*
X137830000Y-93180000D01*
X147704000Y-98451000D02*
X147704000Y-93180000D01*
X144095000Y-98451000D02*
X144095000Y-93180000D01*
X137830000Y-98451000D02*
X137830000Y-93180000D01*
%TO.C,U2*%
X114500000Y-125030000D02*
X113360000Y-125030000D01*
X113360000Y-125260000D02*
X113360000Y-125030000D01*
X113360000Y-125260000D02*
X110640000Y-125260000D01*
X113360000Y-120540000D02*
X113360000Y-120770000D01*
X110640000Y-125260000D02*
X110640000Y-123950000D01*
X110640000Y-121850000D02*
X110640000Y-120540000D01*
X110640000Y-120540000D02*
X113360000Y-120540000D01*
%TO.C,U3*%
X109535000Y-129862500D02*
X109535000Y-128062500D01*
X109535000Y-129862500D02*
X109535000Y-130662500D01*
X106415000Y-129862500D02*
X106415000Y-129062500D01*
X106415000Y-129862500D02*
X106415000Y-130662500D01*
%TO.C,C12*%
X122284420Y-119390000D02*
X122565580Y-119390000D01*
X122284420Y-120410000D02*
X122565580Y-120410000D01*
%TO.C,C16*%
X128411252Y-79410000D02*
X126988748Y-79410000D01*
X128411252Y-77590000D02*
X126988748Y-77590000D01*
%TO.C,C19*%
X134311252Y-99135000D02*
X133788748Y-99135000D01*
X134311252Y-97665000D02*
X133788748Y-97665000D01*
%TO.C,D1*%
X129010000Y-113610000D02*
X129010000Y-111590000D01*
X129010000Y-113610000D02*
X125250000Y-113610000D01*
X129010000Y-111590000D02*
X125250000Y-111590000D01*
%TO.C,R15*%
X138612742Y-104677500D02*
X139087258Y-104677500D01*
X138612742Y-105722500D02*
X139087258Y-105722500D01*
%TO.C,C5*%
X123734420Y-93090000D02*
X124015580Y-93090000D01*
X123734420Y-94110000D02*
X124015580Y-94110000D01*
%TO.C,C8*%
X158870000Y-90620000D02*
X158870000Y-87380000D01*
X158870000Y-90620000D02*
X148630000Y-90620000D01*
X158870000Y-87380000D02*
X148630000Y-87380000D01*
X148630000Y-90620000D02*
X148630000Y-87380000D01*
%TO.C,R4*%
X117677500Y-93112258D02*
X117677500Y-92637742D01*
X118722500Y-93112258D02*
X118722500Y-92637742D01*
%TO.C,R12*%
X139087258Y-102722500D02*
X138612742Y-102722500D01*
X139087258Y-101677500D02*
X138612742Y-101677500D01*
%TO.C,R16*%
X129862258Y-103572500D02*
X129387742Y-103572500D01*
X129862258Y-102527500D02*
X129387742Y-102527500D01*
%TO.C,R1*%
X129412742Y-104077500D02*
X129887258Y-104077500D01*
X129412742Y-105122500D02*
X129887258Y-105122500D01*
%TO.C,C6*%
X123788748Y-94665000D02*
X124311252Y-94665000D01*
X123788748Y-96135000D02*
X124311252Y-96135000D01*
%TO.C,R13*%
X139087258Y-104222500D02*
X138612742Y-104222500D01*
X139087258Y-103177500D02*
X138612742Y-103177500D01*
D10*
%TO.C,J3*%
X105755000Y-125612500D02*
X105755000Y-133912500D01*
X105280000Y-125612500D02*
X105755000Y-125612500D01*
X103030000Y-125612500D02*
X102555000Y-125612500D01*
X102555000Y-125612500D02*
X102555000Y-133912500D01*
X106055000Y-127462500D02*
X106055000Y-129462500D01*
X105755000Y-133912500D02*
X105280000Y-133912500D01*
X102555000Y-133912500D02*
X103030000Y-133912500D01*
D11*
%TO.C,C20*%
X134365580Y-100710000D02*
X134084420Y-100710000D01*
X134365580Y-99690000D02*
X134084420Y-99690000D01*
%TO.C,R6*%
X145560000Y-89000000D02*
X145450000Y-89000000D01*
X145450000Y-91370000D02*
X145450000Y-86630000D01*
X145450000Y-86630000D02*
X133310000Y-86630000D01*
X133310000Y-91370000D02*
X145450000Y-91370000D01*
X133310000Y-86630000D02*
X133310000Y-91370000D01*
X133200000Y-89000000D02*
X133310000Y-89000000D01*
%TO.C,D3*%
X121000000Y-82140000D02*
X119000000Y-82140000D01*
X121000000Y-82140000D02*
X121000000Y-86150000D01*
X119000000Y-82140000D02*
X119000000Y-86150000D01*
%TO.C,R3*%
X120322500Y-92637742D02*
X120322500Y-93112258D01*
X119277500Y-92637742D02*
X119277500Y-93112258D01*
%TO.C,R7*%
X138612742Y-100177500D02*
X139087258Y-100177500D01*
X138612742Y-101222500D02*
X139087258Y-101222500D01*
%TO.C,D4*%
X109840000Y-118090000D02*
X109840000Y-120110000D01*
X109840000Y-118090000D02*
X113600000Y-118090000D01*
X109840000Y-120110000D02*
X113600000Y-120110000D01*
%TO.C,R10*%
X130302500Y-127637258D02*
X130302500Y-127162742D01*
X131347500Y-127637258D02*
X131347500Y-127162742D01*
%TO.C,C10*%
X129584420Y-130190000D02*
X129865580Y-130190000D01*
X129584420Y-131210000D02*
X129865580Y-131210000D01*
%TO.C,U4*%
X128335000Y-129735000D02*
X128335000Y-129435000D01*
X128335000Y-129435000D02*
X129650000Y-129435000D01*
X128335000Y-122515000D02*
X128335000Y-122815000D01*
X128035000Y-129735000D02*
X128335000Y-129735000D01*
X128035000Y-122515000D02*
X128335000Y-122515000D01*
X121415000Y-129735000D02*
X121115000Y-129735000D01*
X121415000Y-122515000D02*
X121115000Y-122515000D01*
X121115000Y-129735000D02*
X121115000Y-129435000D01*
X121115000Y-122515000D02*
X121115000Y-122815000D01*
%TO.C,R9*%
X133912742Y-104727500D02*
X134387258Y-104727500D01*
X133912742Y-105772500D02*
X134387258Y-105772500D01*
%TO.C,U6*%
X124437500Y-92610000D02*
X126237500Y-92610000D01*
X124437500Y-92610000D02*
X123637500Y-92610000D01*
X124437500Y-89490000D02*
X125237500Y-89490000D01*
X124437500Y-89490000D02*
X123637500Y-89490000D01*
%TO.C,R14*%
X138612742Y-109727500D02*
X139087258Y-109727500D01*
X138612742Y-110772500D02*
X139087258Y-110772500D01*
%TO.C,C18*%
X109310000Y-122659420D02*
X109310000Y-122940580D01*
X108290000Y-122659420D02*
X108290000Y-122940580D01*
%TO.C,L1*%
X130150000Y-114710000D02*
X134150000Y-114710000D01*
X132150000Y-110490000D02*
X134150000Y-110490000D01*
%TO.C,C4*%
X122961252Y-80035000D02*
X122438748Y-80035000D01*
X122961252Y-78565000D02*
X122438748Y-78565000D01*
%TO.C,C7*%
X157120000Y-86120000D02*
X157120000Y-79880000D01*
X157120000Y-86120000D02*
X130380000Y-86120000D01*
X157120000Y-79880000D02*
X130380000Y-79880000D01*
X130380000Y-86120000D02*
X130380000Y-79880000D01*
%TO.C,C15*%
X128411252Y-81910000D02*
X126988748Y-81910000D01*
X128411252Y-80090000D02*
X126988748Y-80090000D01*
%TO.C,R18*%
X115562258Y-95822500D02*
X115087742Y-95822500D01*
X115562258Y-94777500D02*
X115087742Y-94777500D01*
%TO.C,R2*%
X118962742Y-78777500D02*
X119437258Y-78777500D01*
X118962742Y-79822500D02*
X119437258Y-79822500D01*
%TO.C,C9*%
X131915000Y-127515580D02*
X131915000Y-127234420D01*
X132935000Y-127515580D02*
X132935000Y-127234420D01*
%TO.C,C17*%
X116310000Y-122759420D02*
X116310000Y-123040580D01*
X115290000Y-122759420D02*
X115290000Y-123040580D01*
%TO.C,Q2*%
X113740000Y-92437500D02*
X113740000Y-94112500D01*
X113740000Y-92437500D02*
X113740000Y-91787500D01*
X116860000Y-92437500D02*
X116860000Y-93087500D01*
X116860000Y-92437500D02*
X116860000Y-91787500D01*
%TO.C,C13*%
X137035000Y-102859420D02*
X137035000Y-103140580D01*
X136015000Y-102859420D02*
X136015000Y-103140580D01*
%TO.C,Q1*%
X139287500Y-109310000D02*
X140962500Y-109310000D01*
X139287500Y-109310000D02*
X138637500Y-109310000D01*
X139287500Y-106190000D02*
X139937500Y-106190000D01*
X139287500Y-106190000D02*
X138637500Y-106190000D01*
%TO.C,R8*%
X114390000Y-88227064D02*
X114390000Y-86772936D01*
X116210000Y-88227064D02*
X116210000Y-86772936D01*
%TO.C,C1*%
X127085000Y-107838748D02*
X127085000Y-108361252D01*
X125615000Y-107838748D02*
X125615000Y-108361252D01*
%TO.C,R5*%
X135227064Y-96610000D02*
X133772936Y-96610000D01*
X135227064Y-94790000D02*
X133772936Y-94790000D01*
%TD*%
M02*
