%TF.GenerationSoftware,KiCad,Pcbnew,7.0.1*%
%TF.CreationDate,2024-04-13T10:55:35+02:00*%
%TF.ProjectId,Zuendung,5a75656e-6475-46e6-972e-6b696361645f,rev?*%
%TF.SameCoordinates,Original*%
%TF.FileFunction,Soldermask,Bot*%
%TF.FilePolarity,Negative*%
%FSLAX46Y46*%
G04 Gerber Fmt 4.6, Leading zero omitted, Abs format (unit mm)*
G04 Created by KiCad (PCBNEW 7.0.1) date 2024-04-13 10:55:35*
%MOMM*%
%LPD*%
G01*
G04 APERTURE LIST*
G04 Aperture macros list*
%AMRoundRect*
0 Rectangle with rounded corners*
0 $1 Rounding radius*
0 $2 $3 $4 $5 $6 $7 $8 $9 X,Y pos of 4 corners*
0 Add a 4 corners polygon primitive as box body*
4,1,4,$2,$3,$4,$5,$6,$7,$8,$9,$2,$3,0*
0 Add four circle primitives for the rounded corners*
1,1,$1+$1,$2,$3*
1,1,$1+$1,$4,$5*
1,1,$1+$1,$6,$7*
1,1,$1+$1,$8,$9*
0 Add four rect primitives between the rounded corners*
20,1,$1+$1,$2,$3,$4,$5,0*
20,1,$1+$1,$4,$5,$6,$7,0*
20,1,$1+$1,$6,$7,$8,$9,0*
20,1,$1+$1,$8,$9,$2,$3,0*%
G04 Aperture macros list end*
%ADD10R,1.700000X1.700000*%
%ADD11O,1.700000X1.700000*%
%ADD12C,3.500000*%
%ADD13RoundRect,0.249999X-1.025001X-1.025001X1.025001X-1.025001X1.025001X1.025001X-1.025001X1.025001X0*%
%ADD14C,2.550000*%
%ADD15R,2.500000X4.500000*%
%ADD16O,2.500000X4.500000*%
%ADD17C,2.000000*%
%ADD18C,0.800000*%
%ADD19C,6.400000*%
%ADD20R,0.840000X0.840000*%
%ADD21C,0.840000*%
%ADD22O,1.850000X0.850000*%
%ADD23C,2.400000*%
%ADD24O,2.400000X2.400000*%
%ADD25RoundRect,0.250000X-1.000000X1.400000X-1.000000X-1.400000X1.000000X-1.400000X1.000000X1.400000X0*%
G04 APERTURE END LIST*
D10*
%TO.C,J2*%
X112685000Y-130640000D03*
D11*
X112685000Y-128100000D03*
X115225000Y-130640000D03*
X115225000Y-128100000D03*
%TD*%
D12*
%TO.C,H4*%
X117000000Y-137300000D03*
%TD*%
D13*
%TO.C,J5*%
X138150000Y-75500000D03*
D14*
X142950000Y-75500000D03*
X147750000Y-75500000D03*
%TD*%
D15*
%TO.C,Q3*%
X151350000Y-96000000D03*
D16*
X145900000Y-96000000D03*
X140450000Y-96000000D03*
%TD*%
D17*
%TO.C,C8*%
X157500000Y-89000000D03*
X150000000Y-89000000D03*
%TD*%
D18*
%TO.C,H1*%
X102600000Y-80000000D03*
X103302944Y-78302944D03*
X103302944Y-81697056D03*
X105000000Y-77600000D03*
D19*
X105000000Y-80000000D03*
D18*
X105000000Y-82400000D03*
X106697056Y-78302944D03*
X106697056Y-81697056D03*
X107400000Y-80000000D03*
%TD*%
D12*
%TO.C,H3*%
X117000000Y-107300000D03*
%TD*%
D20*
%TO.C,J3*%
X104375000Y-128462500D03*
D21*
X103375000Y-129112500D03*
X104375000Y-129762500D03*
X103375000Y-130412500D03*
X104375000Y-131062500D03*
D22*
X104155000Y-126187500D03*
X104155000Y-133337500D03*
%TD*%
D23*
%TO.C,R6*%
X147000000Y-89000000D03*
D24*
X131760000Y-89000000D03*
%TD*%
D13*
%TO.C,J1*%
X118950000Y-75500000D03*
D14*
X123750000Y-75500000D03*
X128550000Y-75500000D03*
X133350000Y-75500000D03*
%TD*%
D23*
%TO.C,C7*%
X155000000Y-83000000D03*
X132500000Y-83000000D03*
%TD*%
D18*
%TO.C,H2*%
X159300000Y-80000000D03*
X160002944Y-78302944D03*
X160002944Y-81697056D03*
X161700000Y-77600000D03*
D19*
X161700000Y-80000000D03*
D18*
X161700000Y-82400000D03*
X163397056Y-78302944D03*
X163397056Y-81697056D03*
X164100000Y-80000000D03*
%TD*%
D25*
%TO.C,D5*%
X141300000Y-83100000D03*
X148100000Y-83100000D03*
%TD*%
M02*
