%TF.GenerationSoftware,KiCad,Pcbnew,7.0.1*%
%TF.CreationDate,2024-04-13T10:55:35+02:00*%
%TF.ProjectId,Zuendung,5a75656e-6475-46e6-972e-6b696361645f,rev?*%
%TF.SameCoordinates,Original*%
%TF.FileFunction,Copper,L2,Bot*%
%TF.FilePolarity,Positive*%
%FSLAX46Y46*%
G04 Gerber Fmt 4.6, Leading zero omitted, Abs format (unit mm)*
G04 Created by KiCad (PCBNEW 7.0.1) date 2024-04-13 10:55:35*
%MOMM*%
%LPD*%
G01*
G04 APERTURE LIST*
G04 Aperture macros list*
%AMRoundRect*
0 Rectangle with rounded corners*
0 $1 Rounding radius*
0 $2 $3 $4 $5 $6 $7 $8 $9 X,Y pos of 4 corners*
0 Add a 4 corners polygon primitive as box body*
4,1,4,$2,$3,$4,$5,$6,$7,$8,$9,$2,$3,0*
0 Add four circle primitives for the rounded corners*
1,1,$1+$1,$2,$3*
1,1,$1+$1,$4,$5*
1,1,$1+$1,$6,$7*
1,1,$1+$1,$8,$9*
0 Add four rect primitives between the rounded corners*
20,1,$1+$1,$2,$3,$4,$5,0*
20,1,$1+$1,$4,$5,$6,$7,0*
20,1,$1+$1,$6,$7,$8,$9,0*
20,1,$1+$1,$8,$9,$2,$3,0*%
G04 Aperture macros list end*
%TA.AperFunction,ComponentPad*%
%ADD10R,1.700000X1.700000*%
%TD*%
%TA.AperFunction,ComponentPad*%
%ADD11O,1.700000X1.700000*%
%TD*%
%TA.AperFunction,ComponentPad*%
%ADD12RoundRect,0.249999X-1.025001X-1.025001X1.025001X-1.025001X1.025001X1.025001X-1.025001X1.025001X0*%
%TD*%
%TA.AperFunction,ComponentPad*%
%ADD13C,2.550000*%
%TD*%
%TA.AperFunction,ComponentPad*%
%ADD14R,2.500000X4.500000*%
%TD*%
%TA.AperFunction,ComponentPad*%
%ADD15O,2.500000X4.500000*%
%TD*%
%TA.AperFunction,ComponentPad*%
%ADD16C,2.000000*%
%TD*%
%TA.AperFunction,ComponentPad*%
%ADD17C,0.800000*%
%TD*%
%TA.AperFunction,ComponentPad*%
%ADD18C,6.400000*%
%TD*%
%TA.AperFunction,ComponentPad*%
%ADD19R,0.840000X0.840000*%
%TD*%
%TA.AperFunction,ComponentPad*%
%ADD20C,0.840000*%
%TD*%
%TA.AperFunction,ComponentPad*%
%ADD21O,1.850000X0.850000*%
%TD*%
%TA.AperFunction,ComponentPad*%
%ADD22C,2.400000*%
%TD*%
%TA.AperFunction,ComponentPad*%
%ADD23O,2.400000X2.400000*%
%TD*%
%TA.AperFunction,SMDPad,CuDef*%
%ADD24RoundRect,0.250000X-1.000000X1.400000X-1.000000X-1.400000X1.000000X-1.400000X1.000000X1.400000X0*%
%TD*%
%TA.AperFunction,ViaPad*%
%ADD25C,0.800000*%
%TD*%
%TA.AperFunction,Conductor*%
%ADD26C,2.000000*%
%TD*%
%TA.AperFunction,Conductor*%
%ADD27C,1.000000*%
%TD*%
%TA.AperFunction,Conductor*%
%ADD28C,0.500000*%
%TD*%
G04 APERTURE END LIST*
D10*
%TO.P,J2,1,Pin_1*%
%TO.N,+3V3*%
X112685000Y-130640000D03*
D11*
%TO.P,J2,2,Pin_2*%
%TO.N,GND*%
X112685000Y-128100000D03*
%TO.P,J2,3,Pin_3*%
%TO.N,/SWCLK*%
X115225000Y-130640000D03*
%TO.P,J2,4,Pin_4*%
%TO.N,/SWDIO*%
X115225000Y-128100000D03*
%TD*%
D12*
%TO.P,J5,1,Pin_1*%
%TO.N,Ignition*%
X138150000Y-75500000D03*
D13*
%TO.P,J5,2,Pin_2*%
X142950000Y-75500000D03*
%TO.P,J5,3,Pin_3*%
%TO.N,GND*%
X147750000Y-75500000D03*
%TD*%
D14*
%TO.P,Q3,1,G*%
%TO.N,Net-(Q3-G)*%
X151350000Y-96000000D03*
D15*
%TO.P,Q3,2,D*%
%TO.N,Ignition*%
X145900000Y-96000000D03*
%TO.P,Q3,3,S*%
%TO.N,Net-(Q3-S)*%
X140450000Y-96000000D03*
%TD*%
D16*
%TO.P,C8,1*%
%TO.N,GND*%
X157500000Y-89000000D03*
%TO.P,C8,2*%
%TO.N,Ignition*%
X150000000Y-89000000D03*
%TD*%
D17*
%TO.P,H1,1,1*%
%TO.N,GND*%
X102600000Y-80000000D03*
X103302944Y-78302944D03*
X103302944Y-81697056D03*
X105000000Y-77600000D03*
D18*
X105000000Y-80000000D03*
D17*
X105000000Y-82400000D03*
X106697056Y-78302944D03*
X106697056Y-81697056D03*
X107400000Y-80000000D03*
%TD*%
D19*
%TO.P,J3,1,VBUS*%
%TO.N,VBUS*%
X104375000Y-128462500D03*
D20*
%TO.P,J3,2,D-*%
%TO.N,/D-*%
X103375000Y-129112500D03*
%TO.P,J3,3,D+*%
%TO.N,/D+*%
X104375000Y-129762500D03*
%TO.P,J3,4,ID*%
%TO.N,unconnected-(J3-ID-Pad4)*%
X103375000Y-130412500D03*
%TO.P,J3,5,GND*%
%TO.N,GND*%
X104375000Y-131062500D03*
D21*
%TO.P,J3,6,Shield*%
X104155000Y-126187500D03*
X104155000Y-133337500D03*
%TD*%
D22*
%TO.P,R6,1*%
%TO.N,Ignition*%
X147000000Y-89000000D03*
D23*
%TO.P,R6,2*%
%TO.N,Net-(C7-Pad2)*%
X131760000Y-89000000D03*
%TD*%
D12*
%TO.P,J1,1,Pin_1*%
%TO.N,SpeedSignalPlus*%
X118950000Y-75500000D03*
D13*
%TO.P,J1,2,Pin_2*%
%TO.N,SpeedSignalMinus*%
X123750000Y-75500000D03*
%TO.P,J1,3,Pin_3*%
%TO.N,FuelRelay*%
X128550000Y-75500000D03*
%TO.P,J1,4,Pin_4*%
%TO.N,VCC*%
X133350000Y-75500000D03*
%TD*%
D22*
%TO.P,C7,1*%
%TO.N,GND*%
X155000000Y-83000000D03*
%TO.P,C7,2*%
%TO.N,Net-(C7-Pad2)*%
X132500000Y-83000000D03*
%TD*%
D17*
%TO.P,H2,1,1*%
%TO.N,GND*%
X159300000Y-80000000D03*
X160002944Y-78302944D03*
X160002944Y-81697056D03*
X161700000Y-77600000D03*
D18*
X161700000Y-80000000D03*
D17*
X161700000Y-82400000D03*
X163397056Y-78302944D03*
X163397056Y-81697056D03*
X164100000Y-80000000D03*
%TD*%
D24*
%TO.P,D5,1,K*%
%TO.N,VCC*%
X141300000Y-83100000D03*
%TO.P,D5,2,A*%
%TO.N,GND*%
X148100000Y-83100000D03*
%TD*%
D25*
%TO.N,GND*%
X143500000Y-107750000D03*
X143250000Y-105750000D03*
X142250000Y-108000000D03*
X142500000Y-106750000D03*
X142000000Y-105750000D03*
X131500000Y-92300000D03*
X129625000Y-131700000D03*
X130300000Y-95100000D03*
X131500000Y-96400000D03*
X118700000Y-123300000D03*
X117100000Y-92100000D03*
X127100000Y-123700000D03*
X127600000Y-85200000D03*
X124900000Y-77800000D03*
X111000000Y-127500000D03*
X126600000Y-93600000D03*
X126200000Y-74800000D03*
X124575000Y-109100000D03*
X117400000Y-121000000D03*
X120000000Y-87300000D03*
X126800000Y-87600000D03*
X120125000Y-119249500D03*
X132600000Y-93700000D03*
X134800000Y-92300000D03*
X135900000Y-92300000D03*
X137200000Y-93700000D03*
X121300000Y-81200000D03*
X135000000Y-107700000D03*
X127600000Y-84000000D03*
X130300000Y-92300000D03*
X110500000Y-128400000D03*
X127600000Y-90500000D03*
X121900000Y-86100000D03*
X117500000Y-123600000D03*
X117400000Y-119700000D03*
X125175000Y-114400000D03*
X129625000Y-132700000D03*
X133900000Y-127100000D03*
X126200000Y-75700000D03*
X136000000Y-93700000D03*
X110100000Y-127500000D03*
X133700000Y-93700000D03*
X124900000Y-110500000D03*
X123500000Y-123600000D03*
X118200000Y-90800000D03*
X123600000Y-115400000D03*
X127700000Y-79700000D03*
X126375000Y-110500000D03*
X132425000Y-129500000D03*
X108800000Y-125100000D03*
X130600000Y-98800000D03*
X107400000Y-124200000D03*
X127100000Y-125800000D03*
X130600000Y-116000000D03*
X121800000Y-85000000D03*
X122350000Y-81200000D03*
X134100000Y-128100000D03*
X127700000Y-77600000D03*
X107400000Y-125300000D03*
X123500000Y-109100000D03*
X131700000Y-116000000D03*
X125000000Y-79700000D03*
X134100000Y-107700000D03*
X123600000Y-114100000D03*
X127100000Y-127700000D03*
X127500000Y-95100000D03*
X131975000Y-100150000D03*
X118800000Y-124900000D03*
X123900000Y-127800000D03*
X130600000Y-100900000D03*
X134900000Y-106700000D03*
X131500000Y-93700000D03*
X126900000Y-89000000D03*
X107967299Y-127462000D03*
X126200000Y-76600000D03*
X133700000Y-92300000D03*
X132600000Y-92300000D03*
X121800000Y-83900000D03*
X126600000Y-95100000D03*
X115300000Y-120000000D03*
X130300000Y-96400000D03*
X133700000Y-129200000D03*
X117200000Y-122300000D03*
X134000000Y-106700000D03*
X123900000Y-125800000D03*
X121900000Y-87050000D03*
X123600000Y-112600000D03*
X127700000Y-81000000D03*
X115300000Y-118800000D03*
X131500000Y-95100000D03*
X129000000Y-116100000D03*
X130300000Y-93700000D03*
X133900000Y-126000000D03*
X124900000Y-81500000D03*
X134900000Y-93700000D03*
X137200000Y-92300000D03*
X125200000Y-115400000D03*
X117100000Y-124700000D03*
X127500000Y-116100000D03*
X123600000Y-111200000D03*
%TO.N,VCC*%
X118750000Y-81000000D03*
X128950000Y-82500000D03*
X139400000Y-85850000D03*
%TO.N,+3V3*%
X124700000Y-119900000D03*
X133300000Y-115900000D03*
%TD*%
D26*
%TO.N,GND*%
X154900000Y-83100000D02*
X155000000Y-83000000D01*
X148100000Y-79300000D02*
X147750000Y-78950000D01*
X147750000Y-78950000D02*
X147750000Y-75500000D01*
X148100000Y-83100000D02*
X154900000Y-83100000D01*
X148100000Y-83100000D02*
X148100000Y-79300000D01*
D27*
%TO.N,VCC*%
X141300000Y-85150000D02*
X140600000Y-85850000D01*
X141300000Y-83100000D02*
X141300000Y-85150000D01*
D26*
X133350000Y-77750000D02*
X133350000Y-75500000D01*
D28*
X120250000Y-82500000D02*
X128950000Y-82500000D01*
D26*
X138700000Y-83100000D02*
X133350000Y-77750000D01*
D27*
X140600000Y-85850000D02*
X139400000Y-85850000D01*
D28*
X118750000Y-81000000D02*
X120250000Y-82500000D01*
D26*
X141300000Y-83100000D02*
X138700000Y-83100000D01*
D28*
%TO.N,+3V3*%
X133300000Y-118900000D02*
X133300000Y-115900000D01*
X132300000Y-119900000D02*
X133300000Y-118900000D01*
X124700000Y-119900000D02*
X132300000Y-119900000D01*
%TD*%
%TA.AperFunction,Conductor*%
%TO.N,GND*%
G36*
X129938000Y-72517113D02*
G01*
X129983387Y-72562500D01*
X130000000Y-72624500D01*
X130000000Y-74139126D01*
X129986903Y-74194593D01*
X129950378Y-74238343D01*
X129898141Y-74261133D01*
X129841227Y-74258150D01*
X129791658Y-74230024D01*
X129660112Y-74107966D01*
X129556629Y-74037413D01*
X129440240Y-73958060D01*
X129440237Y-73958059D01*
X129440235Y-73958057D01*
X129200484Y-73842599D01*
X128946193Y-73764160D01*
X128683055Y-73724500D01*
X128416945Y-73724500D01*
X128153806Y-73764160D01*
X127899518Y-73842599D01*
X127659760Y-73958060D01*
X127439890Y-74107964D01*
X127244817Y-74288966D01*
X127078895Y-74497023D01*
X126945844Y-74727477D01*
X126848623Y-74975192D01*
X126789406Y-75234635D01*
X126769520Y-75500000D01*
X126789406Y-75765364D01*
X126848623Y-76024807D01*
X126945844Y-76272522D01*
X127078895Y-76502976D01*
X127218313Y-76677798D01*
X127244817Y-76711033D01*
X127439890Y-76892035D01*
X127659761Y-77041940D01*
X127899518Y-77157401D01*
X128153806Y-77235839D01*
X128416945Y-77275500D01*
X128683055Y-77275500D01*
X128946194Y-77235839D01*
X129200482Y-77157401D01*
X129440240Y-77041940D01*
X129660110Y-76892035D01*
X129718017Y-76838304D01*
X129791658Y-76769976D01*
X129841227Y-76741850D01*
X129898141Y-76738867D01*
X129950378Y-76761657D01*
X129986903Y-76805407D01*
X130000000Y-76860874D01*
X130000000Y-79376000D01*
X129983387Y-79438000D01*
X129938000Y-79483387D01*
X129876000Y-79500000D01*
X129250000Y-79500000D01*
X129250000Y-81490022D01*
X129237921Y-81543405D01*
X129204036Y-81586388D01*
X129154947Y-81610596D01*
X129100219Y-81611312D01*
X129044648Y-81599500D01*
X129044646Y-81599500D01*
X128855354Y-81599500D01*
X128855352Y-81599500D01*
X128670197Y-81638855D01*
X128497271Y-81715847D01*
X128483550Y-81725817D01*
X128448982Y-81743431D01*
X128410663Y-81749500D01*
X120612230Y-81749500D01*
X120564777Y-81740061D01*
X120524549Y-81713181D01*
X119662771Y-80851403D01*
X119632521Y-80802040D01*
X119577179Y-80631715D01*
X119482533Y-80467783D01*
X119355870Y-80327110D01*
X119202730Y-80215848D01*
X119029802Y-80138855D01*
X118844648Y-80099500D01*
X118844646Y-80099500D01*
X118655354Y-80099500D01*
X118655352Y-80099500D01*
X118470197Y-80138855D01*
X118297269Y-80215848D01*
X118144129Y-80327110D01*
X118017466Y-80467783D01*
X117922820Y-80631715D01*
X117864326Y-80811742D01*
X117844540Y-81000000D01*
X117864326Y-81188257D01*
X117922820Y-81368284D01*
X118017466Y-81532216D01*
X118144129Y-81672889D01*
X118297269Y-81784151D01*
X118470193Y-81861143D01*
X118470196Y-81861143D01*
X118470197Y-81861144D01*
X118535330Y-81874987D01*
X118568716Y-81887304D01*
X118597230Y-81908597D01*
X119674267Y-82985634D01*
X119686048Y-82999266D01*
X119700387Y-83018526D01*
X119700390Y-83018530D01*
X119738355Y-83050386D01*
X119746317Y-83057684D01*
X119750224Y-83061591D01*
X119774542Y-83080819D01*
X119777298Y-83083063D01*
X119834786Y-83131302D01*
X119834788Y-83131303D01*
X119835757Y-83132116D01*
X119852177Y-83142576D01*
X119853321Y-83143109D01*
X119853323Y-83143111D01*
X119921357Y-83174835D01*
X119924456Y-83176335D01*
X119988879Y-83208690D01*
X119992704Y-83210611D01*
X120011084Y-83216998D01*
X120012321Y-83217253D01*
X120012327Y-83217256D01*
X120085862Y-83232439D01*
X120089209Y-83233181D01*
X120162279Y-83250500D01*
X120162281Y-83250500D01*
X120163505Y-83250790D01*
X120182876Y-83252769D01*
X120184140Y-83252732D01*
X120184144Y-83252733D01*
X120259110Y-83250552D01*
X120262716Y-83250500D01*
X128410663Y-83250500D01*
X128448982Y-83256569D01*
X128483550Y-83274183D01*
X128497271Y-83284152D01*
X128670197Y-83361144D01*
X128855352Y-83400500D01*
X128855354Y-83400500D01*
X129044646Y-83400500D01*
X129044648Y-83400500D01*
X129100219Y-83388688D01*
X129154947Y-83389404D01*
X129204036Y-83413612D01*
X129237921Y-83456595D01*
X129250000Y-83509978D01*
X129250000Y-91750000D01*
X137626000Y-91750000D01*
X137688000Y-91766613D01*
X137733387Y-91812000D01*
X137750000Y-91874000D01*
X137750000Y-99500000D01*
X157250000Y-99500000D01*
X157250000Y-90624000D01*
X157266613Y-90562000D01*
X157312000Y-90516613D01*
X157374000Y-90500000D01*
X157624293Y-90500000D01*
X157869493Y-90459083D01*
X158104606Y-90378368D01*
X158323233Y-90260053D01*
X158370056Y-90223609D01*
X157500000Y-89353553D01*
X157146448Y-89000001D01*
X157853553Y-89000001D01*
X158723434Y-89869882D01*
X158823730Y-89716369D01*
X158923586Y-89488721D01*
X158984613Y-89247732D01*
X159005141Y-89000000D01*
X158984613Y-88752267D01*
X158923586Y-88511278D01*
X158823730Y-88283630D01*
X158723434Y-88130116D01*
X157853553Y-89000000D01*
X157853553Y-89000001D01*
X157146448Y-89000001D01*
X156276564Y-88130116D01*
X156176266Y-88283634D01*
X156076411Y-88511283D01*
X156066307Y-88551182D01*
X156034683Y-88607512D01*
X155979019Y-88640291D01*
X155914421Y-88640624D01*
X155858421Y-88608421D01*
X155026390Y-87776390D01*
X156629942Y-87776390D01*
X157500000Y-88646447D01*
X157500001Y-88646447D01*
X158370057Y-87776390D01*
X158370056Y-87776388D01*
X158323235Y-87739947D01*
X158104606Y-87621631D01*
X157869493Y-87540916D01*
X157624293Y-87500000D01*
X157375707Y-87500000D01*
X157130506Y-87540916D01*
X156895393Y-87621631D01*
X156676764Y-87739946D01*
X156629942Y-87776388D01*
X156629942Y-87776390D01*
X155026390Y-87776390D01*
X154036319Y-86786319D01*
X154009439Y-86746091D01*
X154000000Y-86698638D01*
X154000000Y-84602628D01*
X154015472Y-84542647D01*
X154058028Y-84497634D01*
X154117047Y-84478823D01*
X154177802Y-84490908D01*
X154377179Y-84586922D01*
X154620654Y-84662025D01*
X154872603Y-84700000D01*
X155127397Y-84700000D01*
X155379345Y-84662025D01*
X155622823Y-84586921D01*
X155852383Y-84476372D01*
X156013185Y-84366737D01*
X155000000Y-83353553D01*
X154646447Y-83000000D01*
X155353553Y-83000000D01*
X156366545Y-84012993D01*
X156366546Y-84012992D01*
X156408545Y-83960328D01*
X156535942Y-83739669D01*
X156629028Y-83502491D01*
X156685726Y-83254080D01*
X156704767Y-82999999D01*
X156688947Y-82788903D01*
X159264648Y-82788903D01*
X159264649Y-82788904D01*
X159522207Y-82997469D01*
X159847456Y-83208690D01*
X160193009Y-83384757D01*
X160555068Y-83523739D01*
X160929674Y-83624114D01*
X161312711Y-83684780D01*
X161699999Y-83705077D01*
X162087288Y-83684780D01*
X162470325Y-83624114D01*
X162844931Y-83523739D01*
X163206990Y-83384757D01*
X163552543Y-83208690D01*
X163877786Y-82997473D01*
X164135349Y-82788902D01*
X161700000Y-80353553D01*
X159264648Y-82788903D01*
X156688947Y-82788903D01*
X156685726Y-82745919D01*
X156629028Y-82497508D01*
X156535942Y-82260330D01*
X156408545Y-82039671D01*
X156366546Y-81987005D01*
X155353553Y-83000000D01*
X154646447Y-83000000D01*
X153633453Y-81987006D01*
X153591453Y-82039673D01*
X153464057Y-82260331D01*
X153370971Y-82497508D01*
X153314273Y-82745919D01*
X153295232Y-82999999D01*
X153314273Y-83254080D01*
X153370971Y-83502491D01*
X153464057Y-83739669D01*
X153506972Y-83814000D01*
X153523585Y-83876000D01*
X153506972Y-83938000D01*
X153461585Y-83983387D01*
X153399585Y-84000000D01*
X149974000Y-84000000D01*
X149912000Y-83983387D01*
X149866613Y-83938000D01*
X149850000Y-83876000D01*
X149850000Y-83350000D01*
X147974000Y-83350000D01*
X147912000Y-83333387D01*
X147866613Y-83288000D01*
X147850000Y-83226000D01*
X147850000Y-80950001D01*
X147849999Y-80950000D01*
X148350000Y-80950000D01*
X148350000Y-82850000D01*
X149849999Y-82850000D01*
X149849999Y-81650021D01*
X149848287Y-81633261D01*
X153986813Y-81633261D01*
X155000000Y-82646447D01*
X155000001Y-82646447D01*
X156013185Y-81633261D01*
X155852379Y-81523625D01*
X155622823Y-81413078D01*
X155379345Y-81337974D01*
X155127397Y-81300000D01*
X154872603Y-81300000D01*
X154620654Y-81337974D01*
X154377179Y-81413077D01*
X154147615Y-81523628D01*
X153986813Y-81633261D01*
X149848287Y-81633261D01*
X149839506Y-81547304D01*
X149784357Y-81380877D01*
X149692316Y-81231654D01*
X149568345Y-81107683D01*
X149419122Y-81015642D01*
X149252696Y-80960493D01*
X149149979Y-80950000D01*
X148350000Y-80950000D01*
X147849999Y-80950000D01*
X147841215Y-80941216D01*
X147812000Y-80933388D01*
X147766613Y-80888001D01*
X147750000Y-80826001D01*
X147750000Y-80000000D01*
X157994922Y-80000000D01*
X158015219Y-80387288D01*
X158075885Y-80770325D01*
X158176260Y-81144931D01*
X158315242Y-81506990D01*
X158491309Y-81852543D01*
X158702530Y-82177792D01*
X158911095Y-82435350D01*
X158911096Y-82435350D01*
X161346447Y-80000001D01*
X162053553Y-80000001D01*
X164488902Y-82435349D01*
X164697473Y-82177786D01*
X164908690Y-81852543D01*
X165084757Y-81506990D01*
X165223739Y-81144931D01*
X165324114Y-80770325D01*
X165384780Y-80387288D01*
X165405077Y-80000000D01*
X165384780Y-79612711D01*
X165324114Y-79229674D01*
X165223739Y-78855068D01*
X165084757Y-78493009D01*
X164908690Y-78147456D01*
X164697469Y-77822207D01*
X164488904Y-77564649D01*
X164488903Y-77564648D01*
X162053553Y-80000000D01*
X162053553Y-80000001D01*
X161346447Y-80000001D01*
X161346447Y-80000000D01*
X158911096Y-77564648D01*
X158702526Y-77822214D01*
X158491309Y-78147456D01*
X158315242Y-78493009D01*
X158176260Y-78855068D01*
X158075885Y-79229674D01*
X158015219Y-79612711D01*
X157994922Y-80000000D01*
X147750000Y-80000000D01*
X147750000Y-77399000D01*
X147766613Y-77337000D01*
X147812000Y-77291613D01*
X147874000Y-77275000D01*
X147883019Y-77275000D01*
X148146083Y-77235348D01*
X148224707Y-77211096D01*
X159264648Y-77211096D01*
X161700000Y-79646447D01*
X161700001Y-79646447D01*
X164135350Y-77211096D01*
X164135350Y-77211095D01*
X163877792Y-77002530D01*
X163552543Y-76791309D01*
X163206990Y-76615242D01*
X162844931Y-76476260D01*
X162470325Y-76375885D01*
X162087288Y-76315219D01*
X161700000Y-76294922D01*
X161312711Y-76315219D01*
X160929674Y-76375885D01*
X160555068Y-76476260D01*
X160193009Y-76615242D01*
X159847456Y-76791309D01*
X159522214Y-77002526D01*
X159264648Y-77211096D01*
X148224707Y-77211096D01*
X148400297Y-77156934D01*
X148639991Y-77041503D01*
X148817158Y-76920711D01*
X147786319Y-75889872D01*
X147759439Y-75849644D01*
X147750000Y-75802191D01*
X147750000Y-75500001D01*
X148103553Y-75500001D01*
X149169914Y-76566361D01*
X149169915Y-76566360D01*
X149220686Y-76502696D01*
X149353704Y-76272301D01*
X149450897Y-76024659D01*
X149510096Y-75765290D01*
X149529977Y-75500000D01*
X149510096Y-75234709D01*
X149450897Y-74975340D01*
X149353704Y-74727699D01*
X149220684Y-74497300D01*
X149169915Y-74433637D01*
X148103553Y-75500000D01*
X148103553Y-75500001D01*
X147750000Y-75500001D01*
X147750000Y-75197809D01*
X147759439Y-75150356D01*
X147786319Y-75110128D01*
X148817158Y-74079287D01*
X148639986Y-73958493D01*
X148400297Y-73843065D01*
X148146083Y-73764651D01*
X147883019Y-73725000D01*
X147874000Y-73725000D01*
X147812000Y-73708387D01*
X147766613Y-73663000D01*
X147750000Y-73601000D01*
X147750000Y-72624500D01*
X147766613Y-72562500D01*
X147812000Y-72517113D01*
X147874000Y-72500500D01*
X158594587Y-72500500D01*
X158605392Y-72500972D01*
X158617433Y-72502025D01*
X158644880Y-72504426D01*
X158645961Y-72504526D01*
X158771776Y-72516918D01*
X158791685Y-72520541D01*
X158856467Y-72537899D01*
X158860203Y-72538966D01*
X158951570Y-72566682D01*
X158967959Y-72572952D01*
X159033867Y-72603686D01*
X159039867Y-72606685D01*
X159073196Y-72624500D01*
X159119046Y-72649008D01*
X159131715Y-72656791D01*
X159192889Y-72699625D01*
X159200430Y-72705346D01*
X159268455Y-72761172D01*
X159277472Y-72769345D01*
X159330653Y-72822526D01*
X159338826Y-72831543D01*
X159394652Y-72899568D01*
X159400373Y-72907109D01*
X159443207Y-72968283D01*
X159450990Y-72980952D01*
X159493304Y-73060114D01*
X159496328Y-73066163D01*
X159527041Y-73132027D01*
X159533319Y-73148436D01*
X159561008Y-73239713D01*
X159562123Y-73243616D01*
X159579454Y-73308298D01*
X159583082Y-73328238D01*
X159595456Y-73453882D01*
X159595581Y-73455223D01*
X159599028Y-73494604D01*
X159599500Y-73505416D01*
X159599500Y-74087533D01*
X159629583Y-74258150D01*
X159629899Y-74259938D01*
X159659712Y-74341849D01*
X159689776Y-74424447D01*
X159731676Y-74497020D01*
X159777308Y-74576055D01*
X159889837Y-74710163D01*
X160023945Y-74822692D01*
X160125147Y-74881121D01*
X160150826Y-74900826D01*
X160250000Y-75000000D01*
X160498784Y-75000000D01*
X160504502Y-75000500D01*
X160512468Y-75000500D01*
X160599901Y-75000500D01*
X160600000Y-75000500D01*
X160600500Y-75000500D01*
X163095126Y-75000500D01*
X163104853Y-75000882D01*
X163107020Y-75001052D01*
X163124104Y-75002397D01*
X163126450Y-75002605D01*
X163266185Y-75016367D01*
X163282960Y-75019193D01*
X163337235Y-75032223D01*
X163344260Y-75034129D01*
X163441893Y-75063746D01*
X163453344Y-75067844D01*
X163509284Y-75091015D01*
X163520272Y-75096211D01*
X163610282Y-75144322D01*
X163616565Y-75147924D01*
X163664157Y-75177088D01*
X163678019Y-75186953D01*
X163691247Y-75197809D01*
X163723135Y-75223979D01*
X163732151Y-75232151D01*
X166367847Y-77867847D01*
X166376020Y-77876864D01*
X166413037Y-77921970D01*
X166422909Y-77935843D01*
X166452067Y-77983423D01*
X166455699Y-77989761D01*
X166503786Y-78079725D01*
X166508989Y-78090726D01*
X166532152Y-78146647D01*
X166536252Y-78158104D01*
X166565869Y-78255740D01*
X166567782Y-78262788D01*
X166580802Y-78317020D01*
X166583631Y-78333812D01*
X166597390Y-78473503D01*
X166597605Y-78475927D01*
X166599118Y-78495147D01*
X166599500Y-78504878D01*
X166599500Y-99994584D01*
X166599028Y-100005397D01*
X166595581Y-100044776D01*
X166595456Y-100046116D01*
X166583082Y-100171760D01*
X166579454Y-100191700D01*
X166562123Y-100256382D01*
X166561008Y-100260285D01*
X166533319Y-100351562D01*
X166527041Y-100367971D01*
X166496328Y-100433835D01*
X166493304Y-100439884D01*
X166450990Y-100519046D01*
X166443207Y-100531715D01*
X166400373Y-100592889D01*
X166394652Y-100600430D01*
X166338826Y-100668455D01*
X166330653Y-100677472D01*
X166277472Y-100730653D01*
X166268455Y-100738826D01*
X166200430Y-100794652D01*
X166192889Y-100800373D01*
X166131715Y-100843207D01*
X166119046Y-100850990D01*
X166039884Y-100893304D01*
X166033835Y-100896328D01*
X165967971Y-100927041D01*
X165951562Y-100933319D01*
X165860285Y-100961008D01*
X165856382Y-100962123D01*
X165791700Y-100979454D01*
X165771760Y-100983082D01*
X165646116Y-100995456D01*
X165644776Y-100995581D01*
X165609760Y-100998646D01*
X165605392Y-100999028D01*
X165594584Y-100999500D01*
X162512467Y-100999500D01*
X162340064Y-101029898D01*
X162175552Y-101089776D01*
X162023945Y-101177307D01*
X161889837Y-101289837D01*
X161777307Y-101423945D01*
X161689776Y-101575552D01*
X161629898Y-101740064D01*
X161599500Y-101912467D01*
X161599500Y-113087533D01*
X161626965Y-113243302D01*
X161629899Y-113259938D01*
X161689775Y-113424445D01*
X161777308Y-113576055D01*
X161889837Y-113710163D01*
X162023945Y-113822692D01*
X162175555Y-113910225D01*
X162340062Y-113970101D01*
X162420676Y-113984315D01*
X162512467Y-114000500D01*
X162512468Y-114000500D01*
X162599901Y-114000500D01*
X162600000Y-114000500D01*
X162600500Y-114000500D01*
X165594587Y-114000500D01*
X165605392Y-114000972D01*
X165617433Y-114002025D01*
X165644880Y-114004426D01*
X165645961Y-114004526D01*
X165771776Y-114016918D01*
X165791685Y-114020541D01*
X165856467Y-114037899D01*
X165860203Y-114038966D01*
X165951570Y-114066682D01*
X165967959Y-114072952D01*
X166033867Y-114103686D01*
X166039867Y-114106685D01*
X166082639Y-114129548D01*
X166119046Y-114149008D01*
X166131715Y-114156791D01*
X166192889Y-114199625D01*
X166200430Y-114205346D01*
X166268455Y-114261172D01*
X166277472Y-114269345D01*
X166330653Y-114322526D01*
X166338826Y-114331543D01*
X166394652Y-114399568D01*
X166400373Y-114407109D01*
X166443207Y-114468283D01*
X166450990Y-114480952D01*
X166493304Y-114560114D01*
X166496328Y-114566163D01*
X166527041Y-114632027D01*
X166533319Y-114648436D01*
X166561008Y-114739713D01*
X166562123Y-114743616D01*
X166579454Y-114808298D01*
X166583082Y-114828238D01*
X166595456Y-114953882D01*
X166595581Y-114955223D01*
X166599028Y-114994604D01*
X166599500Y-115005416D01*
X166599500Y-136895944D01*
X166599234Y-136904059D01*
X166597063Y-136937162D01*
X166596947Y-136938775D01*
X166582671Y-137120178D01*
X166580670Y-137134641D01*
X166564772Y-137214565D01*
X166563729Y-137219321D01*
X166532682Y-137348642D01*
X166529527Y-137359554D01*
X166500829Y-137444095D01*
X166497971Y-137451689D01*
X166449328Y-137569123D01*
X166445979Y-137576514D01*
X166406495Y-137656580D01*
X166401011Y-137666525D01*
X166331512Y-137779938D01*
X166328886Y-137784040D01*
X166283620Y-137851785D01*
X166274809Y-137863425D01*
X166156706Y-138001707D01*
X166155642Y-138002936D01*
X166133688Y-138027969D01*
X166128142Y-138033890D01*
X157133885Y-147028147D01*
X157127962Y-147033695D01*
X157102928Y-147055649D01*
X157101701Y-147056711D01*
X156963425Y-147174809D01*
X156951784Y-147183621D01*
X156884044Y-147228883D01*
X156879944Y-147231507D01*
X156766518Y-147301015D01*
X156756571Y-147306500D01*
X156676527Y-147345973D01*
X156669136Y-147349322D01*
X156551680Y-147397973D01*
X156544086Y-147400831D01*
X156459565Y-147429522D01*
X156448655Y-147432677D01*
X156319297Y-147463734D01*
X156314541Y-147464777D01*
X156234648Y-147480669D01*
X156220185Y-147482670D01*
X156038755Y-147496949D01*
X156037139Y-147497065D01*
X156004058Y-147499234D01*
X155995945Y-147499500D01*
X110704056Y-147499500D01*
X110695942Y-147499234D01*
X110662837Y-147497063D01*
X110661223Y-147496947D01*
X110479820Y-147482671D01*
X110465357Y-147480670D01*
X110385433Y-147464772D01*
X110380677Y-147463729D01*
X110251356Y-147432682D01*
X110240444Y-147429527D01*
X110155903Y-147400829D01*
X110148309Y-147397971D01*
X110030875Y-147349328D01*
X110023484Y-147345979D01*
X109943418Y-147306495D01*
X109933473Y-147301011D01*
X109820060Y-147231512D01*
X109815958Y-147228886D01*
X109748213Y-147183620D01*
X109736572Y-147174808D01*
X109598260Y-147056678D01*
X109597033Y-147055616D01*
X109572029Y-147033688D01*
X109566107Y-147028141D01*
X100571856Y-138033890D01*
X100566309Y-138027968D01*
X100544359Y-138002939D01*
X100543297Y-138001711D01*
X100425190Y-137863425D01*
X100416384Y-137851793D01*
X100371105Y-137784028D01*
X100368491Y-137779944D01*
X100368487Y-137779938D01*
X100298977Y-137666508D01*
X100293503Y-137656580D01*
X100254017Y-137576511D01*
X100250684Y-137569154D01*
X100202025Y-137451680D01*
X100199167Y-137444086D01*
X100170476Y-137359565D01*
X100167321Y-137348655D01*
X100167318Y-137348642D01*
X100155640Y-137299999D01*
X114994389Y-137299999D01*
X115014804Y-137585429D01*
X115075629Y-137865041D01*
X115075631Y-137865046D01*
X115127061Y-138002936D01*
X115175634Y-138133163D01*
X115312772Y-138384313D01*
X115398517Y-138498854D01*
X115484261Y-138613395D01*
X115686605Y-138815739D01*
X115858415Y-138944354D01*
X115915686Y-138987227D01*
X116055435Y-139063535D01*
X116166839Y-139124367D01*
X116434954Y-139224369D01*
X116434957Y-139224369D01*
X116434958Y-139224370D01*
X116487217Y-139235738D01*
X116714572Y-139285196D01*
X116912068Y-139299321D01*
X116928551Y-139300500D01*
X116928552Y-139300500D01*
X117071448Y-139300500D01*
X117071449Y-139300500D01*
X117086753Y-139299405D01*
X117285428Y-139285196D01*
X117565046Y-139224369D01*
X117833161Y-139124367D01*
X118084315Y-138987226D01*
X118313395Y-138815739D01*
X118515739Y-138613395D01*
X118687226Y-138384315D01*
X118824367Y-138133161D01*
X118924369Y-137865046D01*
X118985196Y-137585428D01*
X119005610Y-137300000D01*
X118985196Y-137014572D01*
X118924369Y-136734954D01*
X118824367Y-136466839D01*
X118687226Y-136215685D01*
X118515739Y-135986605D01*
X118313395Y-135784261D01*
X118198855Y-135698517D01*
X118084313Y-135612772D01*
X117833163Y-135475634D01*
X117833162Y-135475633D01*
X117833161Y-135475633D01*
X117565046Y-135375631D01*
X117565041Y-135375629D01*
X117285429Y-135314804D01*
X117071449Y-135299500D01*
X117071448Y-135299500D01*
X116928552Y-135299500D01*
X116928551Y-135299500D01*
X116714570Y-135314804D01*
X116434958Y-135375629D01*
X116166836Y-135475634D01*
X115915686Y-135612772D01*
X115686602Y-135784263D01*
X115484263Y-135986602D01*
X115312772Y-136215686D01*
X115175634Y-136466836D01*
X115075629Y-136734958D01*
X115014804Y-137014570D01*
X114994389Y-137299999D01*
X100155640Y-137299999D01*
X100136254Y-137219251D01*
X100135231Y-137214588D01*
X100119326Y-137134629D01*
X100117330Y-137120205D01*
X100103042Y-136938662D01*
X100102946Y-136937332D01*
X100100765Y-136904041D01*
X100100500Y-136895935D01*
X100100500Y-133587500D01*
X102762474Y-133587500D01*
X102770427Y-133624914D01*
X102849513Y-133802547D01*
X102963805Y-133959856D01*
X103108303Y-134089963D01*
X103276695Y-134187184D01*
X103461620Y-134247269D01*
X103606528Y-134262500D01*
X103905000Y-134262500D01*
X103905000Y-133587500D01*
X104405000Y-133587500D01*
X104405000Y-134262500D01*
X104703472Y-134262500D01*
X104848379Y-134247269D01*
X105033304Y-134187184D01*
X105201696Y-134089963D01*
X105346193Y-133959856D01*
X105460486Y-133802547D01*
X105539572Y-133624913D01*
X105547526Y-133587500D01*
X104405000Y-133587500D01*
X103905000Y-133587500D01*
X102762474Y-133587500D01*
X100100500Y-133587500D01*
X100100500Y-133087500D01*
X102762474Y-133087500D01*
X103905000Y-133087500D01*
X103905000Y-132412500D01*
X104405000Y-132412500D01*
X104405000Y-133087500D01*
X105547525Y-133087500D01*
X105539572Y-133050085D01*
X105460486Y-132872452D01*
X105346194Y-132715143D01*
X105201696Y-132585036D01*
X105033304Y-132487815D01*
X104848379Y-132427730D01*
X104703472Y-132412500D01*
X104405000Y-132412500D01*
X103905000Y-132412500D01*
X103606528Y-132412500D01*
X103461620Y-132427730D01*
X103276695Y-132487815D01*
X103108303Y-132585036D01*
X102963806Y-132715143D01*
X102849513Y-132872452D01*
X102770427Y-133050086D01*
X102762474Y-133087500D01*
X100100500Y-133087500D01*
X100100500Y-131868238D01*
X103922812Y-131868238D01*
X103922813Y-131868239D01*
X104089138Y-131942292D01*
X104278302Y-131982500D01*
X104471698Y-131982500D01*
X104660861Y-131942292D01*
X104827185Y-131868239D01*
X104827185Y-131868238D01*
X104496817Y-131537869D01*
X111334500Y-131537869D01*
X111340909Y-131597484D01*
X111366056Y-131664906D01*
X111391204Y-131732331D01*
X111477454Y-131847546D01*
X111592669Y-131933796D01*
X111727517Y-131984091D01*
X111787127Y-131990500D01*
X113582872Y-131990499D01*
X113642483Y-131984091D01*
X113777331Y-131933796D01*
X113892546Y-131847546D01*
X113978796Y-131732331D01*
X114027810Y-131600916D01*
X114062789Y-131550537D01*
X114117634Y-131523084D01*
X114178927Y-131525273D01*
X114231673Y-131556569D01*
X114353599Y-131678495D01*
X114547170Y-131814035D01*
X114761337Y-131913903D01*
X114989592Y-131975063D01*
X115225000Y-131995659D01*
X115460408Y-131975063D01*
X115688663Y-131913903D01*
X115902830Y-131814035D01*
X116096401Y-131678495D01*
X116263495Y-131511401D01*
X116399035Y-131317830D01*
X116498903Y-131103663D01*
X116560063Y-130875408D01*
X116580659Y-130640000D01*
X116560063Y-130404592D01*
X116498903Y-130176337D01*
X116399035Y-129962171D01*
X116263495Y-129768599D01*
X116096401Y-129601505D01*
X115910839Y-129471573D01*
X115871974Y-129427255D01*
X115857964Y-129369999D01*
X115871975Y-129312742D01*
X115910837Y-129268428D01*
X116096401Y-129138495D01*
X116263495Y-128971401D01*
X116399035Y-128777830D01*
X116498903Y-128563663D01*
X116560063Y-128335408D01*
X116580659Y-128100000D01*
X116560063Y-127864592D01*
X116498903Y-127636337D01*
X116399035Y-127422171D01*
X116263495Y-127228599D01*
X116096401Y-127061505D01*
X115902830Y-126925965D01*
X115688663Y-126826097D01*
X115627501Y-126809709D01*
X115460407Y-126764936D01*
X115225000Y-126744340D01*
X114989592Y-126764936D01*
X114761336Y-126826097D01*
X114547170Y-126925965D01*
X114353598Y-127061505D01*
X114186508Y-127228595D01*
X114056269Y-127414596D01*
X114011951Y-127453461D01*
X113954694Y-127467472D01*
X113897437Y-127453461D01*
X113853119Y-127414595D01*
X113723109Y-127228921D01*
X113556081Y-127061893D01*
X113362576Y-126926399D01*
X113148492Y-126826569D01*
X112935000Y-126769364D01*
X112935000Y-128226000D01*
X112918387Y-128288000D01*
X112873000Y-128333387D01*
X112811000Y-128350000D01*
X111354364Y-128350000D01*
X111411569Y-128563492D01*
X111511399Y-128777576D01*
X111646893Y-128971081D01*
X111768946Y-129093134D01*
X111800242Y-129145880D01*
X111802431Y-129207173D01*
X111774978Y-129262018D01*
X111724599Y-129296997D01*
X111592669Y-129346204D01*
X111477454Y-129432454D01*
X111391204Y-129547668D01*
X111340909Y-129682516D01*
X111334500Y-129742130D01*
X111334500Y-131537869D01*
X104496817Y-131537869D01*
X104375001Y-131416053D01*
X104375000Y-131416053D01*
X103922812Y-131868238D01*
X100100500Y-131868238D01*
X100100500Y-130412500D01*
X102449430Y-130412500D01*
X102469656Y-130604938D01*
X102529449Y-130788963D01*
X102626197Y-130956536D01*
X102755673Y-131100334D01*
X102912213Y-131214066D01*
X103088985Y-131292770D01*
X103278251Y-131333000D01*
X103405453Y-131333000D01*
X103455888Y-131343720D01*
X103497603Y-131374027D01*
X103523384Y-131418681D01*
X103529908Y-131438760D01*
X103572102Y-131511842D01*
X103572103Y-131511842D01*
X103948248Y-131135697D01*
X103963037Y-131123065D01*
X103994327Y-131100333D01*
X104089042Y-130995140D01*
X104093474Y-130990471D01*
X104287318Y-130796627D01*
X104342905Y-130764533D01*
X104407093Y-130764533D01*
X104462680Y-130796627D01*
X105177895Y-131511843D01*
X105220093Y-131438757D01*
X105279851Y-131254835D01*
X105300067Y-131062499D01*
X105279851Y-130870164D01*
X105220092Y-130686241D01*
X105123396Y-130518758D01*
X105102764Y-130495844D01*
X105074597Y-130442869D01*
X105074598Y-130382871D01*
X105102763Y-130329901D01*
X105123802Y-130306536D01*
X105220550Y-130138963D01*
X105280344Y-129954937D01*
X105300570Y-129762500D01*
X105280344Y-129570063D01*
X105220550Y-129386037D01*
X105220550Y-129386036D01*
X105184248Y-129323160D01*
X105168761Y-129277833D01*
X105171610Y-129230017D01*
X105192369Y-129186849D01*
X105238796Y-129124831D01*
X105289091Y-128989983D01*
X105295500Y-128930373D01*
X105295499Y-127994628D01*
X105289091Y-127935017D01*
X105257382Y-127850000D01*
X111354364Y-127850000D01*
X112435000Y-127850000D01*
X112435000Y-126769364D01*
X112434999Y-126769364D01*
X112221507Y-126826569D01*
X112007421Y-126926400D01*
X111813921Y-127061890D01*
X111646890Y-127228921D01*
X111511400Y-127422421D01*
X111411569Y-127636507D01*
X111354364Y-127849999D01*
X111354364Y-127850000D01*
X105257382Y-127850000D01*
X105238796Y-127800169D01*
X105152546Y-127684954D01*
X105037331Y-127598704D01*
X104902483Y-127548409D01*
X104842873Y-127542000D01*
X104842869Y-127542000D01*
X103907130Y-127542000D01*
X103847515Y-127548409D01*
X103712669Y-127598704D01*
X103597454Y-127684954D01*
X103511204Y-127800168D01*
X103460909Y-127935016D01*
X103454500Y-127994631D01*
X103454500Y-128068000D01*
X103437887Y-128130000D01*
X103392500Y-128175387D01*
X103330500Y-128192000D01*
X103278251Y-128192000D01*
X103088985Y-128232229D01*
X102912213Y-128310933D01*
X102755673Y-128424665D01*
X102626197Y-128568463D01*
X102529449Y-128736036D01*
X102469656Y-128920061D01*
X102449430Y-129112500D01*
X102469656Y-129304938D01*
X102529449Y-129488963D01*
X102626197Y-129656536D01*
X102646900Y-129679529D01*
X102675066Y-129732502D01*
X102675066Y-129792498D01*
X102646900Y-129845471D01*
X102626197Y-129868463D01*
X102529449Y-130036036D01*
X102469656Y-130220061D01*
X102449430Y-130412500D01*
X100100500Y-130412500D01*
X100100500Y-126437500D01*
X102762474Y-126437500D01*
X102770427Y-126474914D01*
X102849513Y-126652547D01*
X102963805Y-126809856D01*
X103108303Y-126939963D01*
X103276695Y-127037184D01*
X103461620Y-127097269D01*
X103606528Y-127112500D01*
X103905000Y-127112500D01*
X103905000Y-126437500D01*
X104405000Y-126437500D01*
X104405000Y-127112500D01*
X104703472Y-127112500D01*
X104848379Y-127097269D01*
X105033304Y-127037184D01*
X105201696Y-126939963D01*
X105346193Y-126809856D01*
X105460486Y-126652547D01*
X105539572Y-126474913D01*
X105547526Y-126437500D01*
X104405000Y-126437500D01*
X103905000Y-126437500D01*
X102762474Y-126437500D01*
X100100500Y-126437500D01*
X100100500Y-125937500D01*
X102762474Y-125937500D01*
X103905000Y-125937500D01*
X103905000Y-125262500D01*
X104405000Y-125262500D01*
X104405000Y-125937500D01*
X105547525Y-125937500D01*
X105539572Y-125900085D01*
X105460486Y-125722452D01*
X105346194Y-125565143D01*
X105201696Y-125435036D01*
X105033304Y-125337815D01*
X104848379Y-125277730D01*
X104703472Y-125262500D01*
X104405000Y-125262500D01*
X103905000Y-125262500D01*
X103606528Y-125262500D01*
X103461620Y-125277730D01*
X103276695Y-125337815D01*
X103108303Y-125435036D01*
X102963806Y-125565143D01*
X102849513Y-125722452D01*
X102770427Y-125900086D01*
X102762474Y-125937500D01*
X100100500Y-125937500D01*
X100100500Y-119899999D01*
X123794540Y-119899999D01*
X123814326Y-120088257D01*
X123872820Y-120268284D01*
X123967466Y-120432216D01*
X124094129Y-120572889D01*
X124247269Y-120684151D01*
X124420197Y-120761144D01*
X124605352Y-120800500D01*
X124605354Y-120800500D01*
X124794646Y-120800500D01*
X124794648Y-120800500D01*
X124918083Y-120774262D01*
X124979803Y-120761144D01*
X125152730Y-120684151D01*
X125166449Y-120674183D01*
X125201018Y-120656569D01*
X125239337Y-120650500D01*
X132236294Y-120650500D01*
X132254264Y-120651809D01*
X132258320Y-120652402D01*
X132278023Y-120655289D01*
X132327368Y-120650972D01*
X132338176Y-120650500D01*
X132343706Y-120650500D01*
X132343709Y-120650500D01*
X132374550Y-120646894D01*
X132378031Y-120646539D01*
X132452797Y-120639999D01*
X132452797Y-120639998D01*
X132454052Y-120639889D01*
X132473062Y-120635674D01*
X132474250Y-120635241D01*
X132474255Y-120635241D01*
X132544820Y-120609557D01*
X132548095Y-120608419D01*
X132619334Y-120584814D01*
X132619336Y-120584812D01*
X132620536Y-120584415D01*
X132638063Y-120575929D01*
X132639112Y-120575238D01*
X132639117Y-120575237D01*
X132701806Y-120534005D01*
X132704798Y-120532099D01*
X132768656Y-120492712D01*
X132768658Y-120492709D01*
X132769731Y-120492048D01*
X132784817Y-120479760D01*
X132785691Y-120478832D01*
X132785696Y-120478830D01*
X132837217Y-120424218D01*
X132839632Y-120421733D01*
X133785641Y-119475725D01*
X133799258Y-119463957D01*
X133818530Y-119449610D01*
X133850384Y-119411647D01*
X133857671Y-119403694D01*
X133861591Y-119399776D01*
X133880820Y-119375454D01*
X133883077Y-119372685D01*
X133931302Y-119315214D01*
X133931303Y-119315211D01*
X133932115Y-119314244D01*
X133942573Y-119297828D01*
X133943107Y-119296680D01*
X133943111Y-119296677D01*
X133974845Y-119228621D01*
X133976371Y-119225470D01*
X134010040Y-119158433D01*
X134010040Y-119158431D01*
X134010609Y-119157299D01*
X134017002Y-119138906D01*
X134032431Y-119064184D01*
X134033212Y-119060660D01*
X134050791Y-118986493D01*
X134052770Y-118967120D01*
X134052733Y-118965858D01*
X134052734Y-118965855D01*
X134050552Y-118890868D01*
X134050500Y-118887262D01*
X134050500Y-116434322D01*
X134067113Y-116372322D01*
X134127179Y-116268284D01*
X134127178Y-116268284D01*
X134185674Y-116088256D01*
X134205460Y-115900000D01*
X134185674Y-115711744D01*
X134127179Y-115531716D01*
X134127179Y-115531715D01*
X134032533Y-115367783D01*
X133905870Y-115227110D01*
X133752730Y-115115848D01*
X133579802Y-115038855D01*
X133396996Y-114999999D01*
X140894459Y-114999999D01*
X140914610Y-115448688D01*
X140914611Y-115448693D01*
X140950243Y-115711744D01*
X140974902Y-115893778D01*
X141074844Y-116331656D01*
X141212949Y-116756698D01*
X141213639Y-116758821D01*
X141389044Y-117169202D01*
X141390165Y-117171824D01*
X141603002Y-117567342D01*
X141848089Y-117938632D01*
X141850433Y-117942183D01*
X142130471Y-118293339D01*
X142440858Y-118617979D01*
X142440863Y-118617983D01*
X142779097Y-118913490D01*
X143053949Y-119113181D01*
X143142463Y-119177490D01*
X143528031Y-119407856D01*
X143932697Y-119602733D01*
X144353203Y-119760551D01*
X144353206Y-119760552D01*
X144786162Y-119880041D01*
X145195104Y-119954253D01*
X145228090Y-119960239D01*
X145675427Y-120000500D01*
X146124571Y-120000500D01*
X146124573Y-120000500D01*
X146571910Y-119960239D01*
X147013837Y-119880041D01*
X147446797Y-119760551D01*
X147867303Y-119602733D01*
X148271969Y-119407856D01*
X148657537Y-119177490D01*
X149020903Y-118913489D01*
X149359142Y-118617979D01*
X149669529Y-118293339D01*
X149949567Y-117942183D01*
X150197000Y-117567338D01*
X150409836Y-117171822D01*
X150586361Y-116758821D01*
X150725155Y-116331658D01*
X150825099Y-115893774D01*
X150885389Y-115448693D01*
X150905540Y-115000000D01*
X150885389Y-114551307D01*
X150825099Y-114106226D01*
X150725155Y-113668342D01*
X150586361Y-113241179D01*
X150409836Y-112828178D01*
X150197000Y-112432662D01*
X149949567Y-112057817D01*
X149669529Y-111706661D01*
X149359142Y-111382021D01*
X149299309Y-111329747D01*
X149020902Y-111086509D01*
X148657544Y-110822515D01*
X148657543Y-110822514D01*
X148657537Y-110822510D01*
X148271969Y-110592144D01*
X147867303Y-110397267D01*
X147657050Y-110318358D01*
X147446793Y-110239447D01*
X147013837Y-110119958D01*
X146571915Y-110039761D01*
X146252383Y-110011003D01*
X146124573Y-109999500D01*
X145675427Y-109999500D01*
X145608384Y-110005534D01*
X145228084Y-110039761D01*
X144786162Y-110119958D01*
X144353206Y-110239447D01*
X143932692Y-110397269D01*
X143528040Y-110592139D01*
X143528034Y-110592142D01*
X143528031Y-110592144D01*
X143142463Y-110822510D01*
X143142455Y-110822515D01*
X142779097Y-111086509D01*
X142440863Y-111382016D01*
X142130468Y-111706664D01*
X141850431Y-112057819D01*
X141603002Y-112432657D01*
X141390165Y-112828175D01*
X141213637Y-113241184D01*
X141074844Y-113668343D01*
X140982494Y-114072957D01*
X140974901Y-114106226D01*
X140957547Y-114234339D01*
X140914610Y-114551311D01*
X140894459Y-114999999D01*
X133396996Y-114999999D01*
X133394648Y-114999500D01*
X133394646Y-114999500D01*
X133205354Y-114999500D01*
X133205352Y-114999500D01*
X133020197Y-115038855D01*
X132847269Y-115115848D01*
X132694129Y-115227110D01*
X132567466Y-115367783D01*
X132472820Y-115531715D01*
X132414326Y-115711742D01*
X132394540Y-115899999D01*
X132414326Y-116088257D01*
X132472820Y-116268284D01*
X132532887Y-116372322D01*
X132549500Y-116434322D01*
X132549500Y-118537771D01*
X132540061Y-118585224D01*
X132513181Y-118625452D01*
X132025451Y-119113181D01*
X131985223Y-119140061D01*
X131937770Y-119149500D01*
X125239337Y-119149500D01*
X125201018Y-119143431D01*
X125166450Y-119125817D01*
X125152728Y-119115847D01*
X124979802Y-119038855D01*
X124794648Y-118999500D01*
X124794646Y-118999500D01*
X124605354Y-118999500D01*
X124605352Y-118999500D01*
X124420197Y-119038855D01*
X124247269Y-119115848D01*
X124094129Y-119227110D01*
X123967466Y-119367783D01*
X123872820Y-119531715D01*
X123814326Y-119711742D01*
X123794540Y-119899999D01*
X100100500Y-119899999D01*
X100100500Y-107300000D01*
X114994389Y-107300000D01*
X115014804Y-107585429D01*
X115075629Y-107865041D01*
X115175634Y-108133163D01*
X115312772Y-108384313D01*
X115398517Y-108498855D01*
X115484261Y-108613395D01*
X115686605Y-108815739D01*
X115858415Y-108944354D01*
X115915686Y-108987227D01*
X116055435Y-109063535D01*
X116166839Y-109124367D01*
X116434954Y-109224369D01*
X116434957Y-109224369D01*
X116434958Y-109224370D01*
X116487217Y-109235738D01*
X116714572Y-109285196D01*
X116912068Y-109299321D01*
X116928551Y-109300500D01*
X116928552Y-109300500D01*
X117071448Y-109300500D01*
X117071449Y-109300500D01*
X117086753Y-109299405D01*
X117285428Y-109285196D01*
X117565046Y-109224369D01*
X117833161Y-109124367D01*
X118084315Y-108987226D01*
X118313395Y-108815739D01*
X118515739Y-108613395D01*
X118687226Y-108384315D01*
X118824367Y-108133161D01*
X118924369Y-107865046D01*
X118985196Y-107585428D01*
X119005610Y-107300000D01*
X118985196Y-107014572D01*
X118924369Y-106734954D01*
X118824367Y-106466839D01*
X118687226Y-106215685D01*
X118515739Y-105986605D01*
X118313395Y-105784261D01*
X118198854Y-105698517D01*
X118084313Y-105612772D01*
X117833163Y-105475634D01*
X117833162Y-105475633D01*
X117833161Y-105475633D01*
X117565046Y-105375631D01*
X117565041Y-105375629D01*
X117285429Y-105314804D01*
X117071449Y-105299500D01*
X117071448Y-105299500D01*
X116928552Y-105299500D01*
X116928551Y-105299500D01*
X116714570Y-105314804D01*
X116434958Y-105375629D01*
X116166836Y-105475634D01*
X115915686Y-105612772D01*
X115686602Y-105784263D01*
X115484263Y-105986602D01*
X115312772Y-106215686D01*
X115175634Y-106466836D01*
X115075629Y-106734958D01*
X115014804Y-107014570D01*
X114994389Y-107300000D01*
X100100500Y-107300000D01*
X100100500Y-82788903D01*
X102564648Y-82788903D01*
X102564649Y-82788904D01*
X102822207Y-82997469D01*
X103147456Y-83208690D01*
X103493009Y-83384757D01*
X103855068Y-83523739D01*
X104229674Y-83624114D01*
X104612711Y-83684780D01*
X104999999Y-83705077D01*
X105387288Y-83684780D01*
X105770325Y-83624114D01*
X106144931Y-83523739D01*
X106506990Y-83384757D01*
X106852543Y-83208690D01*
X107177786Y-82997473D01*
X107435349Y-82788902D01*
X105000000Y-80353553D01*
X102564648Y-82788903D01*
X100100500Y-82788903D01*
X100100500Y-80000000D01*
X101294922Y-80000000D01*
X101315219Y-80387288D01*
X101375885Y-80770325D01*
X101476260Y-81144931D01*
X101615242Y-81506990D01*
X101791309Y-81852543D01*
X102002530Y-82177792D01*
X102211095Y-82435350D01*
X102211096Y-82435350D01*
X104646447Y-80000001D01*
X104646447Y-80000000D01*
X105353553Y-80000000D01*
X107788902Y-82435349D01*
X107997473Y-82177786D01*
X108208690Y-81852543D01*
X108384757Y-81506990D01*
X108523739Y-81144931D01*
X108624114Y-80770325D01*
X108684780Y-80387288D01*
X108705077Y-80000000D01*
X108684780Y-79612711D01*
X108624114Y-79229674D01*
X108523739Y-78855068D01*
X108384757Y-78493009D01*
X108208690Y-78147456D01*
X107997469Y-77822207D01*
X107788904Y-77564649D01*
X107788903Y-77564648D01*
X105353553Y-80000000D01*
X104646447Y-80000000D01*
X102211096Y-77564648D01*
X102002526Y-77822214D01*
X101791309Y-78147456D01*
X101615242Y-78493009D01*
X101476260Y-78855068D01*
X101375885Y-79229674D01*
X101315219Y-79612711D01*
X101294922Y-80000000D01*
X100100500Y-80000000D01*
X100100500Y-78504874D01*
X100100882Y-78495148D01*
X100102394Y-78475930D01*
X100102395Y-78475927D01*
X100102397Y-78475885D01*
X100102603Y-78473566D01*
X100116367Y-78333809D01*
X100119191Y-78317044D01*
X100132227Y-78262747D01*
X100134124Y-78255756D01*
X100163750Y-78158093D01*
X100167839Y-78146667D01*
X100191020Y-78090702D01*
X100196212Y-78079725D01*
X100217328Y-78040218D01*
X100239000Y-78010998D01*
X101038902Y-77211096D01*
X102564648Y-77211096D01*
X105000000Y-79646447D01*
X105000001Y-79646447D01*
X107435350Y-77211096D01*
X107435350Y-77211095D01*
X107177792Y-77002530D01*
X106852543Y-76791309D01*
X106506990Y-76615242D01*
X106402182Y-76575010D01*
X117174500Y-76575010D01*
X117185000Y-76677798D01*
X117240186Y-76844335D01*
X117332288Y-76993657D01*
X117456342Y-77117711D01*
X117456344Y-77117712D01*
X117605665Y-77209814D01*
X117717015Y-77246712D01*
X117772201Y-77264999D01*
X117874990Y-77275500D01*
X120025010Y-77275500D01*
X120127798Y-77264999D01*
X120127798Y-77264998D01*
X120294335Y-77209814D01*
X120443656Y-77117712D01*
X120567712Y-76993656D01*
X120659814Y-76844335D01*
X120714999Y-76677798D01*
X120725500Y-76575010D01*
X120725500Y-75500000D01*
X121969520Y-75500000D01*
X121989406Y-75765364D01*
X122048623Y-76024807D01*
X122145844Y-76272522D01*
X122278895Y-76502976D01*
X122418313Y-76677798D01*
X122444817Y-76711033D01*
X122639890Y-76892035D01*
X122859761Y-77041940D01*
X123099518Y-77157401D01*
X123353806Y-77235839D01*
X123616945Y-77275500D01*
X123883055Y-77275500D01*
X124146194Y-77235839D01*
X124400482Y-77157401D01*
X124640240Y-77041940D01*
X124860110Y-76892035D01*
X125055183Y-76711033D01*
X125221101Y-76502980D01*
X125221101Y-76502979D01*
X125221104Y-76502976D01*
X125354155Y-76272522D01*
X125354156Y-76272521D01*
X125451377Y-76024805D01*
X125510593Y-75765367D01*
X125530479Y-75500000D01*
X125510593Y-75234633D01*
X125451377Y-74975195D01*
X125425877Y-74910223D01*
X125354155Y-74727477D01*
X125221104Y-74497023D01*
X125055182Y-74288966D01*
X124860112Y-74107966D01*
X124756629Y-74037413D01*
X124640240Y-73958060D01*
X124640237Y-73958059D01*
X124640235Y-73958057D01*
X124400484Y-73842599D01*
X124146193Y-73764160D01*
X123883055Y-73724500D01*
X123616945Y-73724500D01*
X123353806Y-73764160D01*
X123099518Y-73842599D01*
X122859760Y-73958060D01*
X122639890Y-74107964D01*
X122444817Y-74288966D01*
X122278895Y-74497023D01*
X122145844Y-74727477D01*
X122048623Y-74975192D01*
X121989406Y-75234635D01*
X121969520Y-75500000D01*
X120725500Y-75500000D01*
X120725500Y-74424990D01*
X120714999Y-74322202D01*
X120659814Y-74155665D01*
X120567712Y-74006344D01*
X120567711Y-74006342D01*
X120443657Y-73882288D01*
X120294335Y-73790186D01*
X120127798Y-73735000D01*
X120025010Y-73724500D01*
X117874990Y-73724500D01*
X117772201Y-73735000D01*
X117605664Y-73790186D01*
X117456342Y-73882288D01*
X117332288Y-74006342D01*
X117240186Y-74155664D01*
X117185000Y-74322201D01*
X117174500Y-74424990D01*
X117174500Y-76575010D01*
X106402182Y-76575010D01*
X106144931Y-76476260D01*
X105770325Y-76375885D01*
X105387288Y-76315219D01*
X105000000Y-76294922D01*
X104612711Y-76315219D01*
X104229674Y-76375885D01*
X103855068Y-76476260D01*
X103493009Y-76615242D01*
X103147456Y-76791309D01*
X102822214Y-77002526D01*
X102564648Y-77211096D01*
X101038902Y-77211096D01*
X103110997Y-75139001D01*
X103140222Y-75117327D01*
X103163200Y-75105044D01*
X103179724Y-75096212D01*
X103190698Y-75091021D01*
X103246675Y-75067835D01*
X103258083Y-75063753D01*
X103355782Y-75034117D01*
X103362737Y-75032229D01*
X103417044Y-75019191D01*
X103433795Y-75016370D01*
X103573611Y-75002599D01*
X103575871Y-75002399D01*
X103595146Y-75000881D01*
X103604871Y-75000500D01*
X106187533Y-75000500D01*
X106230633Y-74992900D01*
X106359938Y-74970101D01*
X106524445Y-74910225D01*
X106676055Y-74822692D01*
X106810163Y-74710163D01*
X106922692Y-74576055D01*
X107010225Y-74424445D01*
X107070101Y-74259938D01*
X107100500Y-74087532D01*
X107100500Y-74000000D01*
X107100500Y-73999500D01*
X107100500Y-73505412D01*
X107100972Y-73494605D01*
X107104415Y-73455250D01*
X107104540Y-73453904D01*
X107104542Y-73453882D01*
X107116918Y-73328221D01*
X107120540Y-73308318D01*
X107137908Y-73243498D01*
X107138956Y-73239828D01*
X107166685Y-73148419D01*
X107172948Y-73132049D01*
X107203700Y-73066102D01*
X107206670Y-73060161D01*
X107249012Y-72980944D01*
X107256786Y-72968289D01*
X107299639Y-72907089D01*
X107305330Y-72899587D01*
X107361191Y-72831521D01*
X107369325Y-72822547D01*
X107422547Y-72769325D01*
X107431521Y-72761191D01*
X107499587Y-72705330D01*
X107507089Y-72699639D01*
X107568289Y-72656786D01*
X107580944Y-72649012D01*
X107660161Y-72606670D01*
X107666102Y-72603700D01*
X107732049Y-72572948D01*
X107748419Y-72566685D01*
X107839828Y-72538956D01*
X107843498Y-72537908D01*
X107908318Y-72520540D01*
X107928221Y-72516918D01*
X108053927Y-72504537D01*
X108055204Y-72504419D01*
X108094605Y-72500971D01*
X108105412Y-72500500D01*
X129876000Y-72500500D01*
X129938000Y-72517113D01*
G37*
%TD.AperFunction*%
%TD*%
M02*
