%TF.GenerationSoftware,KiCad,Pcbnew,7.0.1*%
%TF.CreationDate,2024-04-13T10:55:35+02:00*%
%TF.ProjectId,Zuendung,5a75656e-6475-46e6-972e-6b696361645f,rev?*%
%TF.SameCoordinates,Original*%
%TF.FileFunction,Soldermask,Top*%
%TF.FilePolarity,Negative*%
%FSLAX46Y46*%
G04 Gerber Fmt 4.6, Leading zero omitted, Abs format (unit mm)*
G04 Created by KiCad (PCBNEW 7.0.1) date 2024-04-13 10:55:35*
%MOMM*%
%LPD*%
G01*
G04 APERTURE LIST*
G04 Aperture macros list*
%AMRoundRect*
0 Rectangle with rounded corners*
0 $1 Rounding radius*
0 $2 $3 $4 $5 $6 $7 $8 $9 X,Y pos of 4 corners*
0 Add a 4 corners polygon primitive as box body*
4,1,4,$2,$3,$4,$5,$6,$7,$8,$9,$2,$3,0*
0 Add four circle primitives for the rounded corners*
1,1,$1+$1,$2,$3*
1,1,$1+$1,$4,$5*
1,1,$1+$1,$6,$7*
1,1,$1+$1,$8,$9*
0 Add four rect primitives between the rounded corners*
20,1,$1+$1,$2,$3,$4,$5,0*
20,1,$1+$1,$4,$5,$6,$7,0*
20,1,$1+$1,$6,$7,$8,$9,0*
20,1,$1+$1,$8,$9,$2,$3,0*%
%AMFreePoly0*
4,1,9,3.862500,-0.866500,0.737500,-0.866500,0.737500,-0.450000,-0.737500,-0.450000,-0.737500,0.450000,0.737500,0.450000,0.737500,0.866500,3.862500,0.866500,3.862500,-0.866500,3.862500,-0.866500,$1*%
G04 Aperture macros list end*
%ADD10RoundRect,0.150000X-0.512500X-0.150000X0.512500X-0.150000X0.512500X0.150000X-0.512500X0.150000X0*%
%ADD11RoundRect,0.225000X-0.250000X0.225000X-0.250000X-0.225000X0.250000X-0.225000X0.250000X0.225000X0*%
%ADD12R,1.700000X1.700000*%
%ADD13O,1.700000X1.700000*%
%ADD14RoundRect,0.150000X0.512500X0.150000X-0.512500X0.150000X-0.512500X-0.150000X0.512500X-0.150000X0*%
%ADD15RoundRect,0.225000X0.250000X-0.225000X0.250000X0.225000X-0.250000X0.225000X-0.250000X-0.225000X0*%
%ADD16RoundRect,0.200000X0.200000X0.275000X-0.200000X0.275000X-0.200000X-0.275000X0.200000X-0.275000X0*%
%ADD17C,3.500000*%
%ADD18RoundRect,0.249999X-1.025001X-1.025001X1.025001X-1.025001X1.025001X1.025001X-1.025001X1.025001X0*%
%ADD19C,2.550000*%
%ADD20RoundRect,0.250000X-0.475000X0.250000X-0.475000X-0.250000X0.475000X-0.250000X0.475000X0.250000X0*%
%ADD21RoundRect,0.225000X-0.375000X0.225000X-0.375000X-0.225000X0.375000X-0.225000X0.375000X0.225000X0*%
%ADD22R,2.500000X4.500000*%
%ADD23O,2.500000X4.500000*%
%ADD24R,1.300000X0.900000*%
%ADD25FreePoly0,180.000000*%
%ADD26RoundRect,0.150000X-0.150000X0.512500X-0.150000X-0.512500X0.150000X-0.512500X0.150000X0.512500X0*%
%ADD27RoundRect,0.225000X-0.225000X-0.250000X0.225000X-0.250000X0.225000X0.250000X-0.225000X0.250000X0*%
%ADD28RoundRect,0.250000X0.325000X0.650000X-0.325000X0.650000X-0.325000X-0.650000X0.325000X-0.650000X0*%
%ADD29RoundRect,0.250000X0.250000X0.475000X-0.250000X0.475000X-0.250000X-0.475000X0.250000X-0.475000X0*%
%ADD30RoundRect,0.250000X0.400000X0.450000X-0.400000X0.450000X-0.400000X-0.450000X0.400000X-0.450000X0*%
%ADD31RoundRect,0.200000X-0.200000X-0.275000X0.200000X-0.275000X0.200000X0.275000X-0.200000X0.275000X0*%
%ADD32C,2.000000*%
%ADD33RoundRect,0.200000X0.275000X-0.200000X0.275000X0.200000X-0.275000X0.200000X-0.275000X-0.200000X0*%
%ADD34C,0.800000*%
%ADD35C,6.400000*%
%ADD36RoundRect,0.250000X-0.250000X-0.475000X0.250000X-0.475000X0.250000X0.475000X-0.250000X0.475000X0*%
%ADD37R,0.840000X0.840000*%
%ADD38C,0.840000*%
%ADD39O,1.850000X0.850000*%
%ADD40RoundRect,0.225000X0.225000X0.250000X-0.225000X0.250000X-0.225000X-0.250000X0.225000X-0.250000X0*%
%ADD41C,2.400000*%
%ADD42O,2.400000X2.400000*%
%ADD43RoundRect,0.200000X-0.275000X0.200000X-0.275000X-0.200000X0.275000X-0.200000X0.275000X0.200000X0*%
%ADD44RoundRect,0.250000X-0.400000X-0.450000X0.400000X-0.450000X0.400000X0.450000X-0.400000X0.450000X0*%
%ADD45RoundRect,0.125000X0.625000X0.125000X-0.625000X0.125000X-0.625000X-0.125000X0.625000X-0.125000X0*%
%ADD46RoundRect,0.125000X0.125000X0.625000X-0.125000X0.625000X-0.125000X-0.625000X0.125000X-0.625000X0*%
%ADD47R,1.200000X3.300000*%
%ADD48RoundRect,0.150000X0.150000X-0.587500X0.150000X0.587500X-0.150000X0.587500X-0.150000X-0.587500X0*%
%ADD49RoundRect,0.150000X0.587500X0.150000X-0.587500X0.150000X-0.587500X-0.150000X0.587500X-0.150000X0*%
%ADD50RoundRect,0.250000X0.625000X-0.312500X0.625000X0.312500X-0.625000X0.312500X-0.625000X-0.312500X0*%
%ADD51RoundRect,0.250000X0.312500X0.625000X-0.312500X0.625000X-0.312500X-0.625000X0.312500X-0.625000X0*%
G04 APERTURE END LIST*
D10*
%TO.C,U5*%
X132500000Y-101800000D03*
X132500000Y-102750000D03*
X132500000Y-103700000D03*
X134775000Y-103700000D03*
X134775000Y-101800000D03*
%TD*%
D11*
%TO.C,C11*%
X120125000Y-120425000D03*
X120125000Y-121975000D03*
%TD*%
D12*
%TO.C,J2*%
X112685000Y-130640000D03*
D13*
X112685000Y-128100000D03*
X115225000Y-130640000D03*
X115225000Y-128100000D03*
%TD*%
D14*
%TO.C,U1*%
X130787500Y-109050000D03*
X130787500Y-108100000D03*
X130787500Y-107150000D03*
X128512500Y-107150000D03*
X128512500Y-109050000D03*
%TD*%
D15*
%TO.C,C2*%
X132650000Y-108875000D03*
X132650000Y-107325000D03*
%TD*%
D16*
%TO.C,R11*%
X128350000Y-132700000D03*
X126700000Y-132700000D03*
%TD*%
D17*
%TO.C,H4*%
X117000000Y-137300000D03*
%TD*%
D18*
%TO.C,J5*%
X138150000Y-75500000D03*
D19*
X142950000Y-75500000D03*
X147750000Y-75500000D03*
%TD*%
D20*
%TO.C,C3*%
X125900000Y-84200000D03*
X125900000Y-86100000D03*
%TD*%
D21*
%TO.C,D2*%
X123675000Y-82850000D03*
X123675000Y-86150000D03*
%TD*%
D22*
%TO.C,Q3*%
X151350000Y-96000000D03*
D23*
X145900000Y-96000000D03*
X140450000Y-96000000D03*
%TD*%
D24*
%TO.C,U2*%
X113950000Y-124400000D03*
D25*
X113862500Y-122900000D03*
D24*
X113950000Y-121400000D03*
%TD*%
D26*
%TO.C,U3*%
X108925000Y-128725000D03*
X107975000Y-128725000D03*
X107025000Y-128725000D03*
X107025000Y-131000000D03*
X107975000Y-131000000D03*
X108925000Y-131000000D03*
%TD*%
D27*
%TO.C,C12*%
X121650000Y-119900000D03*
X123200000Y-119900000D03*
%TD*%
D28*
%TO.C,C16*%
X129175000Y-78500000D03*
X126225000Y-78500000D03*
%TD*%
D29*
%TO.C,C19*%
X135000000Y-98400000D03*
X133100000Y-98400000D03*
%TD*%
D30*
%TO.C,D1*%
X128100000Y-112600000D03*
X125200000Y-112600000D03*
%TD*%
D31*
%TO.C,R15*%
X138025000Y-105200000D03*
X139675000Y-105200000D03*
%TD*%
D27*
%TO.C,C5*%
X123100000Y-93600000D03*
X124650000Y-93600000D03*
%TD*%
D32*
%TO.C,C8*%
X157500000Y-89000000D03*
X150000000Y-89000000D03*
%TD*%
D33*
%TO.C,R4*%
X118200000Y-93700000D03*
X118200000Y-92050000D03*
%TD*%
D34*
%TO.C,H1*%
X102600000Y-80000000D03*
X103302944Y-78302944D03*
X103302944Y-81697056D03*
X105000000Y-77600000D03*
D35*
X105000000Y-80000000D03*
D34*
X105000000Y-82400000D03*
X106697056Y-78302944D03*
X106697056Y-81697056D03*
X107400000Y-80000000D03*
%TD*%
D16*
%TO.C,R12*%
X139675000Y-102200000D03*
X138025000Y-102200000D03*
%TD*%
D17*
%TO.C,H3*%
X117000000Y-107300000D03*
%TD*%
D16*
%TO.C,R16*%
X130450000Y-103050000D03*
X128800000Y-103050000D03*
%TD*%
D31*
%TO.C,R1*%
X128825000Y-104600000D03*
X130475000Y-104600000D03*
%TD*%
D36*
%TO.C,C6*%
X123100000Y-95400000D03*
X125000000Y-95400000D03*
%TD*%
D16*
%TO.C,R13*%
X139675000Y-103700000D03*
X138025000Y-103700000D03*
%TD*%
D37*
%TO.C,J3*%
X104375000Y-128462500D03*
D38*
X103375000Y-129112500D03*
X104375000Y-129762500D03*
X103375000Y-130412500D03*
X104375000Y-131062500D03*
D39*
X104155000Y-126187500D03*
X104155000Y-133337500D03*
%TD*%
D40*
%TO.C,C20*%
X135000000Y-100200000D03*
X133450000Y-100200000D03*
%TD*%
D41*
%TO.C,R6*%
X147000000Y-89000000D03*
D42*
X131760000Y-89000000D03*
%TD*%
D21*
%TO.C,D3*%
X120000000Y-82850000D03*
X120000000Y-86150000D03*
%TD*%
D43*
%TO.C,R3*%
X119800000Y-92050000D03*
X119800000Y-93700000D03*
%TD*%
D31*
%TO.C,R7*%
X138025000Y-100700000D03*
X139675000Y-100700000D03*
%TD*%
D18*
%TO.C,J1*%
X118950000Y-75500000D03*
D19*
X123750000Y-75500000D03*
X128550000Y-75500000D03*
X133350000Y-75500000D03*
%TD*%
D44*
%TO.C,D4*%
X110750000Y-119100000D03*
X113650000Y-119100000D03*
%TD*%
D33*
%TO.C,R10*%
X130825000Y-128225000D03*
X130825000Y-126575000D03*
%TD*%
D27*
%TO.C,C10*%
X128950000Y-130700000D03*
X130500000Y-130700000D03*
%TD*%
D45*
%TO.C,U4*%
X128900000Y-128925000D03*
X128900000Y-128125000D03*
X128900000Y-127325000D03*
X128900000Y-126525000D03*
X128900000Y-125725000D03*
X128900000Y-124925000D03*
X128900000Y-124125000D03*
X128900000Y-123325000D03*
D46*
X127525000Y-121950000D03*
X126725000Y-121950000D03*
X125925000Y-121950000D03*
X125125000Y-121950000D03*
X124325000Y-121950000D03*
X123525000Y-121950000D03*
X122725000Y-121950000D03*
X121925000Y-121950000D03*
D45*
X120550000Y-123325000D03*
X120550000Y-124125000D03*
X120550000Y-124925000D03*
X120550000Y-125725000D03*
X120550000Y-126525000D03*
X120550000Y-127325000D03*
X120550000Y-128125000D03*
X120550000Y-128925000D03*
D46*
X121925000Y-130300000D03*
X122725000Y-130300000D03*
X123525000Y-130300000D03*
X124325000Y-130300000D03*
X125125000Y-130300000D03*
X125925000Y-130300000D03*
X126725000Y-130300000D03*
X127525000Y-130300000D03*
%TD*%
D31*
%TO.C,R9*%
X133325000Y-105250000D03*
X134975000Y-105250000D03*
%TD*%
D14*
%TO.C,U6*%
X125575000Y-92000000D03*
X125575000Y-91050000D03*
X125575000Y-90100000D03*
X123300000Y-90100000D03*
X123300000Y-92000000D03*
%TD*%
D31*
%TO.C,R14*%
X138025000Y-110250000D03*
X139675000Y-110250000D03*
%TD*%
D11*
%TO.C,C18*%
X108800000Y-122025000D03*
X108800000Y-123575000D03*
%TD*%
D47*
%TO.C,L1*%
X130600000Y-112600000D03*
X133700000Y-112600000D03*
%TD*%
D29*
%TO.C,C4*%
X123650000Y-79300000D03*
X121750000Y-79300000D03*
%TD*%
D41*
%TO.C,C7*%
X155000000Y-83000000D03*
X132500000Y-83000000D03*
%TD*%
D28*
%TO.C,C15*%
X129175000Y-81000000D03*
X126225000Y-81000000D03*
%TD*%
D16*
%TO.C,R18*%
X116150000Y-95300000D03*
X114500000Y-95300000D03*
%TD*%
D31*
%TO.C,R2*%
X118375000Y-79300000D03*
X120025000Y-79300000D03*
%TD*%
D15*
%TO.C,C9*%
X132425000Y-128150000D03*
X132425000Y-126600000D03*
%TD*%
D34*
%TO.C,H2*%
X159300000Y-80000000D03*
X160002944Y-78302944D03*
X160002944Y-81697056D03*
X161700000Y-77600000D03*
D35*
X161700000Y-80000000D03*
D34*
X161700000Y-82400000D03*
X163397056Y-78302944D03*
X163397056Y-81697056D03*
X164100000Y-80000000D03*
%TD*%
D11*
%TO.C,C17*%
X115800000Y-122125000D03*
X115800000Y-123675000D03*
%TD*%
D48*
%TO.C,Q2*%
X114350000Y-93375000D03*
X116250000Y-93375000D03*
X115300000Y-91500000D03*
%TD*%
D11*
%TO.C,C13*%
X136525000Y-102225000D03*
X136525000Y-103775000D03*
%TD*%
D49*
%TO.C,Q1*%
X140225000Y-108700000D03*
X140225000Y-106800000D03*
X138350000Y-107750000D03*
%TD*%
D50*
%TO.C,R8*%
X115300000Y-88962500D03*
X115300000Y-86037500D03*
%TD*%
D20*
%TO.C,C1*%
X126350000Y-107150000D03*
X126350000Y-109050000D03*
%TD*%
D51*
%TO.C,R5*%
X135962500Y-95700000D03*
X133037500Y-95700000D03*
%TD*%
M02*
